/* XPM */
static char *_0208e735dc04d7dcdf1c5c7362ca0c7RjAfDsvjsf1Ja0iJ[] = {
/* columns rows colors chars-per-pixel */
"128 128 16 1 ",
"  c #2E2B23",
". c #3D3830",
"X c #40413B",
"o c #4B4740",
"O c #53504B",
"+ c #585A5C",
"@ c #615A52",
"# c #55624C",
"$ c #6D655C",
"% c #626467",
"& c #6F6E6D",
"* c #817971",
"= c #747980",
"- c #958E89",
"; c #858D97",
": c #ACB0B8",
/* pixels */
"O.      ooo+ oO%O%OoX+.oXXoOXXXXXXoXoX#XOX.+X.X.oOXXXoXOXoXoXX%&+X. oXo%O++Oo@.o.  XoXOoX..XXOX..XO#X.X.&$O$OXo .oXXOoXXXXXOXX..",
";:***@---$-:::::::;=&=%=+;==%%%=&&===&X# XO%%+%++%+%%=&==&+=+%%=;::::::;O%%;;::::::;+;::=++%=%=%+=;:=#OoO$$..::::%=;==%&%%==&&==",
":;:*--*-*:-::::::::=;;=;=;;;=;;;===;:;o .#%=%%===&%&&%%%=%=&%====:;::::=%&%+O+*&$*%=&:::=%+%%;=%=;;:=O.O@O.@:===;;;;;==;==;=;;;;",
";=*-:----:--;*--:::=;=%;;=;=;=;:;=;=&+O X#&===&%+%%&%=%%&+;+;=%&::;&=:%;+=+%&=;;=;;=%=OX&%===%+==;=;++X@OO::&&;%=:;;;==;&=;=;-;-",
"$%;-----:---=----:%=;;;==;==;==:=%==+;%X =-;&%%%+o+=%%%&%&%O+&&=;-=&*$;=++;%+%=::;=%=OX%=%%%=+%%=;;=;XO#O$$-*;;=;;;;===+%&&;O&+;",
"%&;;:::::---=&***@&=O=$@+&&&%&=O&%&+;==X.@*-$O&%%%+%;O+%%X%+=++%&;**%@-;OX+%*&*@*O+++%o==OooO&++;+&%+oX.X@**-*==:;&%%+%%%+%+&+&+",
"%=;;::::;-=--=**$**&O=@%&+%&$+o*ooO%&;%X.o@OO+==&&$&=@+@+OOOOOoX&$$==;*+O%+%+=$=;++O%&+;oO+%%%+o+++++Oo.X@**-**%O@@&&%O%&@XO@@X@",
"@*&%;-::;;-**%***-*$@%OO@$XOo..$*@*=&%X  &@@$X&$&&&%*++oOOo+oOO+O+%;&&*%O%O@o+*O@*XO%O@@=ooXOOX+O@O%%=X.O+@*$-=@ooo$@+$%@%OO%@++",
"@%&=;;=;-*==-==;-;O+@@%%o@+Oo*O$&*&*%=o  X&$+++**$$*O&+O@+&@++O+O%=**==+%%+o+%OO+&&$O$$o$%@%*$+oX%=O:%XX.O$&*@%@%@$@O+%XO+@o+O&=",
"+O*&;;&::=;--;::+&&&oOOO$%X=@$o$$@$:&o. XX$&@=&;%@&*&$%+oO@OOXO%oOO%=&*&++%@+O&OO+%=@*@@@@O@@&oOO.+&%XXX.o&*&**$+OO@*Oo%%O*O+%*&",
".%*%=;;;==;;$+%XXOOoOO=+O&&+&&****-%OOX .O$O&&O&=@&*@$@@OO+X@+OoXoOoO%@+&%@oXOOO++o$@$Oo&@&$$&$o%Oo+++X..o&-;====+@@*O=O+%OOo+@O",
"@@O+%=&@O=;o%XXXo$$@&OXo@%O==;;:;;-+++X XO@O.OOO%%&$$$*@%+$o%o+&++OO%%XOo$X@O=+=%%@$&$$O$&**-:Xo&@%XX+X  O$-$$&@&==*-X*$+OOO++&O",
"&*$%&O++%+=%*oX@--&O.oXO@=&+%@&=:-;&+OX.X%$@*&+XO&$*&$-*=O+.XXO.oXO+OO$O@+OO%%&O=&&$&;;;:-;;-%&+O$%+XO+ .$:-**$o$=;:=%=&%o&&@&%%",
"+&**&&@$O&&&+Oo$$$O$@--;*%oOo$%o%&&@o+O  %@$%O*+&%;$*&*-:+%OXOXOOO+&@+%+OOOXoO%%XO==;=-::;;:%@@o&&%O%XOXX+:$-&&$*o%*O@@@%+@=$OoO",
"+**$@XO$$&@&%XO@$$$@*$@+$o..@@==*@@+%%X  O$$$@o%O=%=&;-&O@XOoOo&%%$+oO%o%O%OOO%O@&o%OOo$%&=+@&OO&=+%XX.#$o$--***@@*&=O@==$&O$===",
"==@&O$@@@%@@$%=&$*&@$$:*ooo@*O&OooO++OO .+$&&@@X o$&;-&Xo@@%%$=&*&@&+ooOOooOOX.o%ooO+o@&&OoO%O%;.O&%+.XO%o O---**$$-&$@@X.@O@$$=",
"@=&$%*$%+@@o.+&---::*::$@*-****@$.O+=O+X.%$*%@O.OOO$O.oOX$@+O+&O$OoXOO@XoO%OXOooO..Xoo%OO%@=$&&@@$&%++XO#o. o:-*&***OO%OOOOOO.o$",
"@&&$o&@O@*O$.O@&$**$-:*@*---$*$-O.OOOXo .o$Oo.o.o... oXO..o. o@@&oOX...O.OooOO ooXO...OO@@OX*%$**-$*X.XXOo..o.@*:---$*Ooo.oO.oOo",
"..$@$@o@*O@-&X.O@O*OoO $@$@oO*o$X   o ..X.ooXo .X.X... o  .. .o@@oX..o. X X..X.o@. O ..O:OXo-@*$@ oo...#Xooo.oo..@$:@X.. ......X",
".@&.o..oX oXOo  o...... ..  . O o . .  #&#o  o      .    ..   ..Oo ...  o  ....@OXo..X.$O. X@.   oX.. o#$#OO.@o$o. ...      .   ",
" X@ .  ..#o. @    XOo.oo@.oooo.O..   Xo#XOo. o  .  .. .  . X   .@o oX....   .XO@@ ..O.o $% . .. @oO.o%####*&@o$$oOoo  .    .    ",
"O@o.XX.o.XX. ooOXXX#$Xo$$.o*@@$$Xo o.XXX##.#.#o...XX..X#.. oXoX#$ oX... X.XX.XO@O..@. X.....X#X.o$oXO#Xo####..@o$@@X#X.XXoXXoX@o",
"oOO.oo+XOXXoXXX#X.@#....o . oo@&O.OO++%#oXo##&%+X++++++OO=+%OXOoO%+%;=O+=++O+*Oo@OX  . .o+=%%&++-%.o%%%%X##o@o@o@XOoX.O+OoX&#..o",
" ..;%==&==+%+%&:X ==-#&%$.o..$oOX=;%;;%%+#X##%&%&%++&%==;=%%%%%%=:=:::+%%=;%=;:-*---::--:=::%+&%%;::=%=&+#.o.ooo$O$#.+;;%%=;-X  ",
"::==;;=%;;&&=%&;$--;;;:-;*  .X@@$:=;;;;%++XOO&==&%%%+===:::;%&;:;;:;;===;O%=&:$$$-$-$**@&;&-;++%==--;%=&%.o.@.ooO.:-::=====:&*;:",
"-&+;&;=;;;=&==++==+%-;*==*--:::---=;;:==%+OXO&&===%&%+O=&+%=++%*%&&XOX;+%%%%=&$&@$$@***--**-;%%;&%%O&&;OO.OoO.*-::-**--&=%==&=$-",
"=;+%&=O=%+=&o=%&@&%+&%$=%;*-:-$**-;O%=%%=X..o$*%+++%+%O&=&=%+o*=%+%++X+%=%+O@-=&*&$*-***-$---%&=+%+@%+%oX  .$:::::&--&*;+;&==%=&",
"Oo&+%%=;&:+++%+&@&%==&%o===:-***:*$=%%=%=%.XO**;O+.Xooo@++$+%+&&ooX++o++oo$@$+;*&**&--*$*@$@$*&$%o+oO*=+OXX.O$@*-&*-;**@&%$%=$=+",
"%+X%@&@&o&%&&O+&=@O&X+=@@o--;;--+X@$O+%+oX X$&*&%%Oo+++ oXXX +@+++o+$O@&&OXO&;%$$*$-$*$$@@$@O$&*;@O++-$==X o$&&&@%&$**&&-=O@%$&@",
"+Oo&%+$o$**O&&%=.&$%+OO===;-;:&@&%+oOO&++XX.o@ooO%%+OX@+oo%+$&%O&%*=*$$$&OOo%=o@-&-$**$*@@@$@$$$&++O=@O$&.Xo%&$-@O&==;$--&=&&&%O",
"oOO%%%==;:;$&$+oO+&@+%&%-=-:+O++@o&@+X=%+X..oO@&%&X@O+OOX.O@&&&+=OO@oO$@$=o@X&+O%&&**-$*$$$$$*@$*++*&@*-;XO%::&&@++@%&=&*;@+OO% ",
"O;+@$$=;&o=$=&O.X+O%%&%=;-:;OoO@+&@O+o=%+X X+&&@%O+OO&@+XO&%&$&o&&=$$&@$*$OOoO=:::=:--:-:--*$-*$-OO&=&*:-Oo&::;&&@O@+-O$o%&o+%&o",
"oO=$O+@$+@@&oXO%@+O%X+;%&@@&@$ooo%O&%=%=++.X*:=&*&+o@%%$+O&&&*&O+$&&*%*&*%@oOO%+O=*-----::--*-*-$*O+-;-&: O-:-;;&O@O+&oO@o$@O&@o",
"@o&$@@@.O%O%O&+&O@OooOOO@*@$@*+oO$$@+&O+X.XX-:@&=$%$+O@+OOO*%*:%o%*&&&$+$*;+.O&o-;;;;::*---:--*:@Oo.%-+: . -:*-@o$@@$+@OoO$+O@Xo",
"..o@OoO@@%$%OX@$&&+&=;+O$@@@*O@o$O-OO%;%X O+**=$&@$$$OO+X+==*$$&@&;;&=;;;*oo+O;=;:;:;::;-:::-;-@@O@o@@@*..X-:$*O@@OO@&&oo$$o%&@+",
"XX*@%=%@OoX-&+XO+OOo@%=&@&$@$O$&@**@$&%+X. o+:&&&*%*Oo++X$+%;&@++%=:;*;=$OX&+.%;::::::::::::-=$+oO+oO+:;O.@-$$@@@$@*$@*@o@$$o$OO",
"=;*+@==;;+--=o@+O@@+o@=%$$$*$$*$@-$%OO%+XX .-*-$@&=-+O+O@%O@&$=*+O@$=%$ooOX@++%==;:;;=::::;;&&O=OOO%O+:;o..*--@$*$$******-*&&*&O",
"@;o$@oo@$;-%++ooOO@+oo&$&$**$$$$*$-@%;%+++ X-**=@%-*O%oX&+Ooo+&*&%&oOoo.O%=oX@&;=XO=O;&;;*&$$$XO%+ .@&*;...$:*&*********-*&$-*%.",
"o$&*o@Xoo&@.OO@@..&$O@@&*$*$O**@&*-&@%%%X.oo&---O&*-X.Oo*X$ooo$@=@%=o&o&&&-O.OOo+.X&::;;-**-$--+= .OoO@$O  @-:--**:-:---:---*XOX",
"%+***ooo.....&$OO%@o@@$@$$$**-**$--OOOXX. XOO@@O.**%$+..OXOOOo@@$@@oO$;:-*-OX..OX+.OX*:-&&-*:::**oXooO*@..oo:::--:$**-$----**&oO",
"-*-**;oO. X .@..Xo@@*$**$***-----*-*+o. X.#O.@X..OOOo@ .. .  .o*&$o..@@$*o@X .X. .. .ooo.X@oO$@$@...O* .O$$o*::::-:-*$-*$-----@&",
"$@$O*o=      o   -@*$&$*$*-*-:---@*o..  .XX. #   .   .      . ....  ...X..  X.   .            .O.    ..@o@$@@O:::--::::::::::-..",
" ..                 ..oooo@@*$o        . X.#o##X . Xo . .  ...o...Xo.oX . . X#XX....O .  o##o  OXo .&@@$@$&@@@$---*$*-*$*----@ .",
"OO#X.%=&+oXo;::&OooXoOO$@@.O$$&*@$;==;+++%##O=Oo%=;;;;=+OO%%+  o@@oX#oOXXOOo&+O+ooOO%+XX+XXooOo++%+=X..o$@.@$@o$$$$O@o..o.oo@OO#",
"*OO@::%==O=;=;;;****--:---*:-***-$-$::;==+%===%&;::::::==%=:=%oO.o.&;;=%=;%==;&%==%%=;%;;;==%=&%=&&;O .@.o@ooo.@$$O.$oo... ..$##",
"#++:::+%+;:&;:-;**-:*---*--:-**-*--*-::;;;=;;;;==;-=;::==%%===+.XX&;-;;;;;;;;:==;;;=;;;:::==;:;===;:::=$$$o...oO$@.o@...$$$ o;&+",
"+&&*++&&;=O&*$*$$&***-*-****------:---;;;=;==:;@;;-;*@-==%%==;%X.O*:;=;;=;:;;==;;=;=;=;=::;;%;;;%;==:::::::::::::::::::::::::;=O",
"++*$@$+%%O$@@$@$@@*$$$**$*--:::::::-::=&;@&&&&%%%=*$*-*-+&+&&=+.X@&*@:;=;&=;&;%&=;+=&=;&=;==;;&%;&=&=:::::-::::::::::::::::::;;O",
"o%*@XO&+o=;O$$$-$$$$$$$**::-::::--:::O%@+o@o@$-+o&O*$$@$=%O+:=+ XO*-*&@+%%%@%+%%%&=O&&==;;;&;=&&&=;=;&=%;;-:::--:-:::::::--::++X",
"Oo@&&$%;;:=$$--***$-***--:-:::::-:::=$+&%;@&*&$*O%%@$$*&-OO+%++  O&&$$@$X%$OO&&%O@&==;;=%;+=&$&&@+%&&%+%;:;;----:----:::--:--&+X",
"oO$O&@==;;;%:;:::*:*-----:::::::::;%%+*====-;**-=O&;;;--+oX%oXX XO**-*@XO&&&oO+@O&%%+&Oo@=*=%O%@%%O$o*+&+=;;::::::::::::::*-%O+.",
" X@@*%@%%%;;;;::;::;:-::-:::::::%O+&Xo+&+:;-;*--O%&$*;;&%%OXX.X. O*-*$&@%@oo$$O@O@%&oO&;+O=+O@%+$$+++$+++;=;:::::;:::-:::--:@OO.",
".XO*-&oO%&=;;;:::;:;;::;:::::-*OOoOoO@$O@*;&;$-*&%$@**OOO&&O+oX Xo$-&$&@O@oO%$+@%%+@oO&$+@+@%%@&&+$$Xo@O%&&;;+=;:::--*:---::XOo ",
"oO&*;$%oO==;;:::;::::=-:;::::-%ooOO@OO@o;;*%%$$$O$&$@$@+oOXOOOXXXo$&*&&&+O@@+@@o@&O@%+@%@+O&++$&&o$@@@$OXO@=$%%==%==;:;:*;*&%%%X",
"..:*@o@X$+==%=*-+%;=;%&;=;;;;$@.Oo+X@OO=O+o&=*&**$*=@;&Oo+==+XX .o$&-*&+o+@OO%%@+O=%*&%o@+&X@+o@o+@@@$@*@*%$O&O%O%++%::;:=%+%;=+",
".Xo@@o@ooO$O&;;%+&;+=%:;-;=@.o.@O+O&O+O+$&%-=:;$;&-*;%%o&=&=+oX  O&**;+@@OO@+o*Oo.@&$OoO*&%&%%&&+&@&***$=-$*=@X%X%%+@%=;=%X+%$; ",
" $.o-$@oo@@&**O+O;@$=%%ooO&@%@O++O@O*$+@+o&oO@+*-&Oo$Oooo+o;&=O XO$*$-@O@oooX..oXO$O@oO*&%O&**o@;=**$-=-:@@&=o&$oX.o+%&;@%=O*;* ",
".-O $-*$*$**$:&O@$&%$&O.@oXO+oO++O@*&$&&XXo&=*;;;@O&OO&OOO@=;XXX.o%$$@oO.@OXooOoo@o@ooX$*$$.%OoO@=--&****-;*$+@@+@%*%&&OOO$&::: ",
"@.@&=:-::----:O.@oo$oo+o$O%X@X@o&@+$*$+.OOX.@O&$oO@O@oOoO@Oo=oX.XO**-@+%oooOO@O@O@@$OoO**.&&&;=$$@&&*=*-:-;$O*O=+$o$$%%Oo%%::&+X",
"@$X:::::::::-*o@@OO..oooX@.oOOOo*$$*$-&@+oo@oOXoO.%@O.Xo..oXX%OX +**&$&=@@&*@@$$$@$*:**:@$@oO=:;-**-*-*-:-.@O.O@%$&$@.OOO@-::+OX",
"*#&$:::::::::Xo$O.OoOo...... o.o*--*-$$&$XooXoo..X.o.oXO oo...X .@$Oo&---*@-$*--**$---:-O*-.XO=:;::;::-:@..@@XoX@@O$oO$&--::OoXX",
"#&o @@&O%&O.&$. .  O...X..   . @@-OO@.*X.....X.   .X. ..o ..   X oOo@$;O;----:-:*--::::$::oo..X$:::---:$OO.Ooo...@*o.*@-:::o...o",
"O#oOoo. @oX ..@  . O.  .      ...   .     ..         .   .    oXX... ...O@Oo@o.oo@***$@..X....@*@$$OO@oO@...@.   ...o.  oo..   #",
"X#..o$o .O. X@@OXo ... XX       .... oooX . .X....   .X  ...X.&=#..        .....O.$o.O        ..                           X O&o",
"OXO+=::%::;&+@%o*#&X#O++OX+Xo.Oo.   +Oo+o+OXoXXXoOXX+%+++XXXOXoXXXoXX....oo. . .o@$$XX%+.X .o+%;;;;;;=&;===%;==..XO++oo XOXX++O+",
";;+&;:;%::::::Xo@###=;=;====;;:;::::===========;:;;%=;==%=&%&%%===::=&%=%=&;:-%oo.@..*::&%%%;::*::--*:-:--:::::=%%;:%++%=;%&=;=;",
";;==%;:=:::;*:;XO@.&:;;::;:;::-::::::=;;;%;;;=;::==;=;:;=====;=:;::::;=;;:;:;::O..oo.:=+=%=;;%&-$@@&&*&-*--**-::&%;;;;;=;;;;;;;;",
":;=&=;:+=;;;;::;o..*::=::;=;;:::-;::::=&;;;=;;;;;%;=;;:;%&=;===;;;:::::=;&::=::;.@@@*::&%&=%;:;::;-:-::--*--:-:&%+=;;;;=;=;=;%:;",
";%====&+++%=:::;Oo.&$-=*;+=+&;-&$*:::==&;;;&&=;;=%;=&&;%====+=;%&&;:;=&=;;:=;+:;.. .::=;=O&&%=;;:;;:--;;:::;-:%==%%=O+=+%==&%=;;",
"=+XO%&%OOO&+X+%=OoO*&$&$&%O==%*=*--:-*;%;+%=&%==&%%=;&%++%&%=+%%%%O%;%+$*%%;%+.%O@ @:-*&++%%%o%%=:=::;;:;;;-;O=&O+oO&OoO+++=+=&&",
"O&=O@=++o+&&OoX.  @&$*=**&%%O**=;--&+$+%*$%%+O%+%=&@==++%@%O&OO%%%$*;%&***+;+%+XO. *:&%o&$O+oo%O%+%+%&*;;;;%O%%$&=$=O=+%%+$&%&%&",
"=%&%&ooX$+&%+%XX .O@$$&;*O+O=;*;*-;&@+O%@+@%%@o+$=&%&%O+%++O$O%+o%+&+OO$&O@$&+OX  .*@$*$++@@OOo@Xo=;;%$&$%+O+@O$;=&+$+&oOo@+$o$=",
"=%o%+oO@O@%O%&=+XXo&-$*&-+O=;;;=;-*&=&&=&%+@$OO@=o+$o&o$$o@%o$oO+$o%++$*@*&@&+O+  XO@*$O@+O++@+++$+==;*&*O@@o+O$-&OOX+@+&oXO&&&%",
"%*%%&++O+$=%$O;;X X&-;*@&%%&=&&O;-*%%*o++@&@O%=&&$@%%O$@%%OX%++%XooO&=&*@*-*&&OXX X$@*-%+oOO@O%&%@&=+&;;&&%&OO*$$%%%OO.&&++X&Xo$",
"$@o@@&%O$-OOX+;&XoO&*$-O+$%o.oO*&-$@&*OXOo$%%o$%$+%O%+O%@%O$%%@o@oO@+O%%-*---%OX..X$$$@OOoOoo+@+=+@O++o@=+O+o&;*-&=o%@*@O&&;+@OO",
"+@%oO@=$@$;::;%  XO;-$*=@**==&*$$$$%+.O%OO%O@O@@%$%$%o$@o%o$+oO+++%=O&;%&*-::O+XXXX@&O+@%$+o%XO$@o%OO+@=&O+&*&@&*-@%+&;=+$$&+&&@",
"O@OO.@++@&&%oXOXXXO:O-*@ooO%&;O*$@$X&@@OoOO@@O@&@@$@O&$+OOO%O+OO$$%@%$O&;-*--++X..O$@@&O=&&oO+@+O+@@o@O*+&&@$****%$@+;&%=:--+ooo",
"&$@*$&=;;;&o++OO. .*$-=oOoOooO$$$$-o%%OoO+o*%%%&@o$&@@$=$%O$Oo@XO%&%Oo&=**;:%+O+X X$$-&+O@o&%@o%$+@&+X+$%&+$**;;&*O@%&o%==&O%=;=",
"=*;-**;::&X+++XXX..@-$O%$@O@$O@@-:-@@=O%*OO&o%O@+@-$%OXoO%+O+OOO@%O$&O%&*&:*+%++ Xo@$-*+OOo@*@$*%oo@oO@@*%OO=**$$-&+OO&;&X&*&oo-",
"=$:-*%$=@%Xo&&%O.X%&*$:=;;=*$-**-=&+.@@O%@@+$OO@+--=$O%O+@%+%Xo-O%$%O%=;:=;=&+=+X.X%$$=&%&-@$*+@@;%O@@@O@@=;=$-=:*+$%$@$O@***-**",
"&::O@$*$=$%**=%X oO*:::;;;::::;:;*o+@=ooooO&&@*+*Oo@O$O%+@@O.XOO.Oo.@o*=;OO@o=++XX@**OoO@=$$***--$$@@Oo@O$&$=:--:-O@O&=%****$--*",
":$..$$$$-$&%O*+..XO$$&-$@o*-$&Oo@@+O*&OoX X@;:*-%o..O@*;$&O.O..oo@.ooX.o@oX.@OOX.XX$@Oo.@@;*$-@@**::*-*%.oo@;--&:@o OO@=o$$@@o@@",
"..O. O oooo@.Oo.X.XO@ooooX...oo. ooo... ...XoO@$O.X.$X@@@*&...o@@O ... ...oO@OoX #O@oo.oOo$Oo.o. $.o*&$-&..Xo&..$@  .$;@  .X.@..",
"oOoo@o$&X ...@.+oXoX. ..o   ...  . .    .     o@o   ooO@ooo.   o..      . o .. .X X.o.   .. .$Oo. .. OOoX    .ooo.   ...oOO$$@$@",
"@*ooO**-.X.Xo o.;#O#o   . . ...  .       .     .  .   .. .               .    XXXX#.O.X.  X.o*&*$.$o O@X +X. .#*%o.  o.o@OoO ooO",
"oO$:@*&oO..#$..X# #&O.XX .X..  ...XX    . ..X o. X ....X.. ..o.....X..        .. ##o..#oX  .o$*$XOo o@.XXoooX o%OXX+O#&#o@@ooOOO",
".@-*-&O*ooo#++++%+#  .XO+O++ooXOXo+OOXOXOXOoXO++oOoOoX..#oX+%++%%++%%++&;%=&&%;;%+=%%%%===:&O.OX..o X;;;;;&+++;=&=&;;.$O@$$@Oo$o",
".O**O@@$$X %==%=;;::::;:==;+%%&=&%%&==;:===%%=;:%%==;%X..X%;:%==;======&:;::;=;::;;;;===;:::::::::::::;===%;;:::;;:::X oO@$@*..@",
"o$$o@..X  %;;;=;;:;:;%::;;==%=;:===;==;:;;=%;;=:&==::;#XXo=-&;;;;=;;;;=;:;;:%;;:=;;:;;;;;::::::::::::==&;;=:;:;;=;::::#O@$$oo  X",
" .o  .*=;;-;*:;;=;o%&;&;=;:=;;;;=====;=;-*=%;;;;=;;:%%OX.O&--;;;=;=;;-;@=&=-&%;;:=;&==;;=;:;::::;;-;&;;:&=;=;;::=;=:::%XX.Oo*--X",
"::::::::::+&::==;=&=&&&%%;=;=**-*%%O+&&==;====*%;&=;=+X. o$**&%%&=OO;@O&@-&*&&=&===%=%%%%&;=&;*&;&;=;$oO%=:+:oO;==;=&;&.Xo&::::;",
";::::::%=O+&:;$+=;%%%&=%+%&&@;;%$$@o$&&&+@*O;&=*+%%%XOOX o%*&&%%&%$$O@*@@*@$*O&;%+@=%%&=&%@$=*%*;+%==O@&$*oOO=-$%====+.X O@**::%",
"%&-;=%%=+@%=@@OoO+OO&O@O@O&=***@&$O@&O+&&=@@%&*&O%@&=+O .o&&*==O+o*O+O@$$$@O*=O@%%@;$=&O&&o=$&&@@@;$Xo$$X*O*&*&$-+O+&%O .o*-*&;;",
"&O@*;$%O*&-OO.@%o$ooo@OO@%o@O@&OO@@*-$&+&+$O%o%&%Ooo%OX  X$&$&@$*&+oO$&&$$OO**O+O$@O&o@@&=%&+oXooooooo@$*$$$****&@O+O+. X+*&*-Oo",
"o.O$@$oo$$XoO+$&+o%o+O@Oo...Xoo%&$o$*&@O$O@$&+@**@+=+%O. o*-*%*@+OO@&*@*&&$--@o@%+@%o+*O+$@++O+O$$o@$@O$$@****&**$+OOXO..O&-*ooo",
"X@o@ooOO@@%+%O..o%@O%OOOOooOO@o@*;O@@$@*O%=&O&O&O$%+&%X  X=@-@$%oo%=&**;:;;;*&+O.O@=@++*O$@%@;;=+$*@@*@$*-****;-*&==%+OXXX**Oooo",
"@$$@@*@$$-OO@@+@$&Ooo%=o$@@$$$@@*%%$$*$%+&%O%%ooO@Oo+++. o*-&=O$=+&&=;;&$-*o&%@o@OOoXO+-$=&=;;=;=;;*-------------;;;OOOO +*-&$oO",
"@$**@$@@-&o@&..oOoo..oO+@$$$@$$$@@$$*&**o$@X$$+O+ %+%O+X.+&-**+o%OX;;**-@O$.$+O+O@%%;O&*$====*O+@*-*--------***-*&*&+%+Xo%=:;&$$",
"*@:*$$$$$*%;=o@Oo.@O.*@=%O-$&**-**-*::;&OO$+$@&&%+&o%X+XXo*--@oO$O=$O$&&@$**-@%%$@&=%%;-&%O=+oo%@@@$$-***-:***&--=%%=+X. O*-:;-$",
"-*::*--*-*@@O+%=$&%O@-OO;;$@*-----*-&+&@O=+@%X$=&%++OO.X X%&*&$O%O%O%&***$$@*OOOXX$&+-==**&.XOo$$&$$$---:-:-:-::;&=%=+X  o%*;:=:",
"-:-----**-O&&+.&=%&&&-O@*;:;;-::-;:-:=*=@%o+@O$==&%+%X+X o$$*=@@@X+O***&$$$*-+@OO;$OXXO$-oo$%$*&***-*::-:-:--:::==;%++X.Xo**&+-:",
"*-**--*-O-@@@@.@@o+&-OO*--*=:;::;::*+*@@*+oO$+O@@*o@oOOXXo--*&+@..@=@&**$-@*@%@O*&OOO@O-%%@-;;;----:::::::::::::*%o;&OXX o:$@*&-",
"$--$-*@*$-O@$OoOOoo$&$$&$*$@$&-**::$$*O.oXoo&o$*+X$OXX+.. X**@@Oooo%$--**:::oo=O$+==***-;;::;::::::::::::-:-:-$%.O.O++XXXX-$-;&*",
"$*-$-$*$*$$**@@o*Oo$*@$$$$***$-*-:-@*$.o.o.OoO@*O$X.oXo .o..$**$..O-::*::*--@oX&o*:::----$:=-:;:::-:-::--::*--$@OOo@@X X#Xo$$*$*",
"---**-----$$*-o@$*$:::*-*-:-----:*@Ooo X.. o.O&-O..XX   .X@Oo X@ .X$   .  o-..oo*@@O.. .*.X$*&*X .  ...@.  ..o@@oO&$X. O$OX @*&-",
":::-::::-:----$$--:-$*-::*-***O@..    .       oo.  .   XXX..X..      o. .     . ..ooX..@  ...  XXo.ooo@*O.o.@..  o..@&OO=#o.oo--",
"....o.o....o..   ..                                   X  oX.. o    .      . ....ooX$-XoO#XO XoO$@o.oo.@$*@..oo.X ...O###XXX@o. .",
"@$.oO@...o@..oX $ .o;:;:;;::;;%=+++OXX+OOo+oO+==+oO;:++##%#==;:;OOOO+;-::;=XXXo#X#@$@O OoXoOXo#OO@$oo@@@oo@$@.o..  .XoOX#ooo.o@o",
"*$.oooO.ooo.Xoo..O$:;%;=:::::;%=&;;=%%====&==;::;=;::==%======%===;=%&=::::;#XXXo@OOoO..==%=+:$$o**o.o.. .&;*=O=;;=%++&+%&&@..o@",
"o@.  . ..*&=#$##=-::-&;=:::;:;%%;;:;========;:::::;:=+%%;;;;&;==;;%====&%;:::X XO#$*=O.o:;;=:% Xoo o .&*O+;;;;;;:::=%%==;;::+ oO",
":::::::::-&;%# &-:::%=;;;;;:*==;&;=&====%=%&==&-:=;:;;%;;=&**;%;=;======;;%%+O o$*$O;:::%&;:;:::::::::=++;:;;:;;:::=%==;;;;=-:::",
"::::-:-&--&==X.o&-*:%$%;;=%-==%=++%=%%&%&+&;&&;;-=;-$&=*==$$-%@o&%&&=@&+O-=%XXXO$$&$@$=&%&+=;;::::::=$o%%;;;=;=+:=;++=%;=%===:::",
"::=%;-=%%++X+O.+*=$@+$%+&&=%@%O&+@&=O@%OoO&X==%&@@$$--&=%%==*+&o$%@%@&%%;+oOX. o$*$$%%+$%+O==;::::;=&%@+&+X%&=%&+O*;=;%+&&=;:::;",
"-;==:%O%&O+oXXXO**$$*&$@@O+@$@&=$&oO$O%O&X@&@&OO+*%*&$@@o@%;%++o&@$%+&o@@O&%XX.+=:&&OX%=O%@;*===;%=O;%o%@%&$%=%$==@@oo$@+o;=::;;",
"&o;:%%+%OO%+O .o;*&$@%O+@++@OO&@$OOo@%&%o-@$%=O+$$$$*$%&&%&@&+++&*@@+@oOo&%+++ $-&*$Xo$=%+OOo+$%+&%;=O$OOOoo@oX@oo@O@@@-o*O&;&&%",
"oO+O%+X%&%=% XX+**$&&O@X.$+oO+O%$&%OOOO+*+=$O%&=&&&&&$Oooo%++O+&;@;+=%O.o@$=:=XO-*o$O@$@O=Oo+%&o=%=+%@+&&@OOO@@Oo&@@$@$$*+++%+&%",
"oO++O+.%&;;;+  o$O&*@%%+.Oo+@@oO+%+O%&*o&@&&OO%o&=&*$&o+o%&++&++&O$OO%..OO*=%=X *$O$$$:%&++&o@%o&+@=;:-&O@@-:$$*@*@$$-&-&O%&%=OO",
"O+@OOO%%o@-&%  OO&$&%@$OoOO&&&%@O&%O@=%-OO=XOOO$&;%&&*&=@OOOO%@OOO$OOOooOO*@$=X @$@-*-*%%++O+OXOo+@+oO&%@$**&$*-*-$$*--:*O$%+OO%",
"%oOO=;=$$*-;%  o-*@$&+%%.O@X=@@&+X@%@=;&&O@++O.+o=;;;=+&OO@&%@%o@O&%O++Ooo*$*. ..*$**:+@o.o&+@oO+XO%OoO@*@&**--*$**-*--=OO+++@XO",
"o@X@$&+==:-:%. X*@&$&@@$O%*%Ooo%&%+$$&&O%O$O@&+&@&O%&=@+O%Oo%+&%%o%%&O%&&***- o.o-:*-$O@++Oo++@oXO$+%O@@@&$$****-:----*%+O@oO&%X",
"+OO%X@O=;::;+  X@$$&&%O@++@@%@+@@$%-O$&==%Oo&@+@+o@+*OoOOo&OXOX@.OO*@=;;:-:::.. *::*:@%OoOOO%O+@=%$=+@*--@--:*---:::---o+O++O@@O",
"+O+@O+o%%=*%X .o@&&&**&%$@XO@oOO*+@$O$**XO@@@%@OO&$X&+%o@%$OO@@o%&OOO@=::::::o. -:::-*;+&&&%@OX$%@%&;===&--:---*--::::-$O@O$O&*o",
"XOO@O&@$%&%OX  o@&-$&OoOO@O+$@oooOOO$$OOOoOoO.O$o@.oOOO$.@O-&OO@ooXO&+O%;;::oooo-::--&X+OO+ooOoo@+&@+=:-*--*:-:*-*---:=.OX%&@&-O",
".XO&&$=*-;%O.  O$*&oooX.ooooXOoo$oOOoooOOo.XO@@X.@Xoo.Oo..OOooo.XXO@*%@+:-*.....$-:--$@%X@OOO@Xo.@$-;&&---*------*--::&O@.$O$$*.",
"Oo O&-*-*%O.oXXXo@O ...  Oo.... ..o..o...ooOo..oo ...o@.....Xo...$O$$*-X;Xo@$oooo----*$X.X%@.$..@O@:;-***=----:::-:-::o@oO=$$$$+",
"O.Xo.oo$&o.  X XXo.   ..  ..      .  .  ... .  .. ..  . ..  .. .@$$$. @.o..&--.@$O::-*O. XXO.OXoo O-:;;::-::-::::::::*o..o*-**-.",
"..Oo.o.     #XO...                                            . ..X. .   @.o$o$$.o$*$oo.   .  ... .$$:::::::::::::::....OO$$*@  ",
"  X  O.XX   XXXoo.X.X.   ... . . o.o.. oo.X..   oX....o.oX.  OO $. XO$.o X@Oo$$o.oo.  .            o .Oo.@O@-**$$Oo    ..o .    "
};
