/* XPM */
static char *result[] = {
/* columns rows colors chars-per-pixel */
"32 32 19 1 ",
"  c #593030",
". c #623636",
"X c #623737",
"o c #6A3C3C",
"O c #6F4444",
"+ c #734343",
"@ c #7B4C4C",
"# c #7B5656",
"$ c #8C5656",
"% c #D04242",
"& c #E65050",
"* c #E6CFCF",
"= c #EAD6D6",
"- c #EEE6E6",
"; c #EAEAEA",
": c #F2F2EA",
"> c gray95",
", c #F7F7F2",
"< c None",
/* pixels */
"<<<<<<<<<<<<<<<<<<<<<<<<<<<<<<<<",
"<<<<<<<<<<<<<<<<<<<<<<<<<<<<<<<<",
"<<<<<<<<<<<<<<<<<@O@<<<<<<<<<<<<",
"<<<<<<<<<<<<<<@O@***<<<<<<<<<<<<",
"<<<<<<<<<<<@O@***-#-><<<<<<<<<<<",
"<<<<<<<<@O@***---#--><<<<<<<<<<<",
"<<<<<@O@***-----&#&--><<<<<<<<<<",
"<<<<@***-------%&&&&-><<<<<<<<<<",
"<<<<O---------,%&&&&,-><<<<<<<<<",
"<<<<@=>>------,%%&&&=-><<<<<<<<<",
"<<<<@-  >>----=,%%%,=->><<<<<<<<",
"<<<<O= o  >>--$,=,,=,--><<<<<<<<",
"<<<<@- XoX  >>-$$$$$$-->><<<<<<<",
"<<<<@=  o@oo  >>--------><<<<<<<",
"<<<<@-&%  oXoo  >>------>><<<<<<",
"<<<<O-==;;  @Xoo  >>-----><<<<<<",
"<<<<@=  ==;;  X@oX  >>--->><<<<<",
"<<<<@= o  &%;;  oo@o  >>->><<<<<",
"<<<<@- XoX  ==;;  oXoo  >>>><<<<",
"<<<<<<  o@oo  ==%&  oX@X .>><<<<",
"<<<<<<<<  oX@o  ==;;  ooo@..<<<<",
"<<<<<<<<<<  XoXo  ==;;  o@@+<<<<",
"<<<<<<<<<<<<  o@oo  %&;; .+@<<<<",
"<<<<<<<<<<<<<<  XoXo  ==&%..<<<<",
"<<<<<<<<<<<<<<<<  o@oo  ==::<<<<",
"<<<<<<<<<<<<<<<<<<  XooX .==<<<<",
"<<<<<<<<<<<<<<<<<<<<  @oo+..<<<<",
"<<<<<<<<<<<<<<<<<<<<<<  X@@+<<<<",
"<<<<<<<<<<<<<<<<<<<<<<<< .@@<<<<",
"<<<<<<<<<<<<<<<<<<<<<<<<<<..<<<<",
"<<<<<<<<<<<<<<<<<<<<<<<<<<<<<<<<",
"<<<<<<<<<<<<<<<<<<<<<<<<<<<<<<<<"
};
