/* XPM */
static char *result[] = {
/* columns rows colors chars-per-pixel */
"32 32 14 1 ",
"  c #6F3E27",
". c #62372C",
"X c #6A3D32",
"o c #7B4931",
"O c #734539",
"+ c #7B4E42",
"@ c #804B33",
"# c #885239",
"$ c #8F563B",
"% c #8C5A4D",
"& c #9D6144",
"* c #9D6347",
"= c #AA6C4F",
"- c None",
/* pixels */
"--------------------------------",
"--------------------------------",
"-----------------&&-------------",
"-------------&&-o##&------------",
"---------&&-o##&oooo------------",
"-----&&-o##&oooo&&&&=-----------",
"----o##&oooo&&&&o &&=-----------",
"--&&&ooo&&&&&&&  oo&==----------",
"--o###&&&&&&&& ooo &&=----------",
"---oo#&&&&&&&oo   oo&==---------",
"----#$==&&&&&oooooo &&=---------",
"----#$..==&&& ooo  o&&==--------",
"----#$.O..==&#   oo#&&&=--------",
"----#$.XOO..==#####&&&&==-------",
"----#$..@XOO..==&&&&&&&&=-------",
"----#$==..OOOO..==&&&&&&==------",
"----#$**==..X@OO..==&&&&&=------",
"----#$..**==..OOOX..==&&&==-----",
"----#$.O..**==..OO@O..==&==-----",
"----#$.O@O..**==..OXOX..====----",
"------..XOOX..**==..OOOX.O==----",
"--------..OOOX..**==..O@O+OO----",
"----------..OO@O..**==..O+++----",
"------------..OXOO..**==.O%+----",
"--------------..OXOX..**==OO----",
"----------------..O@OO..*===----",
"------------------..OX@O.O==----",
"--------------------..OOX%OO----",
"----------------------..O++%----",
"------------------------.O%+----",
"--------------------------OO----",
"--------------------------------"
};
