/* XPM */
static char *result[] = {
/* columns rows colors chars-per-pixel */
"32 32 18 1 ",
"  c #DD4242",
". c #EA5A5A",
"X c #F77373",
"o c #EEC07B",
"O c #F2C279",
"+ c #6161BB",
"@ c #6A6AD5",
"# c #7F7FF7",
"$ c #F2C889",
"% c #F6D29C",
"& c #FBDDB0",
"* c #DDC7C7",
"= c #EAD6D6",
"- c #FFE7C3",
"; c #EEE6E6",
": c #EAEAEA",
"> c gray95",
", c None",
/* pixels */
",,,,,,,,,,,,,,,,,,,,,,,,,,,,,,,,",
",,,,,,,,,,,,,,,,,,,,,,,,,,,,,,,,",
",,,,,,,,,,,,,,,,,>>,,,,,,,,,,,,,",
",,,,,,,,,,,,,>>,=;;:,,,,,,,,,,,,",
",,,,,,,,,>>,=;;:====,,,,,,,,,,,,",
",,,,,>>,=;;:====   ;>,,,,,,,,,,,",
",,,,=;;:====;;; ..  >,,,,,,,,,,,",
",,>>>===;;;;;;  ... >>,,,,,,,,,,",
",,=>>=;;;;;;;; ..X.  >,,,,,,,,,,",
",,,===;;;;;@@# ..X.. >>,,,,,,,,,",
",,,,OO>>;;;+@@ .XXX. ;>,,,,,,,,,",
",,,,oOOO>>;+++ .XXX. ;>>,,,,,,,,",
",,,,$o%%OO>>***    @@#;>,,,,,,,,",
",,,,$o&$$%OO>>*****+@@;>>,,,,,,,",
",,,,$$%%%%%%OO>>;;*+++;;>,,,,,,,",
",,,,o$%%&$$%%%OO>>;***;;>>,,,,,,",
",,,,o$&%%%%%&$$%OO>>;;;;;>,,,,,,",
",,,,$o$%$$%%%%%%&%OO>>;;;>>,,,,,",
",,,,oO$%%&%$$&$%$$%&OO>>;>>,,,,,",
",,,,OO%%$$%%%%$%%%%$$%OO>>>>,,,,",
",,,,,,OO&%%%&%%$$&%%%%$%O$>>,,,,",
",,,,,,,,OO%$$%%%%%$$&%$%&&$$,,,,",
",,,,,,,,,,OO%%&$$%%%%%&$$&-&,,,,",
",,,,,,,,,,,,OO%%%$&%$$%%%&%&,,,,",
",,,,,,,,,,,,,,OO%$%%&%%$%-%&,,,,",
",,,,,,,,,,,,,,,,OO%$$%%$%&&-,,,,",
",,,,,,,,,,,,,,,,,,OO&$%&%&&%,,,,",
",,,,,,,,,,,,,,,,,,,,OO%%%%-&,,,,",
",,,,,,,,,,,,,,,,,,,,,,OO%&&&,,,,",
",,,,,,,,,,,,,,,,,,,,,,,,O$-%,,,,",
",,,,,,,,,,,,,,,,,,,,,,,,,,$$,,,,",
",,,,,,,,,,,,,,,,,,,,,,,,,,,,,,,,"
};
