/* XPM */
static char *result[] = {
/* columns rows colors chars-per-pixel */
"32 32 19 1 ",
"  c #B7834F",
". c #C38A51",
"X c #CC8F52",
"o c #C8925D",
"O c #E68341",
"+ c #F78B42",
"@ c #F79756",
"# c #D59B63",
"$ c #DDA267",
"% c #83C853",
"& c #90D95E",
"* c #EEB287",
"= c #EAD1BF",
"- c #E1D0C3",
"; c #EADACE",
": c #EEDCCE",
"> c #EAE3DE",
", c #EAEAEA",
"< c None",
/* pixels */
"<<<<<<<<<<<<<<<<<<<<<<<<<<<<<<<<",
"<<<<<<<<<<<<<<<<<<<<<<<<<<<<<<<<",
"<<<<<<<<<<<<<<<<<<<<<<<<<<<<<<<<",
"<<<<<<<<<<<<<<<<<===<<<<<<<<<<<<",
"<<<<<<<<<<<<<<===:::<<<<<<<<<<<<",
"<<<<<<<<<<<===:::>>>,<<<<<<<<<<<",
"<<<<<<<<===:::>>>>>>,<<<<<<<<<<<",
"<<<<<===:::>>>>&&>>>,,<<<<<<<<<<",
"<<<<-:::>>>>>%%%&&>>>,<<<<<<<<<<",
"<<<<=:>>>>>>>;&%%+@>>,,<<<<<<<<<",
"<<<<=;,,>>>>>>;++++@>>,<<<<<<<<<",
"<<<<=;..,,>>>>;O+++@@>,,<<<<<<<<",
"<<<<=;.o..,,>>>;OO++@>>,<<<<<<<<",
"<<<<=;.ooo..,,>>;;OO++>,,<<<<<<<",
"<<<<=;..#oo#..,,>>;;OO>>,<<<<<<<",
"<<<<=;,,..oooo..,,>;;>>>,,<<<<<<",
"<<<<=;*;,*..o#oo..,,>>>>>,<<<<<<",
"<<<<=;..;;,,..oo#o..,,>>>,,<<<<<",
"<<<<=;.o..;*,,  oooo..,,>,,<<<<<",
"<<<<=;.#oo..;;*,  #oo#..,,,,<<<<",
"<<<<<<..o#oo..;;,,..oooo.X,,<<<<",
"<<<<<<<<..o#o#..*;,,..#oo#XX<<<<",
"<<<<<<<<<<..oooo..;*,,..o#$#<<<<",
"<<<<<<<<<<<<..o#oo..;;*,.X##<<<<",
"<<<<<<<<<<<<<<..oo#o..;;,*XX<<<<",
"<<<<<<<<<<<<<<<<..oooo..;,,,<<<<",
"<<<<<<<<<<<<<<<<<<..#oo#.X,*<<<<",
"<<<<<<<<<<<<<<<<<<<<..ooo$XX<<<<",
"<<<<<<<<<<<<<<<<<<<<<<..o###<<<<",
"<<<<<<<<<<<<<<<<<<<<<<<<.X#$<<<<",
"<<<<<<<<<<<<<<<<<<<<<<<<<<XX<<<<",
"<<<<<<<<<<<<<<<<<<<<<<<<<<<<<<<<"
};
