/* XPM */
static char *result[] = {
/* columns rows colors chars-per-pixel */
"16 16 12 1 ",
"  c #5C3536",
". c #6A3A39",
"X c #733E39",
"o c #915444",
"O c #90584A",
"+ c #9A5C4A",
"@ c #A66853",
"# c #D9A484",
"$ c #E8B796",
"% c #E9C39E",
"& c #E9C9A2",
"* c #EAD4AA",
/* pixels */
"&&&&%%%&&&%%%&&&",
"$&&&OO%&&&&%OO&$",
"$$oo+@@+**+@@+..",
"..o+XXo@@+ooXX..",
"..XX$$XXooXX$$  ",
"  $&**&$XX$***$$",
"$$******&&****$$",
"$$************$$",
"$$************$$",
"$$**++******++$$",
"$$oo+@@o**o@@o..",
"..o+XXo@@oooXX..",
"..XX$$XXooXX$$  ",
"  $&**&&XX$&**$$",
"$##############$",
"################"
};
