/* XPM */
static char *checker1762695709[] = {
/* columns rows colors chars-per-pixel */
"64 64 32 1 ",
"  c #1A1A18",
". c #242421",
"X c #373733",
"o c #383733",
"O c #41403C",
"+ c #2C4762",
"@ c #3C627F",
"# c #3D627F",
"$ c #4B4B4B",
"% c #676767",
"& c #686868",
"* c #CF4170",
"= c #3FAB3E",
"- c #57BA56",
"; c #E58330",
": c #E99942",
"> c #F3C767",
", c #F8DD79",
"< c #D8598A",
"1 c #5D96B7",
"2 c #3C95C8",
"3 c #53A8D2",
"4 c #6DB1D4",
"5 c #9F9F9F",
"6 c #A0A0A0",
"7 c #BCBCBC",
"8 c #E98ABE",
"9 c #86D984",
"0 c #9EE89C",
"q c #F2A2D8",
"w c #80CFE6",
"e c #97E2F0",
/* pixels */
"4444444444444444,,,,,,,,,,,,,,,,OOOOOOOOOOOOOOOO7777777777777777",
"4444444444444444,,,,,,,,,,,,,,,,OOOOOOOOOOOOOOOO7777777777777777",
"4444444444444444,,,,,,,,,,,,,,,,OOOOOOOOOOOOOOOO7777777777777777",
"4444444444444444,,,,,,,,,,,,,,,,OOOOOOOOOOOOOOOO7777777777777777",
"4444444444444444,,,,,,,,,,,,,,,,OOOOOOOOOOOOOOOO7777777777777777",
"4444444114444444,,,,,,,>>,,,,,,,OOOOOOOXXOOOOOOO7777777657777777",
"4444444##4444444,,,,,,,::,,,,,,,OOOOOOO..OOOOOOO7777777&%7777777",
"4444441++1444444,,,,,,>;;>,,,,,,OOOOOOo  oOOOOOO7777776$$5777777",
"444444#++#444444,,,,,,:;;:,,,,,,OOOOOO.  .OOOOOO777777&$$%777777",
"444441++++144444,,,,,>;;;;>,,,,,OOOOOo    oOOOOO777776$$$$577777",
"44444#++++@44444,,,,,:;;;;:,,,,,OOOOO.    .OOOOO77777&$$$$%77777",
"4444444444444444,,,,,,,,,,,,,,,,OOOOOOOOOOOOOOOO7777777777777777",
"4444444444444444,,,,,,,,,,,,,,,,OOOOOOOOOOOOOOOO7777777777777777",
"4444444444444444,,,,,,,,,,,,,,,,OOOOOOOOOOOOOOOO7777777777777777",
"4444444444444444,,,,,,,,,,,,,,,,OOOOOOOOOOOOOOOO7777777777777777",
"4444444444444444,,,,,,,,,,,,,,,,OOOOOOOOOOOOOOOO7777777777777777",
"00000000000000004444444444444444,,,,,,,,,,,,,,,,OOOOOOOOOOOOOOOO",
"00000000000000004444444444444444,,,,,,,,,,,,,,,,OOOOOOOOOOOOOOOO",
"00000000000000004444444444444444,,,,,,,,,,,,,,,,OOOOOOOOOOOOOOOO",
"00000000000000004444444444444444,,,,,,,,,,,,,,,,OOOOOOOOOOOOOOOO",
"00000000000000004444444444444444,,,,,,,,,,,,,,,,OOOOOOOOOOOOOOOO",
"00000009900000004444444114444444,,,,,,,>>,,,,,,,OOOOOOOoXOOOOOOO",
"0000000--00000004444444#@4444444,,,,,,,::,,,,,,,OOOOOOO..OOOOOOO",
"0000009==90000004444441++1444444,,,,,,>;;>,,,,,,OOOOOOo  XOOOOOO",
"000000-==-000000444444#++@444444,,,,,,:;;:,,,,,,OOOOOO.  .OOOOOO",
"000009====900000444441++++144444,,,,,>;;;;>,,,,,OOOOOo    XOOOOO",
"00000-====-0000044444#++++@44444,,,,,:;;;;:,,,,,OOOOO.    .OOOOO",
"00000000000000004444444444444444,,,,,,,,,,,,,,,,OOOOOOOOOOOOOOOO",
"00000000000000004444444444444444,,,,,,,,,,,,,,,,OOOOOOOOOOOOOOOO",
"00000000000000004444444444444444,,,,,,,,,,,,,,,,OOOOOOOOOOOOOOOO",
"00000000000000004444444444444444,,,,,,,,,,,,,,,,OOOOOOOOOOOOOOOO",
"00000000000000004444444444444444,,,,,,,,,,,,,,,,OOOOOOOOOOOOOOOO",
"qqqqqqqqqqqqqqqq00000000000000004444444444444444,,,,,,,,,,,,,,,,",
"qqqqqqqqqqqqqqqq00000000000000004444444444444444,,,,,,,,,,,,,,,,",
"qqqqqqqqqqqqqqqq00000000000000004444444444444444,,,,,,,,,,,,,,,,",
"qqqqqqqqqqqqqqqq00000000000000004444444444444444,,,,,,,,,,,,,,,,",
"qqqqqqqqqqqqqqqq00000000000000004444444444444444,,,,,,,,,,,,,,,,",
"qqqqqqq88qqqqqqq00000009900000004444444114444444,,,,,,,>>,,,,,,,",
"qqqqqqq<<qqqqqqq0000000--00000004444444##4444444,,,,,,,::,,,,,,,",
"qqqqqq8**8qqqqqq0000009==90000004444441++1444444,,,,,,>;;>,,,,,,",
"qqqqqq<**<qqqqqq000000-==-000000444444#++#444444,,,,,,:;;:,,,,,,",
"qqqqq8****8qqqqq000009====900000444441++++144444,,,,,>;;;;>,,,,,",
"qqqqq<****<qqqqq00000-====-0000044444#++++#44444,,,,,:;;;;:,,,,,",
"qqqqqqqqqqqqqqqq00000000000000004444444444444444,,,,,,,,,,,,,,,,",
"qqqqqqqqqqqqqqqq00000000000000004444444444444444,,,,,,,,,,,,,,,,",
"qqqqqqqqqqqqqqqq00000000000000004444444444444444,,,,,,,,,,,,,,,,",
"qqqqqqqqqqqqqqqq00000000000000004444444444444444,,,,,,,,,,,,,,,,",
"qqqqqqqqqqqqqqqq00000000000000004444444444444444,,,,,,,,,,,,,,,,",
"eeeeeeeeeeeeeeeeqqqqqqqqqqqqqqqq00000000000000004444444444444444",
"eeeeeeeeeeeeeeeeqqqqqqqqqqqqqqqq00000000000000004444444444444444",
"eeeeeeeeeeeeeeeeqqqqqqqqqqqqqqqq00000000000000004444444444444444",
"eeeeeeeeeeeeeeeeqqqqqqqqqqqqqqqq00000000000000004444444444444444",
"eeeeeeeeeeeeeeeeqqqqqqqqqqqqqqqq00000000000000004444444444444444",
"eeeeeeewweeeeeeeqqqqqqq88qqqqqqq00000009900000004444444114444444",
"eeeeeee33eeeeeeeqqqqqqq<<qqqqqqq0000000--00000004444444##4444444",
"eeeeeew22weeeeeeqqqqqq8**8qqqqqq0000009==90000004444441++1444444",
"eeeeee3223eeeeeeqqqqqq<**<qqqqqq000000-==-000000444444#++#444444",
"eeeeew2222weeeeeqqqqq8****8qqqqq000009====900000444441++++144444",
"eeeee322223eeeeeqqqqq<****<qqqqq00000-====-0000044444#++++#44444",
"eeeeeeeeeeeeeeeeqqqqqqqqqqqqqqqq00000000000000004444444444444444",
"eeeeeeeeeeeeeeeeqqqqqqqqqqqqqqqq00000000000000004444444444444444",
"eeeeeeeeeeeeeeeeqqqqqqqqqqqqqqqq00000000000000004444444444444444",
"eeeeeeeeeeeeeeeeqqqqqqqqqqqqqqqq00000000000000004444444444444444",
"eeeeeeeeeeeeeeeeqqqqqqqqqqqqqqqq00000000000000004444444444444444"
};
