/* XPM */
static char *checker1762696361[] = {
/* columns rows colors chars-per-pixel */
"32 32 14 1 ",
"  c #2F2F2F",
". c #444444",
"X c gray27",
"o c #565656",
"O c #5B5B5B",
"+ c #5F5F5F",
"@ c #6F6F6F",
"# c gray44",
"$ c gray52",
"% c #888888",
"& c gray56",
"* c #9F9F9F",
"= c #A2A2A2",
"- c gray79",
/* pixels */
"++++++++++++++++$$$$$$$$$$$$$$$$",
"++++++++++++++++$$$$$$$$$$$$$$$$",
"++++++++++++++++$$$$$$$$$$$$$$$$",
"++++++++++++++++$$$$$$$$$$$$$$$$",
"++++++++++++++++$$$$$$$$$$$$$$$$",
"+++++++@@+++++++$$$$$$$##$$$$$$$",
"+++++++&&+++++++$$$$$$$XX$$$$$$$",
"++++++@**@++++++$$$$$$#  #$$$$$$",
"++++++&**&++++++$$$$$$X  X$$$$$$",
"+++++@****@+++++$$$$$#    #$$$$$",
"+++++&****&+++++$$$$$X    X$$$$$",
"++++++++++++++++$$$$$$$$$$$$$$$$",
"++++++++++++++++$$$$$$$$$$$$$$$$",
"++++++++++++++++$$$$$$$$$$$$$$$$",
"++++++++++++++++$$$$$$$$$$$$$$$$",
"++++++++++++++++$$$$$$$$$$$$$$$$",
"----------------X...............",
"----------------X...............",
"----------------................",
"----------------................",
"----------------................",
"-------==-------.......+O.......",
"-------oo-------.......$$X......",
"------=  =------......O**O......",
"------o  o------......$**$......",
"-----=    =-----.....O=**=O.....",
"-----o    o-----.....$****$X....",
"----------------...XXX..X.XX....",
"----------------................",
"----------------................",
"----------------................",
"----------------................"
};
