/* XPM */
static char *result[] = {
/* columns rows colors chars-per-pixel */
"64 64 2 1 ",
"  c #ACDF9A",
". c #C1E5A5",
/* pixels */
"      ........          ........      ........          ........",
"      ........          ........      ........          ........",
"        ........          ......        ........          ......",
"        ........          ......        ........          ......",
"          ........          ....          ........          ....",
"          ........          ....          ........          ....",
"..          ........          ....          ........          ..",
"..          ........          ....          ........          ..",
"....          ........          ....          ........          ",
"....          ........          ....          ........          ",
"......          ........        ......          ........        ",
"......          ........        ......          ........        ",
"........          ........      ........          ........      ",
"........          ........      ........          ........      ",
"  ........          ........      ........          ........    ",
"  ........          ........      ........          ........    ",
"    ........          ........      ........          ........  ",
"    ........          ........      ........          ........  ",
"      ........          ........      ........          ........",
"      ........          ........      ........          ........",
"        ........          ......        ........          ......",
"        ........          ......        ........          ......",
"          ........          ....          ........          ....",
"          ........          ....          ........          ....",
"..          ........          ....          ........          ..",
"..          ........          ....          ........          ..",
"....          ........          ....          ........          ",
"....          ........          ....          ........          ",
"......          ........        ......          ........        ",
"......          ........        ......          ........        ",
"........          ........      ........          ........      ",
"........          ........      ........          ........      ",
"      ........          ........      ........          ........",
"      ........          ........      ........          ........",
"        ........          ......        ........          ......",
"        ........          ......        ........          ......",
"          ........          ....          ........          ....",
"          ........          ....          ........          ....",
"..          ........          ....          ........          ..",
"..          ........          ....          ........          ..",
"....          ........          ....          ........          ",
"....          ........          ....          ........          ",
"......          ........        ......          ........        ",
"......          ........        ......          ........        ",
"........          ........      ........          ........      ",
"........          ........      ........          ........      ",
"  ........          ........      ........          ........    ",
"  ........          ........      ........          ........    ",
"    ........          ........      ........          ........  ",
"    ........          ........      ........          ........  ",
"      ........          ........      ........          ........",
"      ........          ........      ........          ........",
"        ........          ......        ........          ......",
"        ........          ......        ........          ......",
"          ........          ....          ........          ....",
"          ........          ....          ........          ....",
"..          ........          ....          ........          ..",
"..          ........          ....          ........          ..",
"....          ........          ....          ........          ",
"....          ........          ....          ........          ",
"......          ........        ......          ........        ",
"......          ........        ......          ........        ",
"........          ........      ........          ........      ",
"........          ........      ........          ........      "
};
