/* XPM */
static char *result[] = {
/* columns rows colors chars-per-pixel */
"64 64 2 1 ",
"  c #70A38D",
". c #F6B798",
/* pixels */
"................................................................",
"................................................................",
"..............    ............................    ..............",
"..............    ............................    ..............",
"............        ........................        ............",
"............        ........................        ............",
"..........            ....................            ..........",
"..........    ...     ....................            ..........",
"........                ................                ........",
"........                ................                ........",
"......                    ............                    ......",
"......                    ............                    ......",
"....                        ........                        ....",
"....                        ........                        ....",
"..                            ....                            ..",
"..                            ....                            ..",
"                                                                ",
"                                                                ",
"              ....                            ....              ",
"              ....                            ....              ",
"            ........                        ........            ",
"            ........                        ........            ",
"          ............                    ............          ",
"          ............                    ............          ",
"        ................                ................        ",
"        ................                ................        ",
"      ....................            ....................      ",
"      ....................            ....................      ",
"    ........................        ........................    ",
"    ........................        ........................    ",
"  ............................    ............................  ",
"  ............................    ............................  ",
"................................................................",
"................................................................",
"..............    ............................    ..............",
"..............    ............................    ..............",
"............        ........................        ............",
"............        ........................        ............",
"..........            ....................            ..........",
"..........            ....................            ..........",
"........                ................                ........",
"........                ................                ........",
"......                    ............                    ......",
"......                    ............                    ......",
"....                        ........                        ....",
"....                        ........                        ....",
"..                            ....                            ..",
"..                            ....                            ..",
"                                                                ",
"                                                                ",
"              ....                            ....              ",
"              ....                            ....              ",
"            ........                        ........            ",
"            ........                        ........            ",
"          ............                    ............          ",
"          ............                    ............          ",
"        ................                ................        ",
"        ................                ................        ",
"      ....................            ....................      ",
"      ....................            ....................      ",
"    ........................        ........................    ",
"    ........................        ........................    ",
"  ............................    ............................  ",
"  ............................    ............................  "
};
