/* XPM */
static char *result[] = {
/* columns rows colors chars-per-pixel */
"64 64 2 1 ",
"  c #00BBE6",
". c #B5D0E6",
/* pixels */
"  ............    ............    ............    ............  ",
"  ............    ............    ............    ............  ",
"    ........        ........        ........        ........    ",
"    ........        ........        ........        ........    ",
"      ....   ...      ....            ....            ....      ",
"      ....            ....            ....            ....      ",
"                                                                ",
"                                                                ",
"..            ....            ....            ....            ..",
"..            ....            ....            ....            ..",
"....        ........        ........        ........        ....",
"....        ........        ........        ........        ....",
"......    ............    ............    ............    ......",
"......    ............    ............    ............    ......",
"................................................................",
"................................................................",
"  ............    ............    ............    ............  ",
"  ............    ............    ............    ............  ",
"    ........        ........        ........        ........    ",
"    ........        ........        ........        ........    ",
"      ....            ....            ....            ....      ",
"      ....            ....            ....            ....      ",
"                                                                ",
"                                                                ",
"..            ....            ....            ....            ..",
"..            ....            ....            ....            ..",
"....        ........        ........        ........        ....",
"....        ........        ........        ........        ....",
"......    ............    ............    ............    ......",
"......    ............    ............    ............    ......",
"................................................................",
"................................................................",
"  ............    ............    ............    ............  ",
"  ............    ............    ............    ............  ",
"    ........        ........        ........        ........    ",
"    ........        ........        ........        ........    ",
"      ....            ....            ....            ....      ",
"      ....            ....            ....            ....      ",
"                                                                ",
"                                                                ",
"..            ....            ....            ....            ..",
"..            ....            ....            ....            ..",
"....        ........        ........        ........        ....",
"....        ........        ........        ........        ....",
"......    ............    ............    ............    ......",
"......    ............    ............    ............    ......",
"................................................................",
"................................................................",
"  ............    ............    ............    ............  ",
"  ............    ............    ............    ............  ",
"    ........        ........        ........        ........    ",
"    ........        ........        ........        ........    ",
"      ....            ....            ....            ....      ",
"      ....            ....            ....            ....      ",
"                                                                ",
"                                                                ",
"..            ....            ....            ....            ..",
"..            ....            ....            ....            ..",
"....        ........        ........        ........        ....",
"....        ........        ........        ........        ....",
"......    ............    ............    ............    ......",
"......    ............    ............    ............    ......",
"................................................................",
"................................................................"
};
