/* XPM */
static char *result[] = {
/* columns rows colors chars-per-pixel */
"128 128 70 1 ",
"  c #4C5453",
". c #4D5957",
"X c #4E5D5B",
"o c #545D5C",
"O c #585F5F",
"+ c #56605F",
"@ c #59605F",
"# c #556463",
"$ c #5B6463",
"% c #576866",
"& c #5D6867",
"* c #5D6C6A",
"= c #5E706E",
"- c #5F7371",
"; c #606766",
": c #616867",
"> c #636D6C",
", c #686F6E",
"< c #65706F",
"1 c #68706F",
"2 c #657472",
"3 c #6C7675",
"4 c #657977",
"5 c #6D7877",
"6 c #667C7A",
"7 c #6D7C7A",
"8 c #707777",
"9 c #707877",
"0 c #717B7A",
"q c #787F7E",
"w c #67807E",
"e c #6B807E",
"r c #73807F",
"t c #78807F",
"y c #6D8381",
"u c #6F8886",
"i c #6F8A88",
"p c #748382",
"a c #7A8483",
"s c #748986",
"d c #7B8887",
"f c #758B89",
"g c #7C8B8A",
"h c #7D908E",
"j c #7E9391",
"k c #808786",
"l c #818887",
"z c #828C8B",
"x c #888E8D",
"c c #83918F",
"v c #89908F",
"b c #859392",
"n c #8A9493",
"m c #839997",
"M c #8B9897",
"N c #869C9A",
"B c #8C9A99",
"V c #909695",
"C c #929897",
"Z c #939C9B",
"A c #8EA09E",
"S c #94A09F",
"D c #8EA2A0",
"F c #96A2A1",
"G c #9BA5A4",
"H c #9EA9A7",
"J c #9EAAAA",
"K c #A2A7A6",
"L c #A2A8A7",
"P c #B8C4C2",
/* pixels */
"777eee777800eyw6777ye7e76777777eeee7we6e7777e787t8777078e0q7p837880e7e7dp7e70e77788q7778788r70r70787000777e78770e7aeeyeweyeeeee0",
"705570z05877y7wye77yw67ew77w677geeeeeee67ew5857087078775r077q77578e77e7707e7e7777773c0787778q888888d87zqr70077770reeeeeeyweee7e7",
"70505550577777yse7e6y67ee7e777700qeewww77e778759007770730000cd7587eeey7800ee77pt57788r7958880c7078078700079777070080qeeeeree0pb0",
"00007677s70py77777yype77777ey7558reeeyee780z97988e00008z88e0e7757g7p777780700q80d778880837a5888000707800777777098770000ye7Fz7338",
"at97eyy67e70pr007070e7e7e7e77y0080rrep7ey78e0890nd00q0rdp78307egeeBee477p0Z00d807c7778r080008r00lqr0087807e777e988000000k088p782",
"55077pwygpp7rtp00000000770777000rpye8q079a7888800C307Mrrr073r07ee0e0e7d80rF0ddpq7d7773Z07508870rry00007097eee79590000qq00k77e777",
"7577557ye0ppp0000577000777700eppppyqq730007708808780qp8pqr0830e0e0ee53z80rqppp8q067778g0833008qpppar00087eee75798eZ0qtprqpyeee77",
"7075g67y7yppGsp0055005007057707pasqqa007977880708070ppbpprr0e0e0770e7577d0atd0qp0e777880774387pqappqq0e0e7e77099780qqJtapper0087",
"7077e576wysgfsp0000000007756587aMfapq009000787088080thhtpdq7q7770000783770kdda0qr7eg77830e74878qadazrr7e707787d383880dkdppyq0807",
"777e646466gjfsp00008850p0555445snlapq0q000078k0332,3kbhdq0k00007e008333<3nzbzdpqqe77p773599553puNfapr0r77C7800883333qJcdapq00770",
"77ew6y42-6yjfip000005508077422&#bdapq00t708070335,,,OPhapz008070788783,8:$7cdqa0ree7e0e79333<<*%mguprrq787877958323>OVbaqqq08080",
"eeew6722*#%wiyyy700a07557552,2$o30qr00e37003n833,22&o>0r0q08d8088888333<>OOqq0rr0e77eep7453,,>$O4ejpr0700807875583>&O:8pq0000077",
"7y77553<2**47yee780008757552<>&:<8d00r739700308422<*;<480q000887887883<:>;>3770r7e7eeg7p555<4:>:257r7878788lq98333*&&,89q00q7770",
"w67951,32225p7wy7888777775542,,,<380z007q7008v7754<,,2588787007800p83338>,7,833a070ry77p7402,,,<d4790aq88078978823<,><397777777e",
"yt58542,222467y67774g77778553,233378870887a8777757<334337880780778877833,,d33737877r7p7777737,dky55878080770787333383338877e7yew",
"7097774385877w6y7777777775553z33538788807957875745332335870007r8z8p83333234337760e7e0yc77883k3<48q558807q7878787335,28390e7dee7e",
"0p077e77355g77ep77777ee777703884540859n7777088075555647575000776754d7r553474e7777770777773085773809807887778800838333284qe7S0779",
"8007y77755800e77ee7w77ee77788858580757777e780705577776550000077ey72h7077777777ph7777777773780833578p879a787070870p769489808709a5",
"50575y77n500707ew677807ew7r08877708qe77e677q8787507777770900077wee67s77e7pge67777e7477d7377877780078088c978789800yy6e80387879989",
"570080850070000eey7707eww774780457920eewew74800e55007e7590550ree6e7e7e7re0e7ey677777a77pg788788k70983077877598n8959e908008997777",
"M0555n5555050057777a8eyw767777577059qneewew75p0er5507709509d0777weyee77ee7eeewe077z78e0ee7d77777k508000070887787e77e99000e97zq00",
"505575535550505077887eewyy777e677788900ee77e730e75500008500000eeew7e7ee7ee7eee777er7700ee0eb07788880z08887877807e777e53085959e9a",
"777766e775500770r77p7eee67777wyw550e9e9e7777777e55000t5050570007ge78e777e0ee7eecy7bd7770e0077773073788590078d80e770e6e3099555559",
"7e7e6yw7777550777e7fww7wywewwww7779y99eee7e7588r75905n83a005007077757e777e7077e70e6p70d077e7M78300a007e8887777q05s7p59909e7eew5e",
"6ew7wNwwee7750777yewwyyw6wwwe6yfe03000007w6755000550e77079950077e7e7770707ree7e7ee777737q7707p77878r70870q777777d000708ewee5eew7",
"www66eyeweeeer7p77yewww6yy6ueyyy9q00080ew67708057570r700009505e7e7e7e77erereepe77e7ee77877e07e0e00088a08q77757078000000zeee7eww6",
"7e677e6yywyprre7eceee6wyeywyy7yyyqq0q99e7w7505077e7pe00l00075p7ee77577700repyyee47e707888e70e0reaedq09700d77980q0870r0reereeeee6",
"7wpy7e7yyyyprpre77B7eyy66ee7eyy7pyqp0qeger755557e7eer0aret0777777e7777e7eyypupyee7epM087807ee0yypr0c008707775e09907rqqpyyyre7eec",
"777mw7eyeysppsp0F7577y66e6pe6wyyppl000rw7778057e6677Srtpatr077e77777777erruauupyy6h06773c77e70ppuppd0rp84re79e97087ppasapyyefe77",
"yg777666wysfdsp00757y7yye7w67yypaaatree7775050y76b7srdadpp7e770777777767eragffuyye6ee77478077Nypggapr0q7830p598993q0addfupr0eeed",
"7p7e766677cggspr0nd57w7ey666667szgaapypww748p5577666egzappepe0777777574577ghgfiMyyw677e7783774ehhgmup00r9930709333,8plbgspeee797",
"8877766--=jmgapp000776yew6666-*7Bzaazyye77080555474-gAggpppee77007e75642-<bmffuyy0ee6e777,3,4-=eDfaprr7807807930,n2><Bcdpqrr7777",
"55756e--=#+epprH0077e7ee66642=% 50aaprep758555544a2*X-ppyyyy7707777e662-=XXepuiyyyyew70095222-%.6yrqr0080009e85p3,2&o:yqqqqe9y99",
"777754y2g%*2700000e07e7yy6s44*&$2500erez3zb7755582=*%-77jyy0e777e7767w--=*=27ryyywyeg3q3e54a2-%*2787pr090090909,2,3&3>3000000e5e",
"777g7422==2475777e77e7yewe66250>25577ee707ww775a522<=277ey7e77777777666--=2267eewwe75507b9522---26309qZ8707079p35,,3><3d9tG00p0e",
"pg7766444244677777777e7yy6643325q5775005ree7775382a2254407007b577eeww6622-26677eew7e55080e66yy2565587787700909323382<<550e008590",
"070ee764446667wge77y7y6ywg753213877670057y7777775552vz845005g57eeeee7w6266-a57ewe767773890755423555307087087d8973332235398979893",
"5077ew6744sw6w7ey7777677ww77333557755500ej67n507853545485n7tp777e7we67e6666j4ewwwwe77778970705834s55885907887077e35533qg7p599e0a",
"838seB6666y6fee6e777ewy6e65055555877507M7e777800584687745577777e6eewee777eww7wwwwuee7777888388d880979799787708099955455909098809",
"G500eeeyweN467w777yw7e6y75Z005985k080500a770008a077yB67777777eeweww7777z5dw7eeyeee7777770d8087788707797507880q0757e08587857903qd",
"500t0777e7p66ee7e7e7eey678r870000755000000750887007eeyy6677ewywyeeee7575,7qee7e0e777e7789e807077390t0908875785sd9087759q757007t0",
"5500g7747577eywe7e7w7e6y788055558r05778000000850a70777ypyeeew7w77e7e770738770t70e7p0770799707978870087708588989977879rry55880877",
"0500p75gsz7shewee77e67w674808708878700a88700008808000002rree7eeree7ee730080ee00r089q50080390009700987880n987088507088e7,7780077a",
"08n705d0bdbb7ew777e7jw777875a000878800q050p057055007000073007077870qre0,0880773885577837979e88e878778870858079758770076870798p08",
"850550d57cb7p7w76e7e7yy77z508805580870088r55077087889r00708007777838,pe78590e7930080977885878a808ra8788e958708q98883v0e783077788",
"05058d35z5n76eww77e777e7770585707570q59g70580580057779ak08n8800030777ke780777e780777777775590078788d708877070879d308300778787877",
"77559557005pree76u7yw777755005n0r0z5808g00000080700074p07080808787eep30708e0ee0d300dp5e797e789700e0a887800998807780070rehq777775",
"bhn0050000ep0ryyyy67e7777075000Zr00008r8r85500800500000r0078g7080e6e673qz0Fyerer80z07q0eee997000r0qar8738770977q88d0qdqq079ey6nr",
"4r7750000Z0rrrrcewwe7ppe7770700app0rq00a80085087088r0rrrp007087077e6e77a0rpqpepz038308ep70558000qpqd075r08707755a790a0qpprr7e0e0",
"7d5555500qqaarrrrr7eww77777758a0arrr008a00d0800588q0rnrpr07070500r7r7e780p0aaqpq0p7e300z08e577kqqpqqrr88080077589z790qqprq0r77g7",
"nm77a3550qadaar0reee6eww77755500ggaap0a80500g85573800qrqCr00880077775a790rcakpd0r77r80q8599988qqspsqr08838087857e597rppdpqn007gg",
"7775355327gnZztq00zewu7e7778550sazara000805080754258rkdgqrr0770k0e77553900dzktdqr7e583709590q37akdaqaq08878700883390qdzcpq0070e7",
"0708533225knaapa0700erF757523,3pnzcz0z0000807775422<8nzgnprg887885008522<3zvdtppg009798855a2<<<pBddpqr070800788r3,<<5ncdpqr08777",
"78043325*#+pap00q080077p7552,:$ prabr0084000005652<&.4pppr0r7307988333,>:,:aazqq008098785533,>$ akzqr0080088907333,;.5aare0r7777",
"0088422=*%$300r0873007z40Z03>:&$380Ba000850a0577222*$q70r0c0r0589877222<:$$70d7q0q807d709542<>&$>r00000080099753,<,&#*7ere070080",
"88784542>*>3500009d0098l0q522,3:2880z007008007764<<=*240008888807r767422>:>388770870789p7r3223;><290r808080797553<<<>2478qq07p78",
"55p77r411<28385098p7e0x0r982,>>,25q857070000507742<2=23855775508f5e5w-422-<387777000977797e622223350708999e9803532<,223878878857",
"s77s47420v2r3558798Z998408833323525888888788000784r22505y76paq075ywwwu42e2<33580008099q7e5556022267570879q090p89,333333370770787",
"707e77n2z74335rZ758808r87888253525500080007005z7464415766we64d807ewywwe6e445588778cq003000e95625555797009ee9999083233358700r7700",
"077807w7784855a777r87q0878075352500075755807p8507s742777y7y758009eyweeu7748p589809qpe008900e3e666e79999q98079q9e95z35580880e07p8",
"00qk0977777p7a7777780778r0a805aa00750500778708858e67277y67500050eeeeewez7u87a7087088987a7e0900s5u9p00p7779997p907p98788887778808",
"834870007707787777880v8r0zd8800dr857d7700700580a5bh7377w77d0d5Z0z00reewe7777f708000970839900py5e77889988555ep9008re97007r53dr070",
"89088840000e6y76gpa4088aa8855505rc07e750077578077r7780p77750850593deeeye7eueg,8q700pe77a598r0q0e0dk08759890309e079qrp88p77788878",
"78778488770b777774980q975a57058p80077000880770a507w7808ep5508057783qdewefee67r350780eee678050q0903a707w75980e0880979708kd008778d",
"98985d8880707e5e7p750088788g7780007709088Gb77777e0e7a3807700878777570eehep7e377dv088es7e757800q80a880ee7575d7880878d77dpz0787778",
"eq089e55z700e5e0s5550z585C77098700p98000q88747700707d7087878870eee9v7eaw77e7880780gq07egeg788707088a07gww773838k088759388809q978",
"9700d7e0t907955e57758a50858r88098990870q00p0ee77e70778d8800000667ee570ewe7803787p07300995058788g0773777Ba770758888p8q959909779az",
"77778q78d0009evd07p59000708g000rqp79997787te7ee6e77088700778peeeeu65r0ee770e707c9a093089788r87080r77sqeGy798857d877000p0070z07c9",
"00978a07800r0F005777858588g00000dz0a007888qre6ee6p7700080088d0yeefw77rywee00r78r883075p0788z7000070ry97e7578z993708k00700070a877",
"0880p7qS0pqy000077773z8080070800z0q008800070eeeeep700qpqq000B7eeeepe3q0ywyyppe87z8707788a778070qdqa00777e657807008000q0qr007z080",
"800895878dqppbpze7e747070887080rFnq000r00888eee7e770qptpp00000e77ee7050pyyuiuuj0877770787p70pqrpqpqqqpe7ww778770088dqqyprr007778",
"008d88z008pdsdps07g587857858700rSaFpq008080cb7ww7777ptatpqk0077ee7e7673eypufdupq0887078778088800kpqadseea7559q75d8a00Zatpp00q780",
"887957a9arpzdsc077b5850088p8d8Grfdapq00qtp8n0ye76677pkkpd0r707e0eefy44733pdzkd0q00q07877933q0trupdptpp0e78r8q89553p0qdddaza00880",
"8098533357gzgdprreaa50557883248qZkdpr0808808pee454430bzkqdqre767wyw4e44s2qzcdaq08n80p775537450saFgzp0r07p777p5553333dSBdard00880",
"78r5032,>#5cgapep00005z5833,<1&Ondapq0773877p77744<>Obddt0r0e6770y6i046->O8hpppe0780e767e3330>:#btdp0rz00783897qp<>>Oblzrrr00900",
"08883t>,2#$80qrr00500088kd32>>;O8p0qp07d7777778z4<>&O,00rreree676yyfr44-*#%6pyyye0070ye77582<*&o3pq0raa7t877878p0,,&$:zfr0p00808",
"88773d23>;:380000087050z992,<>>>,77rr07ge77777574<<*:>37er0eeee67yww666-==-y6yyw7z7ee6Me53323*&*>0007z78p870708538<&;3390000e088",
"dz09033,<:235z00048755xq030d,,8<23zp7nrd0eee777454<<<2477eeeeeeep6rw666----4eeeg788067e7543<8<<q33ka7057d0887835330>,<,9990e088q",
"080893,q,0,3238g07888382083,,2<,33589z777077777744-2244777eeeeee6ewee66-444466y4777767758833<32203377087870p7888333,323589898709",
"708708033333835g08508dk03S08303232Z870077077e77ee466264676e7eee7yy67p7e4434747eee77weee65875335235538008780r78855233,23579800997",
"e00308q80782q850070d9d0099c330583385rq708r877e0eee6666w5eee5e7eeee66e7775447wee7777eeeey5y383995470p7373377p08875853a383d8809d09",
"a803375848300085d58008799eq05595qS8987080577777e7ee7we5eeeew7e7ee6y6e7757e4777770re7777eu503097y77777pt78877777059933p8d0030979e",
"g08q88858852008a38qne7a8078de83er5d778788d0e7e7eeeee7e7eeee7e77eee7ee53777g777V80y77a777e5785777g6ee7p783077e7r09e9e7t8d00339897",
"8d08r7777778055z80080088880e3M95a809807qz0ep700777077ee9977e77e70eegp77eeB777080e0e777s6e38870egyiw6707q80777058f8997008p0d0e00y",
"7r8775807777305878e0875999p95795897087787d77e00e70777e7ee7e5e77e7e6ei7bee7778G7800777ee795d7000eeee7e73378306e53809570p78g808039",
"08r800007777538077378077590eg988aV087p5M0077770777000077eee5075eeeeeee67e63k7877079080e78000303r777ee073777e7773r95987q88a8080z0",
"q88v008g07777530780a08905799e703p838n8q9800e70770007707ee7e577eeewweeehb778308rz70870d7p5e9080077er80088reeeue7p9e95978dr09e00n0",
"8g85800r0g77755q78000703597Z777s777388a808800088808007e076e6e7eeweeyeew67e7708888077e788955300707778887770p0wf6ee677e57998083r0l",
"88088755500777759978r3089808770ee777880808738778780000ee6eee6707eew6eey66gp7788753077807008an8730080780080reeew6eyu5e7e5777l7000",
"z3d05a0000z0py75050358a978880707ere0e878800080p85q8000eeye6eee777euypeewye7778re6780778008980009800787878Z07e7ee7yeyeeee77777798",
"780807a000rapye79588879e9070807r0peee778083v888078d0qsypuyeee77e7e7ee6eeeee0ea3qe780778c8f97770pz70087x7000g7aw77eeyyyyyre00977e",
"7557a0580Zp0ppy78d00a979878770rqquuyr78857b808v7908rqppuuy07e7e7eeeewyeeyyhyrpz708789qeq889e778ysqzqxaz3007p777e79eypuyuyw9ze7e9",
"0058Z8080gpdapp0088888rd0a88870qpasuye08887088777870ptpfyyy0e7ee7eee76e0yyupbgb0095753098efe5atdaqqqrr0d07q7e77787erpasiuys0997e",
"87q0555000aadsp077d777987d37780agdaupy777a8870q75830pdffiyyy7eee67epe6eeeyigfup0qe7e7700e56e590sffaqq758889777535970pfffapy0e959",
"855a885,50zzgdp0ra8d87708083335dnzhuyy79000003888373pcjfipyeeewew6p774747egjhfp00rg5357q7s63389pMzaaqr007075877qp838ybhGZdyye0e9",
"00840312>,zcGprpr09798785l8032*8Mgagpre8789887858,,,<Ajfpppyeaeeeee4744-==jmfuig70008887858322<5Jzd0pq07787779d23<2<2Djspu0eeee5",
"5855552>*oorrdc00088784r8853>>$ 8qdrpe0787808v732,3&o*yppyye07pewaw75422=2oesuyga8788e75333,>>& 3af00q0078a7782272<$O-pyyyy0e777",
"45075022*&&8bA000e7778088423,>&:<9dqe0088088308832>&$<7eerre7e7ghw57642<***47rye77777777353<>3;:27a088r0r87787747=>::27ey0e0e737",
"88855224=>,30e00zw7774r78882,>>>2800rr7508r7073a3q<3=257e07ee77euww774242<<3970gega770e63732<,>>,37807077a7q76wr4s,<<-66eedee777",
"0k55754422,,,930e77we8387251q2,<,335z878930787373,r<d246e77e7ee7eeew6522<,23770e7777700577533,,2288707008777hyw744=<-66w6e7e7e7k",
"d859507442845570777pp7380385531153580008r53q70d03352246r77777e77epee764442<338077777a3q0887332,pd78808a857jwwrww666e44667e7eee07",
"00505g5734q97877w7e7e7708005538328557007e7780888dd256665777e77e7ep6ee747555,377eea6578d03733k3088387787750w7yw0rw773677077e7G777",
"5k57755383988z7e77e7777850050r8885000070p7737t87q9e6w6777777777e7ydeew76577507777e7p7378887888q73878q77d3777777007778777e77e7787",
"50058055799n703pre7B99005080055g3788838v77r707789e5eew7we7we7e7e7557ewaa777770e77777737087777337888ga776w0w77077000778807700p370",
"5B776673805zr9f8508000n505z8z797777778007078788777d7eeeee76eefweweeee7770b7p707r777777507e77g780r78770w7wr77803008k87888800e7e77",
"77y7y775d08d97e805550580n80dt808z07e7777800087q077777e70e67ueyeeeeae77787777e77777p977dk7re4077035q767yww7787888877777878p0e6e77",
"0yyew77858587w76557050555800g77888008000808808807re7077e7770e7Z79e5079880p7777p7777e7y7r3qeef777377e0yw7778700788Lz77d3d80007778",
"a7y7yew2000777e7775008d787577774700887009c0700088777n0ce7a478777899408788ep7776e7wew7e77p3qry637w777wwyw788788777387e87378eep737",
"80550p7775477e7e77770ag0780077w773707887d70808007880daq0z8d00pp078009g0777e777e77e7eeypu7550y647777r0w077787780787807777737700yd",
"755700e7r7re77e9y67480508507p777773808797070877797000q808788q78798977r07707e7e7ewewfw6epe7t7yy67ge3707y6773807r800707e0037g70777",
"777705zr8r0rwe737g7775080a00707ee07870787a7877777890000088873888970387870reeeee7gwwweeee7770gyeep6q700r777a0888337p70eeeee77e077",
"477750507870pwtq76675825b8z2700rrrqr008887800r7778e000pqq0807878980l08080reypeeyeyeeee7677z8eeeerr7rd77r7577773a0000ryyyw0e7466p",
"p67775057e7app70eee7d758540090trppq0q077080380777300q0pqq07778880977730e0pyyypreeyee6ewe77800yyyy00rr00y0w70ps77ageyyupierpweew6",
"G7y6677ygby0apbp0pe766777ak5500pqqqep09q0808007775dkrcppprr07777977978800ayiuuyr07M7ewee5897eeyiipr0070www7wrw6wweeypuufp0aywewb",
"j7777p77gyppdaap50eyy77777p099radapqqqe0758073g7p3300ddakry0777757797588eZjffuuar7r7ee7777977eyufsgqafysm675wr766wweiifaurayeew6",
"y67777776wfgdanp077we6y767s3055Mcfppn000998887764037qdCdapy0eew7677788339rghfugpr07pBe78857537efhgsprry0r7yw77eeew6wjfggdqyyee6e",
"6677555446jjgat0pe7yuyyw7533332pVcdqrq070e88777643,,3GnZttpy7ewe77q7533<,3bmhffpde077785974542-pnAsayprw77wr77e644626Dhdtpyeeeww",
"y77r3322*#4sppt00yjy7wee6733<:$ Vtpt000800797e764-<:o3aptdqpeee67ef58,v,:OOgamprpF7777507655<>$ agarqa0777w7w67462-*XDdbppyeeeew",
"66773322*$%400ttMp77e7er7551,3>$>d0a0r7837078pe4->>;:>80rr0ee7e7ye77332<:O:30pyrr778777ee62,,>$$C00q0a00770wee64e2-*#*500pyy0eew",
"y67g25327*=555005bg765778783d>>:,308r0e5l080ee76g,,>><3887q00e7ee55983<<>>,,777r0878380V66520,>>28q707n8077pey6642-==-4pe00eewee",
"y6774222-22338505s6775a55523,,,,yV30z9579907eee52,,,<2,q8900e0eeBe7553,<-<<38a8087r858qe67523,,<3878070070eepee6444--4466eeeeeee",
"j7e7b754422355g077p7775570353,3233809ee5e90q07e95q332335000le00077q83833,,<378q77ae77r8777733,<3038808870077y6ee674-766wwge06ee4",
"fy7w76472445309557m6e770705755323035e7ew69yq30707833535389a0a00077979d3374,3570887788807777r543482d78aa8880ee7e6e764466we6ee6eee",
"767wb676e47559577e6y7655L58855553865ee6ew7qq3as988483385388088000899887p8573q88p007q5z77e877534083k88780770eeee6e47e6766eeeewee6",
"6w6y66ywe77505767yyy677k557785p88pee6eee5e5a897985887970808n797878709e9p7757r9587q7780708079n7p3337777773807eeywwee76ee7eeywew06",
"6wyyyyy6g77y57yyy6y6y766Mg5757777dwewe7ewwu579890850885008p89383870877755e6e79778888779800c0eye7y770g7w7eee770yehww67r7e7ey6wwy6",
"yy77776ye705777ey76y767e77777777eeewpeeeeeeytz87e87858877en0787p870V8777ef7777797787z788000q0000eewey6e06e777e70y6w6eee076yeyewy",
"e776ywy675777y67g776y7e677y7e77yewwy675ee7eeef80008777589888888979797777ee6ee7770888k777877800008700000e0e07777eyeyywe64eee6ywew"
};
