/* XPM */
static char *result[] = {
/* columns rows colors chars-per-pixel */
"128 128 74 1 ",
"  c #011500F000CD",
". c #081806F105D8",
"X c #09B308570707",
"o c #0CFE0BAD0A4B",
"O c #10BC0E930C75",
"+ c #130910CD0E88",
"@ c #182513890F58",
"# c #154513C711FB",
"$ c #191316581383",
"% c #1B4818D01619",
"& c #1DA71BBD1955",
"* c #21DD1BBE1626",
"= c #213E1E7F1B60",
"- c #23E221321E04",
"; c #2A9123581CB2",
": c #304A275D1F49",
"> c #318F280B1F64",
", c #264C23E520DE",
"< c #294D265522C8",
"1 c #2C98298925CA",
"2 c #2EB02C002891",
"3 c #2FCB276B1FC7",
"4 c #32B32B3A242E",
"5 c #38B82EA12567",
"6 c #31952E2C2A09",
"7 c #3B2A308526C8",
"8 c #351F31972D3F",
"9 c #3A2733C92D4E",
"0 c #36CF3413307B",
"q c #3A1536443195",
"w c #3D8539A134CC",
"e c #3F253C3C3856",
"r c #412136062BCD",
"t c #446F39212EAA",
"y c #41FA3BE43559",
"u c #48EA3E9334E0",
"i c #42463E4A394D",
"p c #4B7D407B3613",
"a c #45B9418E3C52",
"s c #4A0A440E3D62",
"d c #50CD435A370D",
"f c #510846873C57",
"g c #514D483D3F2F",
"h c #473B44203FE5",
"j c #4ACA467B4116",
"k c #4DEA497E43EB",
"l c #4F204C2047EE",
"z c #501447B73FE6",
"x c #52114C09450B",
"c c #590A4EC144C2",
"v c #52F94E8948DF",
"b c #56F44FDF476F",
"n c #5A725069468F",
"m c #564B516E4B4C",
"M c #5A51544D4D1A",
"N c #5F6958034F1E",
"B c #5B6456C450ED",
"V c #5E28590E52AA",
"C c #6162577D4E1C",
"Z c #6161588C4F50",
"A c #62DD5C555480",
"S c #689C5F5C5558",
"D c #647B5F4958B6",
"F c #67AD5FFA5704",
"G c #691E60C056B8",
"H c #66AE611559FE",
"J c #6AC2642A5C1F",
"K c #6ED568305F90",
"L c #6EE3691F61CC",
"P c #72FF6CAC64A5",
"I c #743B6F4968BF",
"U c #76F9704767EA",
"Y c #7B5A743A6B40",
"T c #839A7C4F72E1",
/* pixels */
"$&,,&,,&&&-%&####+#$$+==& =-%$$#%&$%=,  #$$oo#oo#+&%&-&##%$,2<  128212,&=&-&-&&#&,<20,222 &2=%&&%%$%o$o$+  %-&%###$&#%o+#+#$&1  ",
"%122222<1<,&,%%%&$#&&$==& -,--&=&,$&,1  #=%$#o##&+&,-&##%=$288  20i61-212<1,22,-,<000,e20.&81=1-%=--#%#-#  &-1&$&&&&$,##=&-$-0  ",
"&6q60000826-1&-&,=&&$$&&, -<<,,1,,--12  $1&#o#+o&#,<2,%#%&$6e8  0aw08<122100e02<18eee2ee2 -06-,<,21,%%#&$  <-1--<=,,=2$%<-1,,y  ",
"&0e20ww0018,2&-,=,&###&&- &<,,,1<,1182  $&%###o+&#&2<&+&-1%<e1  8xy0q0,822000e60eeehe2he2 -1i<=1222=-&-&$  ,-1=,2&2&1<&&6&--1i  ",
"&yw<02e2q08,,=1&%<=$$$$&= =-,-,<11<888  $-$%+#++-#&=,-#%=1-=04  <xyyw6,822heee10aaeaw1ei0 96y,,8=,6,=,--=  ,-8<<121<18%&-1<<,w  ",
"&aw1w2a0w8<,<,6-&,<$&$&$< -:-<,,168289  %=$&+++O&#,&<&%&16,=96  6s908-8100h0he0hiiah8,eh6 660681&60,----&  -;8<6221&18&==,6,29  ",
"-k06w8ie901-1,66,&1%&#=#= &-<--,<880w9  &=%-#+Oo%#-&<&&&<<-+1y  <y-96-1e2ee20e0ehhih02<hw 0<90y<&02<1-=,;  &1-<<88118=-1,6<10s  ",
"=ss0a202we1<<-81,&2%#&&#& &-1-,<1689y9  &,-&+#$#&#2&,&&&*=-+69  66-w9-<wehe8ee0ehejiw22ai w6600<,206e1=,-  &2-1<68218--9<80-0u  ",
"&jjwa6q0wi621--8--1=<-;-&$--1-6-6988a6  ,&=$$#$&-=<=<------&65  981w86<allh0h62ekeBei81lt i66001120q8<&,-  =a<62180<9--688q8ip  ",
"-jxhkwa0ki816,,0<<6:=-1-%<1<-;,-282wa7  =%&&##-&&==1<;---&=<w1  1mywy61qhvehk020ljvii00m0 i9wy6602e09----  -6y8618988-,-s6i0sw  ",
"-jAmva8aka8<86648221=<24-;,668869q8qww  ==%=&$=,-<,111<-<==6w5  =tikiw80Bvaah006hBzih00Vy i6iis0qeeye--<=  -,y8-<w6<816-w0aezs  ",
"=sDDDvqammi86661408a2q99$#6889w8<9wwgw  &&%,&$;-<-2088;8-<-j2-. &-1xjiwyBvlBm0kevmlvv0wDp ixx0jswajss4<6-  -,yy18y16w8<<waksmg% ",
"&9sNAMBVVAxsyws8eyaw8qpr- t9sawa69mgy8  O=,,,--<w8sy9a89a0-y:1X =&1mAAmmLKAzBBBkZLABvivnt kmsiBslsbmb5--+  $%wauez9asw46asAnu7- ",
"O$*:4:;5t4;3*&*#$;-;$#%$; 4gkppy6ys9*-  O#2<-&--qe7rr5*---X@%-X &#=>;37r373;,jKVDcyuc45== 34=6yusgu:t&#+OX.-o#54>434ty6s465:-+# ",
"o.... ....OO$#OOo.   .  . +$;$@%@@;$$$oo#$+++o#o$+ooX.    .X.X+ .OX. . ..OO#$;;;3;*%#O##O#oXoo##$%@o+++oX#+o++OXXXooO++*&@$O&$.X",
"#+ooO+#%##$+&   #++OOOooOO......  .X  #$oO.o. X....XXO.XoOO#$$$ oO$+#O##&$&& &=$O#$%,&&&%,=&#OooooXo+##  %###o.XoX.XooO+#  XOO+o",
"=$O#o===,-,%=  .-<=##&o#&&+$&$##.O#%  $=$&#%X##+##+###oOo$$%&,= #$&=%%%,,22< 0q022220<,<,1<-%#%&&%+#&$-  %=&%%+#@#O+$&=<,  $#&$$",
",=#$#<1,<116-   -1--&=#-<&&--&#&++$,  &<&&%&+#-&-&&$$%+##&-=-1& $#,=,,2,8222 wliw062e226622-&$-,&,%--&< o,,-&&#&%&$&==,08  %%%&%",
",<#&%1112288-   =8<11==-12&,2&&,$$&4  ,0&&-,$#2-,&&&&=###-=&16% #$,1,,210801 ekhleeh00,2066<%&,-,<&,-1; #-1,&-#-,,&=-<1q6  =&&,%",
",&%&%<82868w=   #s21611=12&16==2$&-8  -0<,1,&&<1<,<&$&%#$&<--1% #&<<2222y,6< jkvMhel0e22eq6-&,2-1,<,-8& %-11-,%&<<<,<6qs-  &,,-&",
",=$,&621<62a1   +q98<;2<2q-201,2$-&0  <1==-6&+116=1=,-%%#-,116% #-,-,6289,1& ajkllelh020wj86,1<&<&,1&8$ %-21-1&-<,1611qs%  $1<--",
"1&&&=12,188a=   %s8<=12-16<68026%,21  %6,,<<&#<<8,1<<1&%#=1119% #-8=,,<01-1$ 6vkhmehe222iiy6=<1&1,28,y$ ,<<2<1-&w,68=6sM6  $<<,1",
"--=&=<w<288y=   #e84&<<-1868001-&<04  <08<26&&-&8111<1%%+&,168= #-0<1--62<6# <miehhhe22,ww906<6&1&,1-y# <8-1280101w6<8el6  #,0<,",
"=,<&%1p181w01   -lw41<8<18a8qe8-&,86  <62128--==116--<-&##,,80; +,9<61-888;o 1mshllhe21,0iw08,6<2%<-&w+ -<-280q2q6w6-6aB9  +22,6",
"==<==0www0wa-   -ba682w-w6i=6a8<=-qi  i<8888&<<<662%----+#<619$ #=q9<81<q81# wMyaeahq<<<0iw1661%1-1-<w@ 69=6wie8iay0660K9  =08<w",
"12<1-0eww2:w8   -g909ww6w0e10ai1,=es  k6eqa8=68<6w6-<<;1#$<816& #-w02081a981 ssiwaheq;=1jiw<66<*2<8,8e; 696wweyeywjwi0iK9  #68e0",
"0<61<6ihp81b% . -wiiwaw6ias0qagw<,is  i6aawa<1q08eq&<888#=18881 +-ey991<a889 iskwajjy<-1iii8w61=2<y<8x8 6s0ykyawaiaaajmD6  &i8k0",
"ew011eiaMa8M-.. 3-gsgag6agks2avi1,sc  kwqmsa16spaaj8190a&66y9y6 o<8ssa8-8w89 5wMvmBjj6<1jkzyiy6<q2w9qM5 6ssskkzekavmvvASu  =0wAa",
"Agaq8FswMks7-.. $=69baNwbMMbslVs8qic  99qLAM88kssps8spwq-9wxyyy +26aMyw2kp;y #0xDBvZAy60Amvxxjjza4wya9; &$rymMAssxAASANi8  $&iux",
"4:-+&9*-9:+%%oo %;*$;;7;79gFMHYxw96s  @&-t7ppqsANKfw%%+$o@;;%$$ o%*6t7r9-&+&o-2;swZZut1=rtrr757rqynyq$-.-O*&7ud9<yrdur659  &$=*-",
".......  ..X+OO ++oX..XX+$*>5;75&*+6Xo-$++o$%@;**;+++oX...   .o..oooOooo+@--$,$***=3;$++$@OOXXO#@+@**%*X##+o$**@O$+@$$*19  ,,#o.",
"O%=%##++#o+O++O .++OO.Oooo...XXoo#&$%,#$$ +o. ...XO+$@  #O+..Xooo+#o++o#+#%-,%  $+OoXX.oOXOOo+XX......Xoo X...oOoOO$$#O&<  202=+",
"$12,1==&&####&#  $#$$O&%%&%&--,,-,22,&&&,.%######%=&6%  &##+Oo$+$$&%&%=&%&<68=  ,2-&&###$&%%%%##@@+#OOO+# O#OO&-&&-,1,-20  0ei6&",
"=<60<1<=-&&#&=%  =%&&%&=%-<<220622202,,,,.-&&&-%%2220,  -#$#%#$#%%&-&,,<,,68i6  181-=&+&&=,-&-#&&-&&%###$ $$$#-1-,<,22,2e  2eee-",
",22w0<212-&&&,%  ,1&&%=<<212200<0000,,-12 -1--&,6166q6  &&%%%$&+=&%--2<<,,16i1  1w2--&#-&-,,=---,-<-<#$&$ %&,&,,&<26q6,0h oehhq,",
",12ww2w,82%&&=% X-<--,1222e<00a20e0e1,,02 &1,,,<e28101  ,=%$%&&#$$#,,2<,2,1809  <q6&=,&1=,%<<2--212&,#&=# &%--6,2100061aj #ehli<",
"<00he00606--,-% o-2<,-1102e2e0h0eeeh22-6<.,<12,,000,a6  22&$%&;##&%,<1-12,,0ww  6q<1<=&-#,#--1&<612-<$=-$ &&&20<62020,,wj +jikh,",
"02eha0e2801-,,- #-8<1<-<e0w1qeh0eee062<,2.,020,28iw,wy  6,=&<&<&%,-<<,<20118s9  2q<-1=&<$-$,<--<8181<&&-$ ,,,020e6e0w1,0j #kehj<",
"260lh0e00a621-- +,886<-<q062wlhjhee002226.1002,06ew<ar  i6==<&1-&1-211128120ww  08821&&<&,&=2&--106w,%&=% ,2002e02e0w,2hz +jiis<",
"12eehai20ayw-1& #-w<9112h262hhheheh6e22,0 1002121ij8is  k6--<&<-<6666186q2wqys  ww6:=$&2$-,12&&16eqw1&&-% -260202eq00,1hs +6mv0=",
",0hhvki0aij6<9- O-a-q6-198100akkxyv662<<w 10q2,1-eieis  96-61-1666662686qqwwb9  p04-;%%2&28821-1q8q06=-,& =2we6hwew6i81vc .,kjy-",
"&0hljvh0avs06a; X-s<w6&2ww18<8wvw6i16w<<0 ,08,,21ejjms  8w1q-89<w106q880swqqs:  8aw1=&--129qy811e0a01-=2= <82a0khkwwiw1ic  ,kj8=",
"-0hMmMxkjBka0w<  8yiy9-8yw<w68ijjqj6e61,w ,00,,22hsimf  1se9-19-h,ww0qqawesaa-  0ap9=,&=,00qea0qew8a1=,8, 1w0w2veBjhkj6vx  ,mz6<",
"22hBBMvvVVlBww6  0wamywwiu1w80jkviv0k0660 2ww120qlmmZy  -ylu-6s6l8aa0waa9eksw-  aysa<<=,eisaayyasyaa6<<q1 6awheAhmjaDBwAs  6Vbw6",
"00BLPPDAKKxcy4-  saxMyysjk8sxsxmDMMxkiw69 <il60ikvmnt-  Oypa8aksM8sgsxbM9ayn51  4Fww08<8xmksmxkhNbMMp80e6 6hkejBVvLDDJkIy  <xAy8",
",=7r74trrt--@#8  66ygnxfpkbaZApr7ycf91=#&.%-0iwwP53;-&..-*$5-yZspJgt1tr7-<%5$8. +::tab8esp737t98577r-=;-% &<8hxmDlt9ru19i+ow*53*",
"..........O###*OX-@**%**@*-@;>$$@$**OXooX+#$#$**;$$;;-@#OooOo$&&$-$%++@O@@@o%#oX-:+**-+-**OOoOXXoO++OO@&,#-%&&**;;%$$%%*9&%=#OX.",
"o##&%=&&=-,,  =%*oooo.XXoX.X.X   XXXO#$%$&,=O$##++%  --&oO#oOoo...X.XO+X+  $%$&#oooo..XXoooo#OOoO++O  &&&%%&%#$&#  &--&&<62$O#oo",
"#$%<<2<%,282  <--%&,&$%&&$#%+$  O#%%%$,,-<21%<,2,,2  28,+$-&&&&$++###&&$&  ---=&&-&&$$#=--#&=&=&%&,= O21,-,<1,<0< o<6618eee,#%##",
"&%&882,&,020  661=,<1&1,,-$,#<  O;,1,-6<2060,0<0000  2e1%#,-,2-#&%&-&1-==  -2=-<1,,1=%&121--2,2,-,q2 $<<620e808h2 %8ee0qeee2-,%%",
"1-&608-20w64  8w8-11<2--,,-1,0. o,622=22<2q0<e2eeh0  ,iq&&2801,$-$&1&=---  &0-,,1618,--0ee1,0,222,0wXO0q0heqqewh< $0kahjeeee,2,-",
"<-&600<2wwa6  006=4211%%16&2,w, X=001262,8w02e2eheh  ,hw-,,w,1<%-&&6----<  -w<,21<1<,&-0ee22q200-1h2# 6kehqhehil2 X0mlhlleee,,,6",
",--2e8,20ew6  y9<,8-,8&&<8<81iw  -qw212e000e102eayi  <ki-2<2-<6%1&&0,1<--  ,9-18116<-,&20e00000w,0h1& 6kee0heilh2  8mallhhee,,,2",
",,,02e2&1ii6  00822,,w&,-129<wu  ,ey<,1eqq2k,60ha0s  ,ky28,0116,<$&<6<<,-  &8<<2162<,,%20ehe022qeee-, 6leeeeekkq6  0vklllhle<,,,",
"<-,002,<0say  y90921,81,1,1e2y9  <lw0200262h,20ajwz  <Va<0&w0w8=1&&186181  &q1822888,<%20eeq0w0h0ij1# 2lehlehkkj0  imvklmhel,,,,",
",--0w22<8es9  sis9,82w88w,188ws  2lk6,0w00qh22klkij  2ma,w2ww96-2$&&88q8-  =8:88660,=2%60aeaw0wihlk6. wllelekjvh9 Xamvlkhl0h21,1",
"8-2091,2wiwy  j8a8<8w18w9<8w0xs  1my20aaihwk66iikvj  <Hw1i6j9a8<,%1&66w8<  -1&*086w6=<%2wiiiqiiiqhvy #imxjvkj6vk8 #jvvvvllwh2226",
"<-0091<8iiqu. i9aewaa800a8qqikg  2xx0aahelhB86hqeax  =Dw18wi089$-&,<1<91;  =8&&806a<=6&00eakwklawhDy %jvkvijjekl9 #lBDMBmleew0we",
"6=0ew10iajvy# ksjs8ix8qiahkswkn  1vxjmjvlBhli0xw0jx  $m460ijy8a-<&-;18w6-  10=-80ys6-0,yqjljwhkvhkLj  iixmiimekD0 #vMBBDllmhw88e",
"w-eky,ismvvi< szMkssVqavksBmMmn  <vvxmmAvvJaaekjimc  Omwqqikk8z12-<-a6wa<  ,y<,yjjxw<6,0wkBilhBBvvLk# sxmmisljBDw ovBBBBLBVMk80e",
"62BvxsvMBxuu8 6AVFgaVVmVmmAkVgy  -sPAmSGxmAzmxmJmHt .oiyekmDAin981e<N8wz1  1s6wxSzPb661jhvBvkBTmDJpt= wjNJmimAAn5 ovSHKIuuALBuxi",
"--747*3<:4$$<.0441;;rpp7yytst-;..-;4755r333;;8uCc9<.o#<2<wryfyg18;--713;*  %;&;4;45r<6,txug77673;7*&4 %*5rfuun94$X#65t7u=*=t8==4",
".oX.. ....Xooo&;;*&$+*%+@$@**;6+o<&+O+OOooOo+$*;=*=+%#%+$$&***$O+++XoXXoXX.ooXXOOO@%OOO$*$Oo......XX.o##O@$@$;*<<#o;=*$*$*$#@OXo",
"XO##O++$#%+&&=&#$  X&%%%@$@ooX+&&%#X#o.Xoooo .o.XX+$=2,,&=&*  =&$#$ooo#o#$o$#+O+%  o+OOOO##O$&#%#%&#$OOOoOX. Oo#$=&OO#OO<  -=#OO",
"O#&&&$%&&-%,,2,21  $821-,<,&&#,,,,,%&######$ +$#$O%&,222101<  4<---&#%$#&=&-#=&=<  #$#%&---$=,,,%,&&&%##$&## <&2&,,,,,%$w  61<-&",
"+%-2,&,221---2829  %ew21,,<,1&12212<,,%##$%% %&$&#&%12086086  06<22---=<--,1-,1=6  $<%,8<11$&8,<,,&,,##%$=%% 1,0,61220&-a  8082=",
"#&,,,,&6<8,,-6606  %ea08<1862882026022$$$$%% &-&&$,&1,880w8y  68,26,1--2<<1112226  %&%&202,=&8,11-&=&#$&&%$< 60i222080-,0  0w06<",
"$&228,2811---e2iy  O8aa21122<162000822&%=%%& =%-=&<%2,296w1a  wy288<2-221111<1800$ +&%,2110112816,,,=$%&%%%- 220<00,6e,28  0a981",
"#-2,626622---02v8  o1ss211018188260022=%,%=& =%,=-2&2%101w89  89<6882-<<688<121q8< .%&<81,,w28q81w1<1#$$-%&6 6a8228,2i161  yisw1",
"%222,<<618,=<,iv9  o8la60106911020800,,%,&&% -<2--2<2%2061iy  8w8w<8<62820112,280;  %2180,,080q8200<1&&$$=-6 2ay60e60w<28  ws9w4",
"$1&82,-1201--=wjy  #8Mq801210-89,862081,,&-= -28<0228-<886yw  4a8w681888=10-6,88e1  &68820<28e88060-w&$#%-=w -pw0w8jes<e-  96w9<",
"%,%26,22,60,,<iws  $qk821<w1,18w18,00e21,--& &62ee20y191680t  1sq989qa8<-2q208waj4  &20i20000q0w822<q&$#%,,9 1iw0wwwqa<6<  9wk91",
"%2-8<81-<6w66<iwN  $av0w0w0822iq2w22w82:==,& %,80wq88q8966ww  6xw889qq6118q<0qw8k6  =<iwe1www60w061q6%#&&,-w 8x0wkww0a,64  isuw6",
"%2<q<8-<69i01<6wC  %imwwiyiwawiyweqe89<&=<-, &-2h09w-8s9889u  <xw8a1qq:618y20aawis  =1vaj8sw91eqw08a5&$==<-s 8xywaieia,6<  wxiu1",
"&808<881wiwy6,6sx  oaAiamjasweaawea9-q2&---8 =2&h<1e<eq80e0s  6mawi0iqw90qseiqasss  =6Mylaaj88yaeaee8#%=<;29 8sq8asaay;<w  yxy06",
"&1eq1wy8jyiy622vp   iDivHvkkxakkssee<we98884 -8-m<8q8sqawus5  <8NssqaaasgqeaaebvN9  =6Dimlaxjkaissak8%--1-ay yMweixsks<69  9Csia",
"-8ae8aZssAZxbw0Be.o 6SmMDHMBmvNmapZg9xaw99<8 <;&M8sp8Vwbks7=  $1s7aNMNNgaigMGMFg91  +<gmMAlAmPzjVMGNs-<-1-w9 wMxmsAzMw1<y  =9zMx",
"-8t5>*>;4;5=4==-k+$o-<yyutfznmyuwyfp1t:;$$&@ $#:98994t954=+;Xo&*-@$5-59>4:5p975;#oX.6**-9t57r9555r;;>*%=-%>$ ::;19t3t3-&9..=3*1f",
"++O..    . .XXO$=--&&=*;*$@;;;&=++-@oo...oXoo&$+++@+o+XoXXo#&$oOo.....oo.oOOoooO$%$##+o@$#+o.         ...X+$.&%o%*O+@+$#=oo**@$*",
"Oo.oXoO++##$%-,1122-2$** o$+Xo...oXXo+##%&  O%o++oOooO+o.X#$,=  .+####%+OOo.OOO+%&,==  O&%$%%$##@oO+OO.XOXoO.o@O o+.oooOO$$$  oo",
"*#+%##$#&=&&-12000010<01 ,,,,&%+@%#%#&&---  #-$&=%&&%&%#o#%,8-  .%=&<<1&&&##&%#&&,022. &2,&2,,%&&+#&#$o+$$##+#-% &=#%&&&%%,&  &&",
"<&-===-=-,,,<0w0q0e0eeiq w108<1$&<&<,==10<  %0&1<=,&,,,&#$,296  o<&2008<&,-&&&1,222ee. ,w120261,&#--&&#&&&=&&-<* -1,=&-&-&8<  2-",
"1,,1-6%#,,--%2028q880ea8 0ww6,<&-2-2-<=62<  %w,12,<&&22-$&,20y  #2,<he06<<<&,,2002e0i  ,aw6812,=&&<,=-#,=-=#=,1- 11<---=,,86  1=",
"8-2111--,11,&800qqq820i- 0ew0,2-=0181,$-a6  $8-,=22&216&$%,ews  #028jee6122,,2eee0eei  ,hq88,12<<-6,&,#,,<-%-1-1 <9211<<120w  6<",
"8-1<12<1&,2,-8q2q06806p& 8ks018,1q0611&&61  %01,*<68<=8<%&1a20  #000hhhe010,1,0hiejii  <kw2w-616,21-=-&,<1<,<8-8 881-1<1188r  6-",
"886q16-==12-&8w2q821aqq; 2maw62,1w0<6,,,a<  %11<,126,<0,%<0h8s  #6hmhmlle6q122eeaieli  1ja2029<128,1,,=18<1=-8-8 151-6<166j<  0<",
"qq2120<=1,021222ww81a2a6 6jww1<-6w0<w6<-u1  &821,0861804&-ew0s  o2lBlBlje0e2e6ahhajms  6ma<062,<<2,6-<1,616--818 686-81666k9  96",
"a84888<<2120,11,98q8s8s8 <iyaw;&1i01e<6qj4  &y&861i160y<&&h0aj  o0VBBllBh0e0eqelhkxmi  qyy6q211,66181161628,1849 60w<12668ws  wy",
"aw8wew;-81q6<q1-8w9qway8 8kksw-&-h0wjww8aw  -w6806w616w<--0jvs .o2VBMkammew1jiljklkvz  6sy<i69<8<8<8286286868919 8pw1<8068jw  6z",
"pe099q--20s11q866qq89wa: 8mzyw-&&weqkwj6k9  ,i81w1w9<6s-,,2BBj .o2lVavmBl00<mkjlvvvis  1ix,w01-,009q888666w8waw1 8a9826a08au  ws",
"waeeeq28weaw<e2w0e988ws9 8mqwu--,iiakhxwMp  ,j06wi6j96j&,66lPs Xo,BVkmABVe01kjvvmBBig  2ym1wsy,00qqe96y208ywess2 wyw8w8ii0kp  xx",
"bbssjs9awaqa6qeays066sqw 8x8ia,-0ixjmhHaLw  1wNsijwMiix,20wBJz.Xo&VVkBHDVhw0vvBvMDBms  6km0aki8wweeay8awyaaasly8 9sy89sixwxu  wG",
"bbMgbbspanMMxNeMyzsy0Mg9 wzwzz9,eNmHmmUgy2. ,0mAmAvBBmm60ijAjw.+o1aAAJBIHmhjvjBDHLSz9  <9Jxxxx8jkbsNawww9kxxmAn9 9sxsssgzsc<  -7",
"-7p-7----;--%**;:t586u49 y98yu4-1777*:7*$=o.$%:5777r:35%&453-0o$&21,y9ypADiuD6zt644*4  $-57ttf;79157:9+;<7yp59;; =*4:57ts43<  1=",
"O$$X. . .....X..XoOO+*&; :***@OoXoXXo.. O+$+oOXOXX... .... .o##-&&-%$@**<3*%3#*$$+OOO.X#$@+$@+OO+XooO$++++$$++O#oOOooOOo$@%<XX9;",
" X$O+##@++#o++ +++X...XXo......oO+$$&o  #-%%%+$##++$$%%#=&$&&,22< #-$##+OOOoXo@*# O=%#$#oooX.oo.oOOO%+  +=@#++O+#+OXoX..XXXX$$oo",
" -,&&&&--&=%#% &%%$o#O#+#+O##O##%&&,1#  =<&&,%%&-%--,22,2,,,222e, ,0-,1,,-,--$,2- &,=+&&&%+&o$##-$&&,=  &61&,-$&&&%$##oo$###&==$",
" 286=8,1,-1=%$ ==,,&$&+#&&%&&O$#-1,28%  ,--,&&#$==626e00200000qe2 <0<,2668226&06& ,==&,,&=#,&==#*-&16<  -a812,121,,&-&O#==%&-0=&",
" 2w0,8811-,--# -11,&&%&&=&#-&#==1,1q8#  1<,-,&##-=02e6e22w0012qa0 8e0200ee0q02a<+ 2---62==#1&--%--<281  -a-&,1<28=,,,%+#=-&,12<=",
" 8aw80w28-21&$ 82,-&-&--=-&1-&<2<112y$  68--,&$%&&2eh6h00e00,<0w6 8he6ewh00e0wii  0<-=28--=1-,=<*121q2  <w1-12028-,,<&$#-11110-,",
" 2js20q8,,11<= 111&;<%1%#-<<,-22111-s-  ,8-==<%-$&0q0eheeiww100w0 6sw0eeeeeeikqa# 66=,6e06<6-2-<&61695  <qq-11808<,0,-%%1<<100,1",
" ,aj0iw021668< 61611<%;$+=<-220216<;w8  2y1&-==$$=2e6elewaew12wjw 6jheeeheeeaw2m1 =6=,8w06<0<2%<-281w1  -<9-688010002,-&16<80e68",
" =ekwea0w602w6 886----=&%&-1<12086<06y  8i1=,-6&=-2010eheheww0whw eaekeweeeqi6ek4 o6<,eeq11681-1-666w<  1881881012w0q2,<88288e6<",
" -sjsaaawiwws3 y32-<-#&&#--=<1w<<1,w8p  11==&<6,-11e1ehewhhhaeeaz ijhheehehew1wz,  0<<j81,1282288298s-  1902w91e82weaq2<8q808ew-",
" <avvkaaaihe86 y:1214$--%<21<2q,1,,0ay  19-&&&<1061k00x9qiqiekehs 0myj0qjheii2ij<  a<6a41,281;=29,20s4  8ww1i86iiwiwas2280qaeel<",
" 2kvjksjklks9y 998222-$2=<2<11q1881wsp  <0,=,&-<121eqae80a8yaxaju wsxxqwxy0ijqsx<  w8iy88<6618196<<as6  1s8wkqakaahajsy8q8waahl:",
" jVMjjjxvkvj0s ye9588-#8-1ewq1eqyq2qag  2w,,--,1020eske0ewqahkiM0 axkmjam0iaMhwm9  9ass08003&<8w0969z8  6miwvyiamhmewmaibwwmsjG2",
" kJBvixmxBNkaz wgs888&-81q0ew8aaw0jul9  4i1,112;e0h0mkswhheaBmmAs iHkMkvv8akkavj9  68kxayys<12s0a08wNs  &skjvakkBmmliBe0helMhjA2",
" jTJJZjKPAaz9g 6sgywy-8gwsbbksbFzmxy61  $4116-1<hhxwMAMvkVakPHHku ryjmLkZ0NABsKj9  $;yZxxwMy2ux8ksaks:  %69SgHzsDmHmaJaaVMVFlNN2",
" 8r4>**;:3;3*; &-;;;;-19w9pdgart755&;&X.-+$##+O+$-;->>;:3r71rrt7- =&<37sfmUNgsu94 .-$%;;47uymHMsxsxt;- .#$*=&54-8395:pwysYPTLNw:",
"X&*$OO..XXoo#XX$+XXX.X+%*O**-%$ooXo+Oo#o#oO&XoooX.   . ..XXXO+@%*#=**+%***>:*%**&ooO... XO@@*;*;;-;*+;oO#&$$@#OX..XoO@@&;5>7r;1-",
"$#O#-;  <=$$$#$o+Ooo+o@+  OXXXXXoO$##&&%%$$&.  =%$##$$%oo%$#$+#oo%=  =$OOX..XOXoO%&&#+XoOoooXX  XX.oo+%&$&- $<,=%%#*%%$#Ooooooo@",
"$,,-<-  28=&=&&&%&##&&=-  -&-#%+%&-&-==%=,=0O  ,<,<#-,,%%1,-,-<#$,<  2<,-$+#--&&=&=&&%#+&#$-=&O ,#&%&-,<<1- ,886--,,,,,2<222<<-,",
"&0,,01  86--1,,-=*===<22  ,21&%#%=211-1<<<=i$  82181182&%2621<6#%28  2002,%$1<--==<,,%#$<&-,,1+ ,&,,&,,6886 280111280000000e0011",
"-212w4  1q6,,,,<,,-<<8a5  698&&$=,812<1<=<2e=  6w0e8180-%1e8000$=66  680i<-&202<,2<<2&%%0=,11,X 2=122,18206 00w6-20ww6w2200ee022",
"&,66i0  6q8,-1<<--&-6899  ,e8&=$&,2821<2-1<ko  =weeq<86-&1w0wqw&=88  20we0&&,e666861,=%%2611<6 O0281,&100v8 wy96,6ew0qw82eee2e22",
"-,1,6y  8q0-<211,-&-2q9w  <a8--&&,6121-1-160+  ,ewee0e0,,00qqqe=<2u  00we0--1h008,061,$,20626, <a,81<&1a8m4 6yw62,8wqq8w0ee02e22",
"-<2<8y  1ew-%<<;16-<12aa  ,s88,-&11881,,=21qo  8kwe000612qeeiqw,<1s  08we6--2kae0,622,&,002201 -w2w86&88wm8 6xw860<6weqqee022h,-",
"--2-ww  -s8--01&,1=<22y7  8pww<-&2,80<,6&11a&  -jikwq0q222ehjiw,22i  0wie0--6whhiw02e--&02<008 &0a001=48wMt 6xyw00228w820ee060,&",
"&,1-q9  -w4--66:0<<208ew  k8ae9,=<qw91-8<w-v+  &avihhqhqe0hhkj6,2<y  8sih6,,1eh00ai2i,-&0w2hw2 &q28e6=86wm< 9z10w822ee922hee2,,&",
"&=01lw  <8<6-88-118090A5  swyw9=&,wi81,8,w8V-  yAsyaiiaie0llvh6<,2s  6vsl0<<2iheeqhe08-&0iej0y  91<qw2980xs =a9w08q8yw082wyy<-,-",
"=,22k0  88:,6q8888w8qis8  suk0u&&,wa086q2jqMu  1ixwwaiiai0lmBke1,yz  8mvka<,8ikkavjawi<-wiivasX 888ww8a98yt o9w8e8ajk08820a8,<--",
"-200jy  g<-18a82698qaim5  ykw6w==2ayy62wqjjAy  -6mw9lhkhewBBMve110n  wZjji<2,elkqlajwi<,j0evjA$ 0yeae80eqs9  yy8yey9kyw902a02-,-",
",10qxu  aay9ws8q28waskx3  wAswa-,2aaai8ykxVu;  &9AwwvmeMhlVDLMh228n  wDbiv,21klmkAxmjv68m8jvxN& aw0ysysasZ9  869eaaakak9esel8,<,",
"860wK<  8Gyasxap8xkMmn861 ;9ysZ-60kAgsmxMzn-<  %<sABABxxsvHIUAz86ig  0zDbS602BADkImAkS08jBHmxg+ yxayMybyb9;  41ebMpjGxMskbsMq<26",
"<&3*>- .-*4t5ssy7>5;:**1= &1*9x69xMAcx9*93;6&..***;*;4;;35ru75-%&=6 o-*r5u<1,0biicuu54*&;;;4:3 &54154;;%;@$.-@+-;457r7sMAzgc7--;",
"+XXX.oOoOO@$@*%@X. . ..XO #;@@>**>>;*;%@+@++=X.##..  ...XOOO@$#O$$*#O$OOOOOO$*3*;;##o.XooX+@$$.-%o+oX.. X.XoXX. ...o+@*;;*%;X%@+",
"O#$$$%$&##oo....oooX++#%# $+oX......X+  XOXXoooOOO#+#$$##%O&=#  ,=,-==%$+O++#XXoX#$-,$-=- &=@o+OoooOX+Xoo  ###OOOoOOoX ....Xo#  "
};
