/* XPM */
static char *result[] = {
/* columns rows colors chars-per-pixel */
"128 128 27 1 ",
"  c #452517",
". c #472817",
"X c #452719",
"o c #492718",
"O c #46291A",
"+ c #4D2C1B",
"@ c #512F1C",
"# c #4F301E",
"$ c #55321D",
"% c #5B351E",
"& c #5F381F",
"* c #60371F",
"= c #61381F",
"- c #4F2F20",
"; c #553320",
": c #5B3621",
"> c #5E3821",
", c #603720",
"< c #633B22",
"1 c #693F24",
"2 c #674026",
"3 c #6C4226",
"4 c #6E4428",
"5 c #714526",
"6 c #744827",
"7 c #724628",
"8 c #754829",
/* pixels */
"72=&<&*>%&<2&$,1>%<133&&@,<<23474441=&:+:$%%o@@5;,<1>:>;111<24-<;4<-1;>:,,,,<,1:&<237742<=&%$:<@@<%;>:$<11777741<%::>>>>:::2%%24",
"73<,<%><%%12%&<1,><333&$,&*214244423=&>#<<$>o@@1+>>:><1:11;<2>->>1>;>;;;,,,,,<<%&1427444<<<%:>1-;,@+$:$<14777452<,;%<%4;;;>>$:27",
"771*<*%:%,<3@>1<&%<351&&$%&<143727<1%%%;>%$&@@@,;:1<:1<>1><>2>-;;1<-<;;-,,,:,,,*&13473741*&%:,>>@,%:>&&&14457312>,>:2>1<#;;4%=<7",
"62<%1&$:&=<3%*,,:&<111*@%%%<27274711%%::$%$%o+:5;>1::11:2>2>>2-;-1>-,;>>,,<,%*1*&<4333771<<@-$:>,,%$:*@<44756554<<$+<:2<;;%2#&28",
"751%=*&,%=13$:>1<%<133%$%&<<1414371<:>1:>%%=+@:1-><>:>1;1>>;>>-4->>>;<;>&**%$%<&>147344421*%%;::,:@>::%<44466534=<%>4$<;::;1$&<7",
"511$<*:>%<=1&%,<,%<111&$$%=<144424<<&:2::%%<+@$5;><41><;22<;2>O1>>4->>>;,**%><=%%133447211&%$<:$%@:;>:@<44266733=<%>>;>;;;-<$%28",
"75<%,%>%&=1<%%,,<$<111*%$%&<4424342&$%<;%$=%+@@7;<1>:><:2>;2>>-1>><>2;;;<&%%%><*=134437431=%>%:>@%>:<>%<17166534<3&$:;:;>;:<$&28",
"741%=%%;@1<1%*@><%<131*@$%::1414242%<:1::<&%@=%1;214>1<->>>;2>->;-1;>>>>=%<%&%*&=273447121<%%;:<%$$>:,$<45566374==&@>;::;;:2&<27",
"641:<*%:%1,1&*<<1&=<2<=@+=$=3442271&%>1;>1<+-;>21>>>;14;1>>>2;-4;><;@$&$<%=$%&<&<<44435311&:;:;>@%:,>>%<37376531=>:#>$>>>->2->17",
"671$**@%@<<1,,<<<==<1=&+$%$=<72314<><>2><1<@->>2>2;4;44-4>>;21->;>>;$>>&===$+=<%><43634431&&:#::,@:<,<><37485772&::$#$;>;--<;127",
"651%,,%@%=<1%,<>1%<111%$+$%=2372241&&&1;:&<--;>2<>:4;41;1;1>>>-1;;>-:>:%<=<%@,<&&<74773311>&%+>2$:,1<:<<37776773&=:%::>><+;<:<<8",
"671%<%%>$1=1>>11,&<<<&&%$$%%173241<&<&<><&<;;<<41<-2>>4;<-2>4--1-;;;:>%%<<=&+&&&%144544431<>::-<:$<1<%,<44376472=2>;;#::<;;4><24",
"681>*,$:%1=1*=><,>&11=*$@$%&143133<>&>>;>%<1-22<<;2222<>>;2-4;-4;::;:>:$<<1%$>*$%<4474441<<,><-<:+11<-,<37778471%1&%:$::;+>4%<<7",
"771*>%%:$=1==*><<:,<1$&%@$$%1541151:1<2>:$=%->4<>2;42;7;4;4>4-;4-:>>:<:%=*&&:>&%%144774311>>><#>;:>41:,<44477441%=:%$:$$>-;>:<24",
"771***,+@*====*,%&*11&&$@&$%147231>&<%>;&%=%;<>411;2->4;4;<;<;;1;;2;;<&*<1<&@%&@=147333411&,>:+<%$,11;><27486732%=>%:%:>2O:><&<7",
"857,*%%%&1=<<1%:><=<1%$@@&>:121411<&1<<$$@1&-<>>1222;24-1;4;1;;1;;2;:%%$=1,%:>,%&<737334<<*,>:;:@@,5<;<,2447747<%%2::<>;;;<:%=37",
"664&,%@:$<&1<:>;<<&<1$=$%$%%=53137<%<%:$>:1:2>>22222>>7;>><<>-;1>>:-;2#:=1=$$&&$&<43734411&<&<;<%+:2%%=>2377771<$<=>>%:%;;2<;2<7",
"683*,%%$&*%*,<><<<&<<%=$$$*%=55315<%<$<:>+3%;222>2;22>4>4;<;4;;<>;2#;>:&*1*$@*%%%<447372<1%*:$;<>+>>>@1<27277741%=>%<&:%::2;;%<6",
"675*<%%>@&&=*=$1<*,<<*&@%$*%3331<3<&<$1:<@1@;44>2>2;;;8;<;:;1;-1-;>;::>%*1%%:%>%&1443723<<==>>$;&+:1:@1*2244744<$<<%=<<$:>>>>=<4",
"757*%%%%+&%1&&:<<<,<=%$$=*=*113<11<&=&>;<o5+->>44222;>4>4;>;4>-1::2;;2%%1<=,%:>%&<3452371<&1>:O;%@<3>%=&23477711$<>$2%%%::2:&<>4",
"665<*@%$:&&,<*%><<%=<%=%*%*=<131<3,=1@<;1+3$<<;22<22;;4;4;>>1;->%>3+#:>%<1*%@:%%*<4733342<&=:++;%+>3:$<&2447741<$=<><<$#:;1>%<<4",
"657,*@%%%%%<*<%<1<=<=%$@*%&*111311<*,;:;>X&+<>>:2-<--;414>;>1>-1;%<#>>&%=<=%::%&=2437373<&%1>-$<%+:3%%<<3347871>$<<%<&%$;;4;$>17",
"777<=&%@%%&*<,$1:<<<=%=$&&*%=<1<13<*1>;-:+2<4<2;4>2>;<1<1;>;4;-1::2#$2&$=1<@:$&@%<5337331&><<:::$ ::>+*>1244771=+=3&<<&%$:2;$&<7",
"755<*$@*@$&<<,:1;>&<3=*&=$=%113117<*3$1+<O<<7;<>>>;2>;4>4;-;4<-1;:>$:2&&==1@::>$%<227244<%%><;;:%+>$<$<>141776<&%<<%2%&$:><$%<24",
"7671,,:$$,%<<&%3*1=1=%=$=&*$=5=1<5<=1$:+<->>4>><>;<<;;4;1;;>>:-1::2::,<$<<*%$$,@%<223243<&*=<@>:$o;>,@,<<44474<&+<><<>,@$:>:;<14",
"676<<,$<@**1==:1%<*<*$*$=%=%==1151<*<%>$>->-2;>:1>>>-<>4<>$;1;;<:%<%,,<$&<<%%:<:%<3233412&==;>;:$@<<>;<&<24474<<+:<,<&<%%:;;><<4",
"7761,%>;$&&11=*<%*&<=&*$&$=%===3331=<%>@4+<>4;<:>>>-;-4;:>+$4;:<:$2$:%>%=<*@%;<@&<223222<*<=<@;;%@>;<,1*144444<<+>,,,&*@$$1;;:<7",
"6771&:%>@%%<==&<:%&=&$=%=*%*=<=3511=1%@%1X;>4;<:2;;>-2<>2;O+11;12$<>:<,%1,&%@>,&@<222342<%&<>$;;@@&$>@1&<<4484>,$1<,>&&@:%<-:>14",
"7561,<%<@,<<1<>2><**%*%@*%**<=<<131=<>:-4X><7><<:;<;;->;=<+$2;;>>$1>;>,%**%%%%&@%*1121411&*,&$;:@+:>&><*<14473&<$<>&:%,%;<>;>:24",
"6771,<%1$>,<<,%1:<*<%$&$%***=*1333<1<;;;4X::7<->;>;>->>;%>+:4:;1<@<>><,$**@%%$>>==1<4<42<*==>::;%@>:>$*&>11451,,$<<$%>$>:<1;>:<7",
"8651*<><@<=111&3&=&=$$=%===<&&1=351<,$:;>O>14::>;::;-;<;$>O$21#2<@<::<%@**$%:@:@&%=2<142<&%=>$;@@@;:>>=&<41741&&%<&&%,:::<>;>&<7",
"8861%>>>%&=<1%:><<*&%&=*==*<%&1<71<*<>;O1+>11:1>;::--<>-$:+;><;<1;<<:1<@%&*&<$<%%$1<2<4<<<$=<::$%o@>>%%&<1451<&<@>>>&%::><1;>%<3",
"8681,1;1-:,11>:><><=$%*@=<=<**1=511=>%+;<o><2>>>>%>##;:##$O$2<;>>$<<>3*$&&&%:$<%%&<<1<51====<:>>@@::<>:,=<1421%,%:>$%,*&:1<;<<<4",
"8881,,;,>,111>:$<>==@%%%=*<11=1=31<1:@;@3+<>2:>::%:%#%:#$%o$2<;;<@<>&=<$&%%$:$%%&&<<<<1<<=%=>>;;$$$><><,<2231<%>:<,%%%%%%,<>>:<4",
"8884:,<<<<<11%:1>>&<$%*%<**<1==151=1;>:;<+&;1>>:#%$:$::#$%.%2::;<$<>$1&%%&%$:$:%&%<&1:31<=$2%:;:%o%:>,,=><<3<=&*<>,&%%@:<11:1;14",
"8881;,;<:,,11:><<,&&@$*&==<1==11511=:::+7+1<:>><:>$$O:$;@$o$<>:;>:<1:1*@=&%#%:%%&%&><>21<<%>%$;;$@$:>&%*>111<**,>,,%%,@%:<<:<->4",
"8871::;1<>,13,@<><:&@%%%=1<11,1=51,<%:$-<#:2><$>>%%:$>%#@$.$=5$<,;,>>1>@==&$<<:$&&=&1<<<&<%=:>%#&+:><<%,=<1<,*@>>,<%&%%%:4<:>;<4",
"8777,,:1:<<13>><<:%&+$*%=1<<1,*1611<,$$-6O>:22><:%$>#>%;+@o$$=::>$,<%<<%=1%$>;%$&%*$<<21<<%<$$;;%;;><:%&=<&<%1:,:><,@*%*:>>>;-<7",
"7677,,:,<><41%%;<>*%&@*&=<111=1141<<,;:$7$:2<<%2>%$%:>$$$&@@&&%#,;<<&3&*==%@>%<#%%&%=<2<3<%=<%:;%%;::<:%*=<,%=%%::>%%%%:>>>>>@<4",
"8881:::,1><11&%;1%<%%$*$1=1<1<=1351>>@;@3$>2<<$<%%:::%>%@%@$%3&$,@5<@1&*==%@%$&%%%*%<<<<<=&=<###@%O;<,%&&<$*&,::::%:%%%%>:1:<+<5",
"7885;>:<<:<43>%<1::%$@&@<<<11===141,<:;;2+><4::4%:$>%:>:$*@&><;:,$<*,,%$==*@=&%%*%=%==51<<%&&+>#%%@:1>$%&=%&%*%::%%$%%@%:<>><;<7",
"6771>:;>1<143&$<>,$$>%*%<11<3<1<751><:;;&$:2>:%<%%:%;:%:@%@$&2>$:;<>$<@%==*$=%>%$*=$===1<=%&<$:-%$+:<>><&&@%%%$%:%=%%*%@::><<;>4",
"6664,>::<><43<%:7:@$$%<%<11<1<*<77<<>;;;3@<<1::<%%$$%<:<@$$@$3:%,@,%&=%$==$+%$:&%%%%===1==%&=%:$>%@+<>$&=*@*$*:>:$,%%%%%::>:>;<4",
"7774&>:<:><37,$:>$%%@%&$<1111==*471%>$>+>$%>>:%<%$%$:>><&$$$$1%&>:,:&<*@==%@<%<%$=%%==11==&&=&:;>$@:::><&*$*@>:@;%%%%%%>:>>>1><4",
"7675<,:<2&<43&%:2$$%$%*$111<1<=158<>:::+1;;>>1><:%%%%<><&<$@+<<%&%%@%>*%=1*+<@&****%=*=11%@=<:>;&@@$>1%>%&@%$%;:@:%$$&%%>:4><;<4",
"7765*>%<1<<43&@;4$>&&%=@=7325<**453,$::+1@;<>2:2&%%:$<<&$&%=%3%%%%**<*&$==$$<&**$%$*==*=1=%=>%::,@@$2>+<%&@%%%:@:$*%&,%&>:>1>>:4",
"5787>>:;2=<74&$:<+$%$$&%<13<3=*1484,:#:;;$;<>>:1$%$%><<2$=@$%2>%>%*$<=*$=1$@<$=$$*$%*&=1==$&=<>:<&+$4:;<&%@&%@,;,%%%%*%::;<:>>>4",
"5881<><+>&<47>%><%$=%$=@13311<*<565,;$>;O$+4>>&<%$%:&<><%=@=%3<%&%&$*&%@=<&%&%*%%%%&**==1%$&2$:#<%+>1<><%%@%@@%@%@%*%,%:<->1:<<4",
"5781<><;<<<47=%$1;$%&%&$<33<3<=<773,@::$;$#:4;<3=*%&$%<><%+$$3&&%**$%*=%==$%@$&%%=@**%==1=%==&%$>%+@1<;>%&+%$$:+:%%&&%%%<+>2;<>4",
"5784<,,-1=<77=>>>+%$$%=%114<11=<473<>::-$%O<>><<$%$%>%&<;$+%$2%=@<*$*=%%===@%%&&*=$$%*111=**&$=$<,+:<<;<&,@>$:;+$&%$**%&1@<<:1,1",
"5867,><;<<<77=&$1;;>%==$<44141<<484>:;>-;+-2$>22$=%%><<11:@=.<$%%*=$*%=@===%%$%=*%*%%%===*@*%%=$1<-:1>+<+%+:$::;%%$&$*%&1$>4,<>1",
"1887<><-3=273<$<<:%$%%&%<44114>>477,>;;+O$;<:><<&$%&,<11$%$%%%%%*==%**%%====$$&&@%%%%%===*%*&&%%5%-;2<;:%:$>$$;++@%%&*%*<@<>1<>4",
"5881<%>;3=<74>$><%$%%*=$123123<=775,::>-;@%>::><@&&<><><>><<$1>%%*=@==$*=1&$=%%%%%%@*=====**=*&+>@$=24->:$@>%;;#$$&&*&$*>;1<:1<<",
"5887<,>$3=<87:%:1$=%%%%%137343<<477,:$:+O:>:@$<1%&%==<&<$;$%o,%%%*=$**@%==%&%&$%%%$%*%3=1=%===$$<$@<<>;>:%$:#<##$,$&*=$%<;<<;7<<",
"5867<:>+2=177>%%<>%=%*=$<27<43<1774>;$:;;+><::<<%%$<%<,1:$,&$1>&$$*$*%%%3=%%=.@$*=%**%1=======%@5$@@>>;1:@@&;:--$,$&&=$%<;<1>1:1",
"1865<>>$<=276<;42;$%%%%%<14273<=767,:>;-+;:<-><>*%&<%<<1::<,$1,:$**$=**@==$&1$=&%%$%=%===1%===@+=%@1:1@1+:$>$%;+$&$&$&&%>;><:1>1",
"1887<&<+2=267<;:>;>>%==$114444<<484>:>;;-::<@<<:%$%<=*,<%@>&@1>:*%%@,%&$=%$%3.=$::>$%$=5==&=%%%%*@@=%2$1#$%>$>;;%*$**,%%<-<1:1>1",
"5884<<<+3=374<$<:>::&*=&<14474<<487%:;>:;>:>@:1<&&&,&1<1:;<>:1;<$$%@,&*&==$%&$=&%%$$&$===*&&&%$#1$@5;<;1$:#;;;:+@*$*%%%:1:11>1>1",
"1885<<;-3=387>::>>>>%&&%<14242<<777>>:>;:;:>$$:>@&%*<<<<+-,<:4,:$%%@*%1$==%*<%3&<>:%%@3=&=%<<>$#%.@=:2;>#>$:;<2;$&@&*=%%;:11:1>1",
"48811<>+1&277<>11<>%@&&&<14444<<754&:>>:;-;<;>:<,%&<<<,<<@<>$<::=$%@*%,%3%%$2%2%1:::$$=31<>&&&#%%@@%:>;<#;;>#:>O$=**=**:<-<;>1><",
"18711,>>3=476:<>2;;>%<*&1142441<475,;>;>+:;1;:<<&&%*<*,<<+<:+1:>%,%@%$&:<%%%3%2<>:<;$==3====&<$%=@$2O:;2;<:2-$:+$<%&,,:,>:<4:4;1",
"58641<+;3=257<:<;<<<:<&&<124421<763:;>;$@:;1::>>%%&>,&<>>-1>;1>>,%%$&%%%<%%;4>2:><>>&&5==1==%<%#3$$=#>:>;>>2#>4O$&*<,,,,;-<1:1><",
"18843<,@==567<,>><<:$>&<414432<<764>$:$;@,:<:::,&,%**1<<:+>>@>>;:$$$<$$%>$>#7>2:><>>$<=1=3<&&<$%=&#&O::>$><2%:>+$=&=,,><1->1:4<1",
"468411<:1=386<><2:::%<%,1<44441<377%<>;-@$@,::>>,%%&<,=>>-1>;1:;%$@$>%>&<$>O4><<11><$&=1==1$&<=&==$%#:::$;<4#:<$&<*=:;><<;<1$7;<",
"166521>;<<477<<;<#&%%2%&224332<1567<:;:$+$-<><<>=*&%<,<,<-1,-1>:$$:@,%,>>><+314>>>4<;;<1><>:%:$><$$&+%%2$<>2%:%$$=%&%&=<&@><;<<<",
"46631<>;<=277<,:>%&%%&%&224233<2774<<$-$+,$4<<>&<*$&1<,,>;;:;1,:::%$1&%,>%>;7<>;<4;2>><1<>>%><%$%+@=o.%<%<<2$:>+$<&&*&*&,;<>;<:<",
"47834<>;1<4471<>2#&&$1&&11363321587,;>->+>@11<%>%*$&,<<:;-<;-,<;%$%$<@,,<%>@8<<><<<2>><<<,>%%<$>3$$%%+%2#72=>>%$%=%=*%1,<:14:<><",
"37831<>;1=484<<;>#%%&&&&<2333311774<::;:o%+<<><>*&&,,%,,:;1:-1;;%$$%,@>,<$&:42>122:72;<<<>&%;1#><%+=#+%2$3<3$>%#$<==&%*,<><<$1;<",
"36673<<+1<4671,$>;>$$2%=<22562=1574<>:;:+%+1><:%,>%%,,,:;O<:+::;$%:$,$@,<$>:44>>>2<><<;4&<>%<<->=@$%$&$=#123&=$.$&=,=%<*<;14:1:<",
"37651<>$&=375<<<>:%%&2$&&2331321574<:;;+@:+<;1:$&&$*::,::-<>;1:$$:::,%%:<$>+47>1<4>22<:<<*&>:1;;=@$==+$&$1&=$=&+=%*&<&1<:;<1@<%*",
"36655*>;<<365<<:::>%&2$&&2336221564<>:;,X:@111<$%&$=,,,:;;<<-><-:,,:,%%:<$>+4>4>>2<22;>1$%%:>>+<<&@=%@%=$&%=$1@@$&&&*%<*>%13@1>*",
"47673<<><<4841,:##%%&1%&<233332=454<:;>;@:$1>1>>**%*,,%:;->--<>;$$,::%%,<$>-41><>8<2<>>2$<::>>@1<%$&%@$5%1=&.&%$=&<&=%%=><1<%<$=",
"35655*<+,<48711>#:%%>2$%<33336111651%:,@o%$1<<<:%*%*=**&;$>>;1<;;$%:<%@%<%>>4<><%<<<>:>>>%>;>:;:%$$=%@@1@=$=$=@+=$*&=%=<:$<1$1*,",
"45673*>-<<184<<;#$>%>2&&=33333115711%:::@@+<>1<%=*@%==%&;+1:;<>:>%,&<%$<<@%%34,<<<>>>>><>%%>:2;22$$=%@@1@$$%$=@$=%%%<&=&&:<1@1&&",
"35733%<@<<56511;$:>%=2&&=23626111551$@;<X*+<;1>:*=&&<*@:;;>;$,<>;><&&$%<>@>$4:<:<&<2;>:2>%<>:2;>%%$1&@@<%*%*%$.$<***=%,>>>%1%=$&",
"15631:<;,<1871::#;%%<2%===6331115511>>$;+>+<:><@&<@%=<@%;-<:;>1-:&<&<<@<<&%@41%<=3<2:2>:>%;%%>#>$$%=>%%*%@%%%=$%*%*%1@**>>><@1%*",
"15655<<;<=3677<:+%%&32%&116161131531%>$%X,+<;<%%==%@<1%%:$,;->>;:%<<,*@<$$:@<<<<>:>>2;>2#>#>;>:2:&%<>$%<@%%*%=%$%$%%=&<,<><,%1%=",
"=1536<<;<<3872>2+$&<22&==16316135551,$:@o:X>,,<%==%$**%%;$<;->4;@$<,<<%<>%$$1>:<%&>2>>;>#;##;2#2<<%<<&&*o@$$*=$$*&%%&%1=*<<&@1%*",
"15553,1$<=7673<%;;==<3===11616131531&$%>o<+>><*:=*%%=<@%$-,>$>:;>&<<=%$>>$%@1>:$>224>2>>:<$#->#2%%$<2%&=%@@%$==%*%$*&%%><<1<==$=",
"15555%1;*<26532:#;==22<===6161113531%&%$+,+:>11%==$$1,@%$;<:;>:;<$=<*%%&&$>$><:>:2>>2>>>>::$;>O>%>$21>>=%@.$*=%%**%**>&%<<=1%=%*",
"155=7=<:<<365<,:$&$113=&=1531611363=%%==+1o@$<<>=1&@=&%*&%<:;;>;>$%><=*&%@>@><<<<&<<;>:<;>;-#>->,,>11><*@@@>:,@$***&%%*<<1<<@1%*",
"15655=<:1=1651>:@$$=31=$=13316613653$%%=@&+$==&<<=%%=%$%=@;;>21;:$>%<,&>>@%%:<><<<<<:<><->;-;2#;%>@<1<<<+%%$::>@*$%%1*<1,1<1@1%*",
"31653=&$&&3651>$@@&131&&&16361111551%%&=.=@%:<<$*=*$**$%%@:;;>>>>:>&<%$%%%@>:<:<=<<<22<2;;;-;;-<+,$13<1<+%:<:<$:*%%$1,>1;<>>&<&*",
"=1553<%&<=367<@>.&%=13&&==6316115551&$$%+=+@::1%***%*=%%$;:;;>>;>;<>*$%,$%>%<<%>=3&<4;4;>2;>;:->%%$<5<<,+=:1,>@+***%<::1@1<<$1**",
"=5533=&%,&3551&%@@=111===136131=1561**==+% $:,3><&%%*%%,>$1;<>>>:><><%%<>@%@<<>:<<,:4>2>;>>-->-2&&@,51<%+@%<1<;:&,%$1%%<;1>>$===",
"==555=%<*&5631@,.%&111=%<<3335111511**=$o,o@;;4,,*%$**%%:$:;<;>-:%:&<&<<@:$&:,%><,<>1>>2;2>;->->+@;<61>@+%@::,::&>%@<%<1;1$,@=*=",
"=555==1@<&5771%%@==111=%==3315111551*@**@<o$;:<<&&*$,<%&$::$:>:;:;>&&&*<%%%%$>%%=<4>2>>>->>;->-2%&$,81>>@>;1<:;>:%,%&,%4::<&$===",
"=5555=****1531$,.$%111==<16351115111%*%=@=+@:1,>,*%%*=%&<:>;<:>;::<&<&<<$%%<,>>,<*<>4>;>>2>;>>O>$,@<8<@@+>;<><$<@,&>1&>1-1&*@**=",
"$3533<&><&3571$<.=%11====1151115=331&<<>+%o@%,1<,%<$*=&,1>-;<;4-:$>><$==%%&<:1@>*1=&<<:1;4;:;2-2&&%>5<@@;;-<;<;,&>#%<>:4;2>:$==&",
"%1531=$:<=365=&@%*==11=$==5115115531$::<$=o%@>>,&<&$==%&<:;>2>4><;,:<&<1%%*<%>@&==1*1>:$<2<;-2O2+>&,5<@@;;;>>1;;:>%%<2$1;<>>+<&=",
"%3373=&@1=4751@%=*==1==%=115511=353<$,>1%=$@-<>>=<*$==*&>;;;2>>;<:<:=*1<$%,%:>%>&*<&1>$:2<2<>2->$%@,5,@@->::<<-<<>%$%<;4;><%%=&&",
"%3731&>+<*3651@$@==151====51165=5351@<><$=$%$,4@&=*%==&%:@:>2>1<1:$%1=11*%%>%<@%&<1,<::>><>>>>O;@%@11*@@;;;<<<-<><%%<>+1:;<>%1*=",
"%5551=&:*15351*&@===11=*=1511515535=+>>2%=@$O1::,<<@==$<,:@;2>122:::>$11%$&%%:$&&&=%1$>>>2>2-2-;@,@,1&+@:::1;>+>><>:<%#2>>%<$<==",
"%=333<*:&=151=%&.**=11=*1=51115=155=$<>1+=$+->:;&&%@==%,>;>><<>2>>>;<*1<%*%%:>,<%&1%1%<>>4>;>2->%,:11,o:;<;>,,;><:@$:>:4>>::$==<",
"%1533=%$==555<%$%%==11==1=153511355=%<%<&=@X;<<>**%$=1%<<::>2<><2>>:,&<1$%*>><%,$*=*1%,$>>>-->O;%,:1<%@@><><>,@>>>:$>%;2;:%$%=&<",
"%=532><@*<161<%$@*==51====1115313551%1<5=<:O-><:*&$$*,%,>@%:1<14<<>;<&1<**%&:,%&**<*1$&@2<>--<-;@<%1,*@>>,;>>%@<<<$::;><>$%%$<=<",
"%1531&%&==5511$%$=%=5=====5=55=6351=*114:,%@+;<;>:&@=*%*,@<><<>:<>%:=$1=&%&%>%*=%=<*<%@>>1:;:$$@%1%3>%@:::;><%+&><:>>;;<;<<>;<&<",
"&=533=&$&=1511%%%%==11===56=15511551=<<1@1%$;>>::<$@=1$1::,>1<>14<>$1@1<&%&%%,%1$*%&<&<>>>>+$%+@&1@5:%;$4>;:>@@*&<@:;:>4:>:;@<*<",
"=1333=$$==111=%$.&==11=%==5615=53531%<<1*1@@;:>@:<%$==%%1;>,<4>;4<%:1&<1&&*%%<==%*=&=%:>:>>;::+$,<%1%@;:>:@&&$@&:<:@::>1;;<>@<%<",
"=1331=$$==5511%%@&==51===15==5515351%<44==@++;>:%>$%==$*<@>>>::><<@&<%=1*$<$<<&1%%*&<%%%4;;+:>+$*<:<:%;;<>%>%%%<<,>::;>4-;><&=%<",
"&1331==$&&1331&$$&=111===16165514373:1<7=%@@$><;&=+%3===<@>><,&:<<:;<&1<*%*%>,>*$=*%=&&%:>;;%$O$;,:1@@::><:&&*$=>:::<>1<;&>:@*,1",
"=1531=&$==1311=&$%=1511===1555514751:<<>**%@@:;;><$%=1$=1@,>:<%:4>>;3$&,&%*%;&%,%*=%=%%$>;>#<%#+>,,<@:-:<,>%*$@=><@>>>:1@*<&%*<<",
"=1331&$+&=111&%$$$&=11===11556517741;1>4=&@@>$:;%&%&==@=,:>:4>@;1<><1&<=*%,%<<%1*===<%>$>>>;:%.$$,11%:$->%==&%@=>::>,:4<$%5>%*&<",
"&=33=&%%&=111==&$&&=111=111551657771:<><&*$@%;<:>>%*1=*=<;<:4::<41<><$<<*%%>>*&=%==%=&<$%$;%%%#%@,1,+::,1<<%=$&=%:%%>;11+><>@=><",
"==33=&&%&=333%=&%&%1113=111666637771;<><$$$$$#:>$<$&=1%=1%<>1>>@>1;>>;><**&*@,*<=====%&$:$>:;<#%:,5%$,<><>>>*$$=>2;:>O<1$,3<@=&<",
"&=13<%%+&=13<&%$.%&1131==11516567771:<;4=&$+$-;#:>$<<*$==$>><<::<>>>4-><&&&=>>*=&3<=<&&%%$%%>:#$@>5@:>::1,>%=**=<>;:>-4:@$11%*&<",
"&=132&%%%1111=<$&%&1331&==6136517771:<>>%$%+%+:#%%$<,<*=<%><>,%$;>>;1->><%*,>,%<&1<<*&%@&%>%>:O%%*7@@<::1&%%=&%&>>;:>:4<+%<1$=<1",
"=&13&&%<&=11<&&$$&=1311&=56566638771;<>1%%%+#+:;$%$>&&$<,$;>:>@@1<1;7:<;=%&%%&%,*<<**%&+<<<>>>+:%18@>:>:1<<,<%**&>;>2;>>@<11@&><",
"=&11====%=3=1%=$@%&1313&124455547771:>;>+%$@++3%<:%>=&$&&:%,>,@%1><;1>,:<&&<>=$&<<<<<*=$<%<><>$$:15@%<>:<*%&<&<&%>$<;-2<@*3<@%,1",
"==11==%=&=111=$$&&=1313%&25455547751><:<$@%$$+$$:>%><&%&>:>><>@::><;><:;=*&,>=&&=11====@%%<<:<@$%,5%<1<><*&11&<&%<@<>;2;@*13%&<1",
"3=231&=%&1111&=&%%=3511==34445527851>,>1@*$%+@2#;:%<$&$<<&>>;;:@;<<>,:,:*%*,<*%&=1=11<=&>%::%2o$:15@:>>;<*=13<<&::$>:>1@@%1<@=<1",
"=&11==&<%=11&&%$@$=33131=1245555757<><&=@$%$+#<::::&&&%1$%&<<::;-<<>1:>:*%<*1>%=<<*11=*$>%<:>:%$$1<@>><;=*=13<<&%<+<1<>%@<,1$*<1",
"<=11&=&>&<3<<&<>@&&3431<*<2767774632&<<>:@@$ @+:+:%<$&%<:;<<>>@@<><>1;>:,:*1=>%*=3<<1<%$=&&&:;:$%1<$>1,:1<<13<<=>%::2<>>;;1<$&=2",
"<=<2<=%&$131<%<$===373====347773764<$3:>>$&@@@$<:<%&$<=*:;<>:&+o-11>1>>;,,==**%&<<<=3&&@=*<>#>%:@1<%:1<>=<,33<<&%,;><4>>@;&>$%=1",
"3=<1&&%1%=111%%%&=&3333==11374477741=<,:&@>%+@;<;:>,&$%&@<<<;:+@-11>4;<:,,&<1*%%<<<<31*$&%>%;>%$$1:@<1>>==<3312&%>@<;>;;@%%<@&33",
"3=<1<%%>&=211*<=>==6371<<=327473777<*&::&@&@++$<@;$>%%<=%::<:>+@:11;1:;;,1&<<*$$<<<<3<&&&%&>;:%+@1;:;>>>1<13411=&<@:>1<:@:&:@&<3",
"3=13==%&&131<12%>&=774<=%<145474373<:<>:>+%%++@:;::<$%$1@><<::X@;<>>1;:-**=,*&@*<<<13<<$<$,>@:<%@<%<14<>1=337<<<%*:<21<>+%$3$%=7",
"<&=<<*%<$=11<<<%2=<2343&&<2137737732$<;:&@%$o+&4::<:$>><>%1:;>o+-41>1;<;*1<<&>%*=13<3<<>1%<%+$<%&<$%>1:<5=337<21%,@@1<2<@%$<+%<4",
"3=1<=*%3%<31<=><2<&446=&&<213437473<%&::,+&%+@%1-::>$%%&%><:::o%-4<4>>:-&=*,%,%&=<21311,=*=%;:<;%1@11><<1<17723<&=%<4>>>+=$2$%<4",
"2==<=$%=@&32<&<<<=&634=<&=<274774411%<>:<@%%++@7;><<%>:<:<1>><X$;;2><>>;==*<>,%%&<2<112<1==%+<>;@<@<2>,==1<7722<$=@<<<<>+$o%+%=7",
"2=&<=%%&$*3<>&<<<&<733=1&*1<4447573<>&:$%@<&+o:4-<>::;><><1>>1o@;41<::>@*1&=%*&=&<11111<1%,$::1%%<@&1;<<=347734<%>;:>2<>%&$>;$<4",
"2<=<<%%%$<33&&%=1&<7751&&=114437373<&>;;,@%$o:@<;<1>::>>;>4:>1o+;<<<>::@**1=<&%&,<31144>1,,%@;>:@<@<>>%<=344637<<<;>4><>#%+<;<&4",
"3<=<<&%>$=12>%<12<<3731&@==1442737<1&<$;$%&@+@:<::>>:<<<<<1><<-+>4<>@::@==**$<**><41<2411*%:;>4<$1+>1>>>=743733<&&;;2:2>+:#<+%<4",
"3<=<<&$:$&13&<>2<<<741==&*<144374621>%>@>$*$+@;1:1>1:1,><<1::7-+;1<>>;:@&==<$<<&><1444441%:$:;1@&1@$1>&=<247734<&&:;2><>+;+<#=<6",
"41&<<&&>%&17%=<11&1734=<$%=344474723*>;-:@&$o+@<;;<<:<<>>1<>>3+$;<>:;$:@==<=$1==&<411444*<=%::1:@1$%<>><=3677343==%>>:<<>>$2$&<4",
"4<=>1%&1$=<3&&13:=<333=<&&<3434733<3&>$$:$>$@@@5;<>:,<<;>><>12+:-<:>:::$<<&=$===><344474<**%;;1:%<%$<:>1<3347343<<%%7:2::>O4#&<4",
"72=<<&%>$=<4%%%<<&<743=%%%<<24344723&$$-<@&<O@;1;:4><<<<><1<1<;;>1>::>@@&<=<<=1%&<444771<&,&:>1,%,%@>:@<14357342<>$:1;1>$;$3$&27",
"42*<<%,>$<23%$<3>$<433&&%%&33447373<<<:>>&%%;O;:-><<<><:<<>>12->-1;:><$@&&&&&<<=,<444453<*%%;<1&@1+$<::<3347754<<<%>2>2:;>$<$=27"
};
