/* XPM */
static char *result[] = {
/* columns rows colors chars-per-pixel */
"128 128 28 1 ",
"  c #BF9D7A",
". c #BFA07E",
"X c #C19F7B",
"o c #C4A27E",
"O c #C8A47F",
"+ c #C5A582",
"@ c #C8A682",
"# c #C6A985",
"$ c #C9AA86",
"% c #C6AD8A",
"& c #C9AE8A",
"* c #C6B18E",
"= c #CAB18D",
"- c #D1B58F",
"; c #C6B491",
": c #CBB592",
"> c #C6BA97",
", c #CCB996",
"< c #C7BB99",
"1 c #CDBD9A",
"2 c #D0B792",
"3 c #D1BB96",
"4 c #D1BE9A",
"5 c #CEC19D",
"6 c #D1C29E",
"7 c #CFC3A0",
"8 c #D2C5A1",
"9 c #D5C8A4",
/* pixels */
";=:11,:&&%%8==&=+&===$$:111#,51<17%>,78O+X&8@&++5&&=1@:,:&#,58.1115,,4&o=:;15,:o&&&#:7:#@o4=+1$&&+8&%=1,=%4@@+1%4#%8,@$&&#,15%7:",
"&=,,5,:#&#;8====+&=&,#==11,#,5;:,6%%;>9@O+%4+@@+;:,4@&:1:=@158#1171,,4&+:::1,1-o&%=X174+=+8##8&=&+6&%*,=:+1$@+:%,=%13+$#=%,11%5*",
"+1,,1,,@&#>8:&&=#=&==#*:11,#,6*,%5@@#;8+@o%,$&&=+>::&;14;:+118#>171,16$#*::1:1:@&$&o518#3;8++7:=&#5%#%:&=+3&@%&+%:#,3$$&:%,14=1:",
"%51,1,3+&%*8:##=&#&;==%,115#*5#=@3o$+%1@@+&:@:&22@$@:,55:,#%,5#,171>61$o*:;5,1=$@&,%1,5:154$X54:=%8O#=:%=%,:@=$++=%1,$#===,15,1=",
":15,114@&%*5:@$$:#&:=&%=116&*,@#@&+&o=:$@+:$@=;1:,::,,15:4$#>8#1111,7=&o%%%,5,=&@%1;1:,1:,,$+171&*6$#$==&@,:$=&@$#=1=&#::>>,55,#",
"1;7:116$&&:,:@&$&+&:==*:1,4=#=&$++%:O&$$o+&#&;4:+;%,+>>7;1&O:7#7>71:6&$O@&#=1:=#@;1,8;>:=;:+&178%&3-+#*=&#::$==@*@*,:=%,:::155,o",
"5;5:556$=&4&@$&&&o&:=%*:511=&$#O@@@=#&O$o@=+&;9X&;&&@#;4:1%#;6;1111>6=&$+;:$:==&o%111::&%&&+1157#%,6@#$#&+3=$&:$&%=:6==,,,,15,,o",
"1*5;556=,,1@@:&&@o=:=&%:516,@+O=$#$2&++=@@+#%:8@&:1&%o:7:,#+:7:5,7,>8:$2@16=$$=@o*116,=&%&$ 1,57&%152@$#&+,:&#:&#&=*6=*=1,:11,=o",
"1*5,,,,:<,O&=&:&&O=:=**;515,$+=O=+%,=@o=$@@$%17%;,,=&+:5:,&+,7>7,1,>5,,1&5;6&+=$o%175,&$#$#o1,56=*,*44$$&+,,=@:=&=,%5=*:1,:11:&#",
",*1,::%7%&=1,:2=&#:::o*51553$@$O=@&:2$+=&&&&%11#=1,:&+,1:,#%,1,751*,,5151,;;9O$&X#>,5,&@+=%#51;8=:,%:8&+&#,3&&::==,%6%::11:,1=%:",
",=1,=;+1#:,1111:,==:=O&,<55,$###&%=,:$$::2:=%11@=:3:+@11,:&@>>1711:*;1,55,&;6@&O++%;11=@@==+>6+5;:,%:6&+%&,1==;::::=6&=;11:,1=#1",
"::16#%X==1,**51,,,:=*&*,1555$$O#&%;:3&&::,:;%11@%:,2+;11,,&;%;1<5,=**,;51,%=3$$@@@$&%7:@#::=+8X,=:&#:6=@@:1,:&=;:,:%5**:11,,,&+5",
",,16@@o+:7&++15>5::==#*15556=$O@&$:,,:&;,1,:%11@#:,&+,712,:2@#1153===,*51,#:,,$@$$=@+5=&+,,2O:@&&&=&:6=@+,1,,==::1:&1&&:11;,:&+5",
",,58$+$o11$o#:115:,&&%;15556=$##&%::1,=::1,=%,8+@%:@@1711:,4++,15,==*1:,,:#=&4&o==:$%*3=&,54&$=o%:;#>6&%#,:,::=,,5,%,3%,,1&,:$#5",
",518+@#%13++.:115,2&&o*15556&$@$=&:,,=::,1:=#:9$+%,+%55<41,4%o,,5,==&,,%,,%:%6=+&&,==+1:;115,$=@#=:@16&@#>,1::;,,5,=,5=;:,%:=&.1",
",117$$$+13@@ ,1,,5,&#+*;5<56=#=&;&::,::,:4:=+:4=&%&X,75,1113#o;,51&:&,,#6=&:=9=o:&,;=+51:<*,132&&,:%18$@+;1:::;,,5,=,6:;::%=&$ 1",
",158+&%@46@O.1,,5,-&O#*,5555=@&&:&==,:,,:1=&o:,12@@%155>7113%+;:5,%,#16o1,=::6$X::,::@:51=+$>>1,=,,*19+@%*1:::>,,7,;111=,&$&&@o,",
">,18o$%%16&o#,51,::$#O*:>155=#&&=&*=%;::,1=$+:>16+,,1551,141&+&:6,&,%1,%>,;,,1&o,,,1:&#*5O$=$o;1:,,;19@++&5:::;111,;,<71::4$&$&,",
":>18$&#*16@+#151,,=&$O*:,51,,#===&@&#&:,:,&@$;:,8=555551>514&+;11,&:=,6@#1,,4:$+,,,4::&+%&=,==o:111,18&$#%4,=;,111,:,151118&1&,=",
":;:6&#%%18=#%15,,:=O##*;,5,,:#:#=$+=o%*,,,&o,%%*1>1<<157;<83&X&11=&,*16$#,116&&#,,:1:,&&#=,1:3$+115515&=#%6::;,111,:1115155,6:6:",
":::8$$&#18==:55,:==O&o&;,55,:#,$=#&+=%*,,;&o4$%%,5>11,58%:5,;X;65=*,*11=@@1<8%=@:,,5,:&&%,55,6:o,>,15,&&&#5,,;,11,1:,111<715115:",
",=;8&#=%15,,,15,=&:OOO&*,5,,2O,=#+3#3O*:3=##9+#%:1:,1,15%;73&@,6,=#,%,6#=X;:1%&@>,,7,:2&=515153@***>8%&=,o5:::,51,,:>1>111,1,51;",
",:,5&$*%>115514,&&$O%&o;:1,,,#,=&o6%6$#=:=o:9@$#=,;>1>,1#%11&%15==+,%16$=&+%:@;&;,,53::&;511553&o##*8o==:+5,::,51;1:,1;,>1,,:7:,",
"1:,1#%##;,,,5,1=##O:o-#&*1,,3O,=$ 6=6&#=:&+,6&=O%,=,,,=;#%13%:75=:+=*,8#:&+#&2@%;:,6,::;;55515,;#%+%6#=:,+,11;1,8%1:,,:,:,,,;7:1",
"1,1:$$&+%>=;1,,=@++3o2$%=1,1:#,=$ 6;63#$*%#<6:3$%;%:1,%%+#:1%115&,@=;11&:=$&#6@X;:11,=;&:1<7,7:=$=O#1+::4#*11;1:8#1:,1;1:1:::1:>",
"#1,&+&$$O*=*,:,=@o=8o6=$*,1,:#,:= 5:56@@&#+;5,3:&&%:1:@@X@%7#715$=:=&1,&::&&.82+&::,,&&=:,>5:1;&==+@:%,,4&%51=1>8.11:4&,:1=::>6&",
"%%=+$$@&$==%,:=$@+,8#5,=*,=5,$,=#o5;56,@++@#1116+&@;6=@@@+%4#711+::=&11%3::2 73@#::;:#&%:,:1%,=&$=$+%%,,6;%51:1:8 71:7;3:,;=:*8%",
"=#+@@&#&=&&#:==#+#,6*5,&#,;,=&:-$o5;514=O##+,119+&+;4&@$&X+8#11:#%,%;3;%13:2+14@#==&&$:$;::1#&=$&=@#+*1,6%*5,=5:1o11:1>1,1:::,8@",
"&&#$&=+=&&&#,==$o#,1,53#*::,=#=,#+5;116:2O@%;,18$&@;6&$&&@X8#11&%#4@;1&;111,@:3X%;=$o&4&&:=,@$=$==$@o%115%11::8*,#;1:115115:>18#",
"&&$+=$#&&=$#==$$$=,1,,5$#,=5=#==#+5*1,6,,$@+,:15=%@;9+$&2@X4+73&+#4+=,%;5142&==X&&&$X:6=;;=2+$&%=:$@+%111#1,;;8==@%1>17,115::16%",
"&=$$=&o$#&&#==#=*,,15,5&#,=1#o==#+5*1,51:=+#6*11:&%:9o&&:&.8.74&o@6o=,%::58,;&@@@&&$@114&=&:+&&&=:&$#%1,1@1:;;8&%##1>17,,,;,,16&",
"=$&&==O$+=&#=&#=*5,1,,,#&,=,$O=*##8%1>5,==+=8%111@@,,+;:1:+8.13&o%9o%1@:;<5>:&@@#$%+;5>8&=&:+&=$:2&$&=,>=::&%=6&$##5:,11:,*:,61&",
"==$&-&+$+=#=&$+:*5,5;5:%%::,@+=&$+5#,11,=$+>6*11:$#7%@:,,:#6+,1##=9@$:+:=:,,,$$&$@$#=7:8&:$:+;:%:4===:,%=1@&+%8&@@+1::17,7&:,8;;",
"&=$#=&o=o=$#=$+:*7*7o6$&#:==$o=$&#5+1,,,@##*1,1,=&%8o%:11,+9X,1@o,6=%,#:,,,,2&#=$$+%:1;8#=$=o::;1,,,,::o5&&-+%4&@++51:>1,1;;,9+,",
"&=&#=&o-O&$&&$o;%7%,+,#&$2:,Oo=$#+1.615,$o$$#,51%*::#%,11,#6X13+#1,3#==*51,,,$$$#&#%11:8#=%&+:::15,11:==1o,6+%1:+++51=,5,11%,9+&",
"$==&&$o=@$=&=$+##6+$#%=%=:=&#o&$##, 5,3=#O$&.156@=5@&=,51,@6X14X,>,6o*,#;16=,=&$&$##71&8+&@&#:,,16151:+8:#18=+,3+#.16;:5;11%,8$:",
"%=$:$$@&@&$&&&o&o1O#$$$=#::$@o&$&#3o116&o#=@+*<6#:8#%>,81:#1+:2@6=:6@#6$=*5===&$&&@%51;9+$$$#,>,515,6:+6#:15:o:6X@#>7*:5&,1&,8%&",
"&&&$$=O=#&&&&@@&+$O=$&$$+::$@O&$#*,o116$O@===+*5%1,#;:174:+1+:;=5%;8$#*1,$:%==#=%&%#7,=8O#=$%,,:515:5,o6+,51:o:6@$@11;,1;1,&,7&&",
"$=+=$++=o=&&&@@&=O@&&$&=#=,@@$=#&$=#;58=O#==,@ 1:8&@;,11:=O:,=&11#*5=$==*4##*=O=$$%%5,:6@$#$%1,,<,5;6,o4#564=X;8+$%1,=,4;4;:11@%",
"#&+3+@+=o&&&=@+==#&==&$$+*=@o:O$##,$;57=O*,=2=#*:4+&;,11&$6#1;&1,#%:15:4#6@+#=#=&&%#6,=6+=+#*1,11;6:5:+,:116&o%9+&=1;,,1;4;:8&+&",
"X,%4@&o=o&=$=$#===$:@=&&+&&&o3+$+$=&*55=##::1==%4,+&;,,,&5:&,+11=$#=:*,,=3&&@=$=#&%#1:;6+3@#%1,51;516=$;5,15=o%8@@=1*,16%8%,8+%&",
"&8=4&@$@%==#=$+,:&&=$=,3o@&$ 9o$#%&=%6,3O#,:,=,*6=+%=:;#1%%6=o1,==+$#%=%1;3&o&$&@=%#5:=6#6&&%,,5;,155%4%5:182+#9#+*6%,18#1#11#$$",
":1:42O&$o====##::&&%=:16$+&+ 8$$$#:=*5,6o#::,==;8=@#%=&@:$,,=:,:$4@@++*#8%6:o=O=@:%#1=:1%8:##,,8;,153#6%1:153##9#o*1*15,+&X=@&=+",
"7:14:&@$+#:==$+=,%=#%1552o@@ 8&#&+:,%5,8##:;,&*%63-$=@=8@1,%,4:&%6&@@###6%16$=+$%:&+5:,1%19+#;>7*,111%5*5>159##6@o&1;18&+&&&&=:o",
"1;412$+=o@==&$+=:$&#*51,6@@@+7=$$+,5*1,8%+==:##%11,,;:;&1;:&1,=&#8:$$$#%6%:82=o&o;%.1,,1*18@&%:7*1,1,*1%5,,17%%1=o#1;18$o&1,,:2o",
"1%7,,-X&o%&=$&#=:$&@>51:9&@@#8=@=#16*1,8+#==&++#,,:;&@$&,%:1:,=&%5&&$=&%8&;543X&+==+1,,,;1,:6@>8%51,,%1+5,>18#=6&o%5:,8#+;,1113o",
",;7:43o$@+=&#$#=:$#+:5,:6&&&&63$%+55:1,9O#==$Oo+,:;$:;;,$::1:==#=,+=&==:5&:16&@+o&&#5,,,:1,18+,5*5,,,#1#,1:16=*,=O#5,16=+;,1,14+",
"1;7*66@$$&=##&$*:$##;11,4=:+;53&%+71,,,9@#==@++#::@1-@$-&1;,:==#::$,:,=,,%,19&$@@&%+5,,,11;55+,7*51:,#,#:1;,6&*,,+%51116o::1;51+",
"6;7*58&#%6@@O=#=,@O=**51,:4+116&@+51;5;8&$&&$@X:&&:;,>1,5:=:=:=%:,&1,1:5%*:58&@+##= 5,,,51*51#,6=11:&::+:6*,6=*,6o=555>5&%11:11#",
"5=5:58=o=6$-O#@#,$#$#%5,,,6%1,9$#+11,5:5=&&=$@X&&X8@1%;;1=%==**=13:>1,15+;115&&@$$=o51,,51*5*#,5;14=#4=o:5*:5==*6+=117,,5%1511,#",
"8*5,58:$*,,6=$@#,O#=*#5,;55;7>7&%+11,5,,:&&2$@X:&@4@,+:&:$%=:&&%144%;#:=+&1:,&=@#@=.5,1155*6#%17;14& 8=X>6=,1,#*1#,115,:6#115,*.",
"5*1155,=::16==#$=@o=#*51;1117,1:++11;5:%:;@:&&X2:,1;,+=$=$#==&#*116+$$@o%=5;=&#&##,o511155=5+%15;,1& 6=o:1=,:,@*,%5,,5:*9X>11,&.",
"6*1>15:,,=55,$$#=@O&#15,*,:55:,3O*55;5,&,:@:&+ ,;7::,+&&&$+=&%%:,19@$$$@%:5;=@@@@#=+;1115;,:#%51,,3& 1&+:,:,=,#%=,5>,5,*6X,,,:=X",
"6;6;71%,,;556&$$$&$##55,*::1,:,4o*55%1,:,:+==++::7%:2+:&&@@==#:1>;8$&&&+=:8#:&&@$+=#*551, 6$+=5,:,3-X4=+:;1,:6O%*51,,1:*6#,1:;$X",
"5;8#8,%1,:516=$#@=:+#55,&%:1,=:6.;56+16,,=&&&@#,18&:3+3$&o&:&%=5=%;=%=:&::8&&:@&$#%+#54=O#,+#:5:;,1:X,=+%*1,16$=*1:,,5*,4#:,=&@X",
"1:6#6;%15:155$&o=,4#+55=&%;:,=*8#,58.15,3&&=@@#111%:3%2$$$o:&#:8&%&&&,:&:,1&2@X:#+=#%5:+o:O@%,5:;,3&X3:+##11,6,$%,:,,1*,1==:&&$o",
",17#6&%17:551=@#,55,#15=##=::**5:116.15,5%%:#;%71,&:4#1&$$@,%=,1&&+&&,,;,4,&&@X3@+&$o6=@+,&&&11:=,3&+,:@$+11156+%:*,,1%:6&=:$&@#",
":17#6%%15:15::#=516,*,5=$+=*,#*5,518+17>6&#3#::51=;>6&4&=@&3&#5,&,&&%14;<8:=&&X3$@+& 6&+@1&&:14=&1,;@,,@++,51<9O=%%:,4%*8#:=&=+o",
">15#6&%<5>77:=X,11,6:1,==o&%:#%55518%15;8&+:.,%74%:,4;4;:$*1=%13@1:%%57:18=:+@+,&@o$X6$o&;;,:5,&;1:&%,:@++>5,,8O$#&,:1#;8+=&+@+%",
";1,%7;%11,57=&+;1,,5,,4$O#=#*+#15515%11#6&@: :;14&&;7:6=:$;4:*64+,,@%<<,51%2+++3=OO@+1&o&:;,1,:%;32@+,2@$+>15,5=&+%=:,+;8o==@+=#",
"=1;%1,#55,51;:X#11;5113@+==#=$%,1517>13+4@&&X,%%8&&&1,4,:&,1,;56+:=+:=%15,&2@@+12&o$X4&X&,=11:;%:1;%&,2@&+156:,6&@+=:,@:9O=&$$&=",
"#8;#41#5515,@-o 5,11*16$o:$#&#+,>515,6,X1$&&+=$%8%&&,<4:,&,5,,56+:%+3@+15=$:@++43=O@X:&+;,;18@&%3,:+,;,@$.555:,6$$+==,+:6@=&+$%:",
".5##14#<7113+=@+515*+<5=&=$#=$#:;115,7,o=%&&@==#8%%:;11;4%51115,@=@#4:X>1#&:@+#543+@X:$@;:,18&#@11&@1&:@$ 551:16@=o==:+:4&=&@$o=",
"+:@#74+:5111+:oo116@#%5=$$#O@&#=:,1<173+&@=&+&#,8@%1&11;5=15115:#=&%5:@&:++:@X;544o&o&&+=1114%X%4,@,1&=-# 511,11&,O;=;+:1%=$==#%",
"$#o+51+,16::$=o#>11&&@&:&@@$$&%:>,1,163X$&=&$+;18@%1%71=4;>11>8#%:;:8&@#&@+:O@:178@@+@++%,5,1Oo@1;+1;&&,+o5,1,11*3+===+:1==#==&@",
"=+o.6,#>16::$=O&%,:&=@X,&O+&&&%:,,1,564o&&&== ,54%;7%11;1,%11#1+$::,2&&+@@X,X&>118@+@++@;18:2+@&4:+1&:&&oo5*115,;,+=:=@=3====:=@",
"=$O 8:%:152&==@&+%@::&+1=@@:$:*,,,15516@&&=@=X714&#1#18;14#73o&@%::4:&$@@+@=X;%184@@@X@@:,7;2+@;4&@,&,&@X#1+>%15*=o=:;&=13&==::$",
"-$+ 6:=:,5,&==$=++o=:2#4=+&;&:;171,5158&=%:++o154:#:+<1;18+1:@+&=,:5%-=@&+@&X;#74:@&@@+%:11=:$+%1:&,&:$@o#4o%o;5##o::#%:1,#:::=&",
"==@X6:=:,5:%&=&=@@+:,,&4=@%;=,,,>,,7,57,:&&@@+151,+%+:1%18@,&@&%=>4,+==&$@O++=+1,+&&++@%>,1&=%+%4&=:=%&@o#3O$&=&OO+&,@+;,,#===&=",
"3=@X8:*::7:o=-&=$$%:1,,:2@&:*,,:>111>517==@2;#1182@OX;,=18%;=#===>5$$::&&oO@o:+1%@:$++$%:,6&=@$%,&:=2@@+@#=+==4@++#%,$#=,5#:====",
"3=@o71%,,6=@::&=%=%:114&:$:2%,4=%111,1,7=&&58#1,13@@X#,;61@@&&:&,4%$@:,:$@+@@&+;@$2=X&+%;:6:3&=&,&;=3@&@#$=+=,4&@O===@+*,6o,#=&:",
"4=# 61=1;6=o::==&=#,1112&,13=:4=.115,116=*:58@1;13+&oo,;8;&+#%,;,8+$%,,:=@+&&@@@@&=&@3%#;;114&2%,&#:,&&$o=&#:,6&$+=#=@+&=6o,&#*:",
",:$o17;5:5:X::&:%=%,,>>6#5<5;:,: 711,7<7:+,58#;;83X=@X::9@=+@=1:19+&&,1:=$@$@&&&@%@&;8$#*%;,111#3=+,3&@=$+&#:15&$#=&$$#&=6+==#:,",
"4:&o1117=,=&;2=:&=&,,,%1+,,7*:,=.751,115,+1,7%%%1,+2O@;19o:O%:1:18$&=,1,&&@&&&&&@$+:113@&+#*:16#3:+44=$=#$+%,,6=&X2==&+%*6$==$:,",
"62&+,115:==+=1::%%;,,=*=#,:6&:5=#>1<1<571+7;9&@%6&@=@@&19X=+@>1,18&&:,13$:&&&=&&$+.58:8@#3@$%18#5,#16:$2$@o%,16==+4:==$+%1===:,1",
"5,=o>,55:%$&&1=:$=%:,&=o1,,1%:5$#:;;5*17,%1#7%&&6&X,+%#19o=@#,51,5$;>141&&&$&=&&%@%15;4&*61=#18#51:%6:%:-+##,55,=+13=3#+%3#=*:,1",
"53&+:,514$@&=::&#$%:&#6o5,,6&1=##,$+;+:71&1+5+1,5@X:@%#;6O&@#,55>,%,>151#=$@&&%&o#,11;,,,155#<8%1,,#5,+=,@O#,5,,:o16*6@o*:=:=;15",
"1,=o,;514@#%=,&&@$#;#:4%5,,5*6O#&$&@&X%7:;,+8+154@@:+%@#4o&$%,58%&%:,154#&&+&&$$oX111=:1,158#11;11,+6,@:=@##11*53+11=6=O=*#,:,55",
",5$#,,5>4#%==:&+=$#=+5,*5115,$==:&&&&.;8&%%#4%113+@,X%@#6o%#*>18@@*1,564$=@+@&&@@+11,;>51,57%11;1,,+5,+,=@@#1,+51#,1,6:+3##,:;51",
"#6%*,,5:4$+===$+4$@& 5:%511*6@===:%==o#8%@@X1%112@+3X%##6+&+*119+@;,115,&=@++$@+++14::,151>8@11>6,:o4:+,=$$%5=+<8#%1182@6o#,;>51",
"#6#=1>1,6$#@==$#9$$$+1;#51,@,&,====$=X&8@@@X:&11:$+3o=++8+&@*1,6@#:1157,$=@OO$$O@@;5>:,151;6#11,6,:o4:+,=o#=6=$%7&+,77;%8@&:&;63",
"o5%,51118&#O=&+#6:@+:3=#5>#,*,:,:&&&2X%4@&@&&=11:&@3o=@%9@%#=1:,%%>5,75:&&o$&@2o$+#1,11176%1%,,16,=+,:+:=+@=5&=o;: ,57*:,%;:=;53",
"o6#;5,>58&&o=$++4,oo61=#4o=1=1,,;=&&=@&3+&&@@;113$+3+=@;8#&%:1:&&%1,118:&&X:=o4+&@@;117>58o1%1>77:&#,:#,@=#;6#&$+2+>57&:&#,:;;8:",
"+5#,5,,56&&o###.5:oo5,=o,#,1,5,,&=&#:o,:+=$$X;154&@:@=#,8+==*6:$&;1*7;8:&$o4:+9o&#:o,*>154X:*::16=$=3=+:$&#:6+&2+,%%18@,%#1:::8&",
".5#,1:,16$$O@$++4,Oo1,=@%#1:,5,1&=@@:+1=@:@$+%711=@,$=.56#&%;6=o*:6%5%5:&$o1,o9X=&-&;+%51=#%>,115=#:2=O=#=&:6+&=%5:@;1+3#%1,:16&",
".5%51;;16,O+#=o$6:oo:3==o%1,,1=6&&@+:X4=#:$$o#5742#,$: 76+#==8=O&:6%1#1:&@X,&X4o&&:&#X*1,$##%,514&#,,=o=&,#,1#&:&14&@$%6&=11:1,$",
"o1%5,=*562O#&&o=6=Oo=,&&#@,7*,:,&:@+=#1&@:&#++>71,@:&= 19@#=:1=+*:6#,+1:2&@&@+,+=&:&@+%,=+&#%:51,%%6:$o==,%:4+*,:;1,&$=1:,,1,62+",
"o,*6:=:153@+=&+=1:OO*,&=+#>1&:;,@1&@=+8&+=&#+o>14,&:&, 16+#:,;=+%,6#:o:,=&&&@+&+:;,&&+&;&@&+%,71,++8:#o=,5#:5o=,6=#,,=6#,1;1182O",
"*,#7,**113=#$=o=42o+=,@:&+:,%=&,@43@:.8-+==$@+%111&:&&X58O+,,&=$%,8#=#;,=:&==$@%=&4:@@=%&$&+;:11:O.6:&X=>6#:6X,,5:=*>,1&11#117:&",
",:+7,%*,,6##&=o:13@o32$==@:4+&&3.11:& 6,o%&$@#+,8,&&=$.56++,4+=$%,8%&+;,:===&=@&::4&%&&$+&;@#:11=@X5&:O&;9@:9o=4;4,,o:&,,=o,57,1",
"6=+7=$*,,6@$$=o*11&#5,+==%:,#&*;+174=X7:@$$@@+.<8,=&=&X58@+,4o==*18%&+=1:&=:&:@=,,4:@&&#$&=@#,,,=$o4=2+%*8+,5+:6#,1,::,1&&+;1111",
"1=o6,$*:,6#$%=+:1,::1&+;=#=4&#&&%,183+8=2@&@+@+16,=$=2X15=o,4#:&*56&&o:4=&==&:%;,,3=&&@@@::@@;13$&$6%,+#%5%5:&;8@;%%;,4$&&$;1111",
"4&o53$=:,4$+#=#:5,,5,$#&=#:,=@$%:,756#5;44+3@+X16,:$%1+56++=6o:&*56#=X,,=%&:=;%%,,,2&@&@&,=@#;3:#%,4%4@+%8.8&*,8%&&==&::;:&;111>",
"3$o5,=#:,3=+#=+;1;18:&#&:=:,3+@#1,718%7%15%8+@+11::=#7#56O+=6+;:,56$=o,,&&#:&:%#1:,,&+&%&:=+&&:2$#11%3+&#8#7=*;8%==,,11,:=%:7,,:",
",#+5,=#*,,=O#=#:;;,82$##::=:6@#%7,<57:5+;6%8+@+<,:,%+5=56@+*9o::,56#-#5==$@;&&&#,,,,=@$&=3&@&&1:@#75=:+=#7%7==,8&;:,1514:&@71,1;",
",#*1,=+=,6,O@#*,%%,6,&&%:=%*6:+%11><1::+ 8#8+&+1,:,%+5:14+#;8o;:>56#==6=#$#&@#&#>,:3&&##;:&+&;::#%14=%@3%7#1:::6:::,1754:#:11,,;",
":O,1,&%*,13+$&#,+#:5:$&#::%;,6@;6:**,=$@+5+8+@@1::3&+5,>6&X:6o:;156%::6=$+$&+#%#:,:1=++%,,##=,,2o#%5,o+,%,#1,=:71;;,1515;%71:::=",
"=#,5:-o%,5,@@&#4@o>,3&&$,2&=;8#:6$##=$@%=:+8o+#1,;2%+11:6&o:3+&:,5,*1,4=@++&+@@@*:,4-o@%::O#==,,$&o*8$+,$&%5*=>55:;,1111=,11=:;=",
"&%1,,:o#:5:$$&+3+o*:,:&%,,=&;8#;8$$O=o=$=$+5++#51:2$#11:8&#,,+&;,51&6,6&@o@$@&$+=:=5=o#&=:$#*,,,&=&o1=o:$#%5%:,16;=,,,1,*11,==%=",
"#,15:&o#:9:$&&o,$o%%3;&*:1=&,8o;5$$$=O=#=$#,o+#51;1&#;1>5&o1:@&%,51=553=@@@+&&$+*:=6=@+&:2##==:1=:2$@3+&@#:%=,,56,=:,,,,%51:=&&&",
".556,=X=:5;&$&#=$++#1:==,5:%13o;:&&#&o&$$&&2O+X71:3&;%%1:@+6&$%%,5,:171&@$&o=:@#:=*6=O$&=:@$*::,::,=X1&O@%,o;1158,=:::::=1,::&&3",
"o151-$o&:5=&&&o&$@+X6:;:,,,%8;##&=$&&+&=&=$=+@X51:1&&@+5&o&6&%@*>1,115,=$$=o;,+&%==1=+&#=;$$=,*1,,2- 4=$o&4+,1515,=:::;:,4,::+,4",
".15,:&o%,1:&&&O@&&@X7::,,5,*8$@O&$&$:@=$&=%=O@ 5,:,:&&@;=&=6&&@*>11516:;$%:o%:@@%=*5=O$#==$%*:=,:,3:X6&$+;4*,>1>1,:&=:;*51,::@14",
".151==o=::3$=$Oo@&&+,,,,5,,=6$$++=$&&o=+=&#=@@X53;1:@:&&1=:9X:#&,155,6:&$+2$+:@@===,&#$$===$*,:::,,:+6=$%:5%7%,*1,=,===%5,1:;&16",
".51,==+=,:1#=$@o##+#>,,1511:6=$@@&$%$#&+=$$&@@.51;,=$,;,;314X=$%,155,1*=$+=$+&&&%=&,&@$#,==&=:*,*:1:+1:$%5%:1#,&:::1:3&>1,1:;%56",
"X55,==X===6+&&+@#@@%%,55;51;54$=$$$$&+&+:#&#$O 6,=,2$::8X153o&&&>11,,1&&$o=&$&%=&&=:=@#===$&%=%:=:4,#1,@&,#5==,=:;*511:11,,::=19",
"+61,==+=:*9+$&@$++@+#117+55=18$2=&@$&$&$$#$O$$ 51%;=#>:8+<54&&%&:11,,3=&O@=&@=+$=%=,$#&&:==&%=#:%:1,:%3&4+=,==,::&;15555,,,::*56",
".5,:::o==%9O$&$@@@+#+5,9.>5:,6=13#$=$+&#$@=O=O 53$&&%,>9X:14&&&&,,1;::$&+:&&+:+$#&::$#%===$&#=+:*:561#1=6#1%,,,,:=;511,7,,,,:*59",
" 51:,&o%=#9+#&@+@@$@+5*7o;5;>5:,,$+=#@$#=$=O=@O5,+&&#,:8@:114&%;,,,:;&=$+1%$O=O=o=:==$=$==&&+=+=%,,17;%,;&5%,,1,:=;111,71:1:,%18",
" 51,3=o&*#8+$&@++=@&.8#1o#8:,5:;,&O$@@$$$=$#3o+5:@$@#1:8;,118%&%,,,=&&+&+8$$$$==+$2=#&#==:&&+%@&%1=1=4+,o1%=1111:=:1,:>,:1:,,#74",
" 51,3&O&=+9 &=@#@&+& 6+:#.5:11:%=$+$$$#+:$O*6o$1&@&+%>;8;1,78@%&,;:&&@o= 1&#===&$#:=+=$#==&$o@#=%6&;+1:&=,%;,,1,,*:1,:>,:,:,,&1:",
" >5,6$#&&+9+$=@$$=$@o4+:#+,,5,#+$$+$$=##&&+%6#=2@:=@+:;111;18#%%,&,$$@o=o,=o43===#:=@#=#=&=$@@+&%5&&X;:;1+#:,;>,=#,1,&;::,&;,&;#",
"+%114&+%&+9O&&$@#=$@o5o=@#*16*@Oo$@$$=##$&o:8+,,+3=&+=*17,*54&+$:%&&@@O&+3@+15:::@,&$&@$&&&+=&&$%:4@$X%:@&=&=:==%=1,:===:,$=,=@$",
"&+>11&&#=+9+$&&$+=$$#2o@=$#,8O@$+$@#=2@o#&o:8+1:o6:=+=%11,%16$+%:&&@+;&=+2+%15,,3o:&=&+&&&&@&1&$#=8&$&:&=:&&$14&&,5,=$=%=%=%==$=",
"&+%54&=@=o8+$%#$@:&&%=@+$=o53#=@@$&#%3$o+=o,8#9& 5,2o=*51,#,4$+%;&&$o,,3X,@%11,66o:&$:@$%&&+*6:@+%:3$::,,,+1,%%>115,=#,$&+6%=:==",
"=##64==@%+9$$@@+$=&&==@O==.5,#=@$$=##6$O+#.,8%6$X5,1o=;54;#16++&&@@@#558&3%%15159@:$$&+&@&&&=82O$+%8&&::,,#,=$&$;;1=:+3@=+8+:=&,",
"&#%54==@=X8%&@$#+==&=$+#=:o6##=#&#=##6$O+@o17%6##11,+*1,4:@16@@$&&@$#,18;1##,<718#:$$&+=@&&#116+,&+4@%;::===o51,@#,&=o1==&9+::=:",
"=@*51:=@=#6$$@&@+====$#$:=o,O$=O#$$$#9$O++o55%6+*1,,%*1%5,%14=&$$O=&;,11;8@+%77<9o:$$&o&@*#%7,5=16X4&#&,:%9+:,%:,+==++,,*;6+=,=,",
"=#%5,:&@2X1=@&+$+*===O@=:,$=O=$@O$&$*6-o@o+51%1+:5,,#*5#5,%143$$@+:%1:11*8#%#5518+:=@=@=@%#*1>,1,4+,3@%=&&3o5:$#1:&&@+,5==,+:,,,",
":#%511&@:X12$o$$O*:==$+&:==@#==O@$+,:6,#@$#51&,#153=#;8+;5:514@$++4:5:15%9#++7511+2$#$$=#%%11,>,%;&=6#%=%=&,4#2o%8#$&o>8%:$#,163",
",&#51,$$=o,3&O@&+&:==&+=,2$O$=$#:=*5152@$$#5,=,#613&+*8++;,177+$o%51,:56#8+$+,55%@,=+&+&+%+4,,==#%,*9O@=.6+5,+9$#4##$.,8==+#1115",
",$#5,,$$@o,,$+$$+&,==+#&=5=O#=##1115155==%#5,,=*114@+:6@$.1,19+&#155,;58#8+&X;,8@#:&+=@&+@.1::=&+#6%8=$$o6.1,.54o:=O= ,8=&#%51*5",
",##5,4$%=o=6$O#=O=:==@O*,,=O##O=5551555&:$*6=,,=%5,o#3;$& 1,58#;=117:;77#7%$+#;8o@2&o$o=@$+1==&&#+7%532@=6+,=+1,o%4O=O,5&+&*7:%5",
"2$%513&+=#*8$o#=+=,==##=:3=@OO=1155<556*,#,6#*5,X5:o&6o&=o>578#%,517:;58.,$@%+#1@==$@$o&&+%,:&$$$#5*,61=6=,=#%1:&+8$=X:6$o=*7:#7",
":%*51,=$=o=8OO$&X%,&2+&=,3=Oo,15115,556&=#:8+%55===+=5#$=@%158+%5715,:11&+&%=@o=+::&$$o&&@%::&$#=o6=,1515#6$O=6#,o1=-o;6+o*;5:#5",
":#;154&@=o#9O$@=o*,&=+#=,,,O#555151<558$:O;9+#*5,+%#1,$==#%118+*17<1,,:%=$:=,$@&&&=@&=$&@@=;:@$+#+6%,,<5,o6++*6#4o,,=o#,Oo:,6:=5",
":+:153&&=#*9O=+=o====$#:,,=#*555<5,<556+=.;9o$+,3O##4#&==%*,19.;551114=o:=:,4=$$&::+&:@&+%&:&O++#+6%*,15:#5+o%6#6o=,=O#=#O:16*:1",
":@:15,&&#&%8$=$=+&===O#,,5,+;55557*5556o#o=8O#+*4#&+9o=::%%118+1<51,,4=o:==164&o&&=@=3$$+@::$&@%#+8%*;1,=#6+o+8%6+=6=O#@$+:,5=5,"
};
