/* XPM */
static char *result[] = {
/* columns rows colors chars-per-pixel */
"128 128 30 1 ",
"  c #BF9D7B",
". c #BFA17E",
"X c #C19E7B",
"o c #C4A27E",
"O c #C8A47F",
"+ c #BFA280",
"@ c #C5A582",
"# c #C8A682",
"$ c #C6A985",
"% c #C9AA86",
"& c #C6AD8A",
"* c #C9AE8A",
"= c #D0AF8A",
"- c #C7B18E",
"; c #CAB28E",
": c #D0B48E",
"> c #C7B491",
", c #CBB592",
"< c #C7B996",
"1 c #CCB996",
"2 c #C7BA98",
"3 c #CDBD9A",
"4 c #D0B691",
"5 c #D0BB96",
"6 c #D1BE9A",
"7 c #CEC19D",
"8 c #D1C29E",
"9 c #CFC3A0",
"0 c #D2C5A1",
"q c #D5C8A3",
/* pixels */
"11+71,<773273736*%;+0%#;$,8O;$*@>13;;;;;%,;$71-3<7231;;%@**;%O$o733;><<,<28@*O##%#*&$1&1%%@;#@;;27331,0%*,314o6,o7*,$>73q@1,*;1*",
"1;o91,,773717738**1 qo;#$11o;O*$-13;,;,%$,$*<,&3<0-76,**@&;;O*@$23&3*#;#*,8O%%%%#;;O%,*1;%%O*$;-37331,0@>>31,@3,$8;;$27<q%1,,*;&",
";*o71112733<7778%;:X8O1%@7;o;#*;$13>1;1$#;.7,;&<10$984;%o%*;#%@*6*$1*;3;*$,#%*;%%;*@%,-,;%;@&*;>37231,qo*111,$6;$6*;+3810;<>,;;*",
"1%@3113<83312777;&1O,;;;&0o@;$$;@71,115O$;X8;;$,10$374**#%%*#%@,q@**;18;;$;%*;*;;;;%$,;,%@%#o;,,3777110@&111;$6;@6*;@33<711$6;>;",
";%o2336,771<2277,;5%%;1$;5#@;%%;@71,318O#%$3;#$;18&771;#%%$;%%O<0@,$,18,,@*$;;;;;,;#$,;*%##%O&,,77771,0%$<13;@8:@3>;X6<337>$8,*%",
";@@<337<79331>78,,6:O-6$;;#@;%;;.>71716#$%;5,$;&13,376;%$%$;%@@30&,$<30,;#@*;1,;;1;%&,%**o%#o;1<77171<8-%<,3;$8;$1**$0<779;$73;@",
",#X,773,3333*$38,185$&0@;*%%,**%#@718,<:O@<3;#;&<23276;*%O$,%$O28$1$337,;%o;,31;;,1%@,*%*#O#$-;,7772110%$,1,;@8;@3**$0>73q*@36;O",
"*Oo,3<;<2178$&<723<8;@8$;*%*;;**;+>79;,6;o33;*%*1,9185,%%o$;&%$33*5$133;;%o;,61;;4,##,@%$:o;$*,<27771,8$$,,1,+8,@3**>3$73q;@,q#@",
";Oo;3;$,<,30#X,778>7;&7%,**;,;4$4#@77>-78 33;**$1-3<71,%#O%;%$&17%3%33,;*O@,<831,4,@%,@*o5@31&>172731,0%$,,<;@7,@6,&,3$339:@>6#@",
"%O@&1*o,,,>q@@-727-03o1;6o;,,,1%5*o>3;-3qX63*;>$1;3161,%O%@,%$;<1%;-;3;%%X$,1811,,4@#*#1 0;76&&177333,8*$,,,,@81$11%1<&1991@;3:#",
"#@$&;%X,,,$2@@-778@71o,;8@;3115;3;%&,,,38X33;;;$3&3311:%O;o%*o1<7$1$,3;#%#*13331,;;#@%*0$3330*$17333316;@;,,;$81&8,;3;@<996o%>6%",
"%@%%%$X,;;@,$$+778@71O--q#17331,61;$&,<11X36*,*$,*<311;;o;%%@o,37@1@;3;#%%*<6>611,;@%$,0;2820*$<3<333161O;,,1@8,&31;<;$&926@$*q*",
";O*#@#o-,*##%#@336$34*&,<-<73731331#$35,;o<6*1*%,%13,1;1o,,*#O,78$;%;3;$*$-17&911;;O$&33,<330%$,83273,35$-,,1@31&331;;%&816*$&3,",
"4o*#%#O%,%#o*#$31,$13%%,,&3,,<37<36%@36;%@,3;,*$,*13,1$8o55;O@,78$1$-6;#%@-30$231,:o*+9333330*&,8<133<16;%;>;&31;>78*;*&911,@&1,",
"8O*#$#@-*o%o*%o5,;&<4;&5$;8;&&<3@36;X30;o$&3*1*@,&33,5o0o13;@@<78$1#-3;@;@&27@>31;;@,@7373330*&,7<336<33;$;;;&,5,&<8,1>*3114@%;>",
"8O4##*#O###o%%$<;&*,3,;7@,3*@@-;X<0>$16;o;@3*1*@,*31>;o0$31%$$178*;%;51%;O$33@@85*,@,+7723330>$,8,333,355@;;;$<11*>316;,1<31%&*,",
"q*,#%=###*#O%%#*;O@@1<8%&3,%%#OO#$3,*>1%#*@6*1*@1*31>*@9*3>#$&,38$,$-33**#*8;O@7<;;@5o73,<<,7-$<7>33<,311@*;;$,1,%>,13,>3*<1;%*,",
"64,*$*##O****$#*$OO@;*3%;7$%%%#%*X>5$;*@%;X3*,;@1*3,;$+338##;&,38%,%,21;;%&0%o@71;*$5X73;*;;6$*,8-771,335@&&;$,1,*>*17,3,&,,;*%<",
"36,%$*@*o%*5*@#,@#@-;=;,8%#%;**;*%$6*#*#$4X6*1;X,;3;,# 330o%$&-<8%,$,15;,*,6#@o76**$3@28,*;%1$*<0-371,615o%**o1,,>;%3613>%*&,*$3",
"196%#,#*#&60%%X:@@$*1<1<3O;;;*;;,* 8;*%%*;X3;4*@,-3;;#$33q$#*$&>q%1%,13;1*,5## 75$;%5;305%;;;@&,7-771,31,#%%;o,1,**&3333%1%$,$$3",
"<03%#,%X*$33,5@4O#%-7-1;$&;,,;,,5;X3,;;@*,@3>;*@,>5;,#X130@@**&,9%1%&21,,*3,%# 71$,;8,<38&3;$@-,8-201131;*%;;X1,,%;$3330*1*@6#$3",
"<63*#**#,$3>30@,%$;1;@;%*%;,1,1414@;5%*@,*o7>;*$,>1,4%@363##%&;,8%4;@-,%,,15#*X75@<,733<0-8*@@,<8&7711115#%$*X1,5%$$9233*,;@6@&2",
",64*$*$$,$1&30@1*@&6$$;;%$&<1,333,%$6;%@%*o9,*;%*,11,%X30%*#;%,10--8$%&$>>35%@$31o37371,7;q;O@,,7$283331,*;@# 3,1%#$,,33;,*@6$$<",
",31*%*#@,$3&38$,4o$8O$;;%$&,3,336,;X8*#O%$$0,;:@*1116#X30@,#,&,281%8;$$o;,16#@*6, 77373,3,8;@@,,8&7733114%@%OX7,,%%$&<97;,,@6##,",
"13,%**#$>*3*10%,5o$6%#**$%$>>>133,;X8;o:#O;71,*$>,,18*@1<%,,5%>738$,qO#o*<<8#*114.77171-,17,%@,<8&77232<5%O%# 81>*%%@-19,;:O,%$;",
",3,**,o#**1*,3;>6%@1##**#%:,*$,13;;X8*@8%1<91,*&1,,30**&&*1,1*,7,73-14#$%,,8;331;o77171,,13;*$,,7-3773115*o%% 81;%*%@>>914;*$%&&",
",3,&,*@#**3;,8,,84@,4#%;%133*%-<,;%.q%&3337741*&,,131,5#o*716&,7;78;-35#$>;1334,%@2717<;11;;$;118-7773613;OO#.73;%$;@-@9114;*%%-",
",3$**,@%*>1;>2338qo&8,;13<&>,0%&;%*@8$,<8<785,*;>,30&36**<328&>9,38-$816o;&,1>1;*$-7,81;5<&%%&1,8-7773315;#O%@81:%@%$$.7111,*%&$",
",6o>*4o*@>3;,1773qo@<3336*%*&,;4=#1;7@6<7,3711;;,,36$33;;3$30$><<78%&7775$*>1;,;;;$3<3;,8;O*%-1<9,9383333;*O$&8,;*#%*#X3136;*;O$",
",8o*,4$%@11,>12730#X,<7<1#19;@<,<,,73@8,3,3711;;<,9>>>$>3*X18*&-<70$%272q#&*,;4;;;%<33133O&;%;133<377<773;%#$;8,*%@%#@$,138,;*%@",
"*q@;;,X*@13<,<<736;#;>3;$3<,8***:*&<1o7<7,7311;,3,q@4%*#%%@-1;$$338$&7710;@&1>,;%-&<5,,8$%%;&,<3<33371376;;%%-8;*#@%##@&338,;$;@",
";6%,,4O%$611,,,611,,**,*$3;>&0%,<8#;,o3>7,7711>,3,6o1,,115;@,*%o77,%@7720$#$1,1;&%&,7,>8O%;,-;17,73723178*;*-;8,*@#%$%%$33<6,%$@",
"$q@,,,#%$711,,;8,,38&$;%,1%*$;2,>,6$;$3<7,3811;13,5&33&><7,%*;;o,8-%%7737@-%1,,:%$$,6>11@;,1;110-72827<87*%;$,7;%OO%$$;o77&7<;O%",
"&0$,1,O*$0<,>,-7,>3q#$$18;O,4$>$$$8$#;3,712731,<31,$81##@3,%$;,@-8$;-1171@%%11;1%$$36*14@,,1;<28&77737,37*;%%17;%OO$-%;O17.78;$;",
"$0*,14@*$9<,;,;7;-385%%83*@334%*$#14@<3,313331,1361+0$%;@,1*o;5@$0$;>331*#;;11;;@$$26;1,@,11,,36-77718,73*;%-31;#O$$%%,%>,@-8,%*",
"-9;314o;@91;-,-8;,328,,36$-8;3;3,1&6;36<313<31,3<8<$q@**o,4;X18%$7$-;74*$,%;3;;*%o@76>1:@<133,33-92727>71;;$-73=OO;*%-;%-;$@,5;,",
",3;331#;;8>;$1>8,1331736;@>6$&3-30&2737,713>8,,6<01$q##*@;,:o36%@3%->73%o;;-1,;%%$$76;1,@1316<73-92778,7-,;-;81;O%17;$;%###@@7,1",
"3>,235@,,q;*$,,<1373118;*o,6$$,$,3,,828<7<8;7<,3,75$q#@%@1,:o36%.3&$,17;O-,;11;%%%133*11@3718,83,71737>8;,;%,81;$-777O;%#@%@$<33",
"7&,36,$<30;;$,8$27731<6>%@15$$*@-3,,3181737>81,3133@0*O#o1,1@77OX5;O--8;$%,;34*%@$333*1*$773<<77>73137;8%,;;171%%3118O;#%O%#;@>2",
"&*178,@170;;-,8X-<731>6%$&16#$@#$32,7<9<713,8<,3138$65;o&71,@<8oO7;1&&71O-3135;$$;933&8$-728,<77175<37-7--,,77,$-7,>8%;#$%%%;%#$",
"#;7175 379,;,36O$<23,;6%@&,6##@$$1,>739,93318<13170$<76$381,*@8#o7;7%o3;%*33374#X,713&q@;3,8;<77277,17&7*,,,77;o13,,q@**%X*$,;;:",
",<7-<<@9771137;%@331,&6*@%<6##$*$31;729>71<38,3117q@<20;7365:X8*@77>4$,4$;71+71%@191,&0@31373,37778,31*1O>11774o831;qo*O%@$$<411",
"17,$;,$337223;@%@7,1,*3*@$16*X**&11-729,77,37,<3270@,<3328118o8;@77$8*,3X>8*+11*@193>&0@<2777<37778111,1$>7117;.711>8o;O##@*;336",
"37%o$6$,>270*O@$$8>1>*6*$$36=#**&31-717,33-27,11370$,,<8<3336@8;-<0%37$8o,8#@-6%&>21*&0;-<<11123777<31-1$-77774.01<;q#*O#*#*&277",
"15O@X6;;o>78o#$%$3*,*&3*@*364#**$36&7<8-27&73,11330-;&,313733&31-<8-,0@0#>8#@*6,%&>5*&39%,%,,,,3777,17%>o>7771;@71118#;#o%**@270",
"1,## 71*@&18@%#$*6$>>$4%X>374*$;-<8$336;17&91<,<73q@;&-3117281-3;>8-;qo7,>q*X>3,,#>1*&30#;$-&,<3217,,1%%@,7771-%3<118#%#o*%*@277",
"5,#% 93*%@,8@%*@*6$*;@,#$-196%#,*<8@273;<8&7111<37q@;$;1<17-75$7;%8;>8$>3>q%O$8*,X>6$$33;;4%$-,<2777,4%@$-7717-$3<338%*#o;;;O<17",
"6>#@@76;%@,q@%;%,6X**@,@&$,95%+3;,1$,73;,8;831,173q@*$*<133%,3&7,-8,-7%-0&0*,*6*4o13@&31730%$&,<1717;,;O$-7711;-1,376*%#X;5;$,<2",
"8;#%X83,%X,qo*;$,5 -;@;*#@>36;X4*,;7*31,<7;921,2730#%$*;<61%&8-8,%7,>0%-7-81;;8*;o75O-71<71,@&,,<178;;;O&&337,;>3,283%%%o;0;3%>>",
"55@* 31;#X<qo%*@,5O$,@;:@o>,q*X,;;&8&231&7;7171193q#$%$<38;;@7-23-9,-0@><-31138%;o77O;71,717O%-,,<78*;;o&%1333-;3;775-;%.,7-8$&&",
";qO#X8,;o@78##;o-6%%1%;;#o&-0*$>1,*9%113&71177<172q;#@**18*;&,;>3-7,-8@;1-<7773%;.78%>77,,;8%%;;,,78;;;O$@1331%,3-7<1%;%o<338O$$",
">0#$@34*%;7q*%;$$8%;1%,4%$@$8;X1,,;9$13,*27277133791$@$;<q$;&;;&3-7,,,o;;%17331;%.<7-1711,&73O-;;,38;1;$$@1311*<7,8,;=;#o;,38;%o",
"$8%o$3;$,128;#;#@8;*5;,1*%%@8,@,,1;8$;7<*19777777785@%#;1q@;*$1@7;1,7%O;,&,7331#%O-&17-71;$,8O%-,>20;,;%%.113;;,3;8-;;;O%,<7154O",
"$8#&*1* 7738;#;*$11*3;<5*%*$1,$,,1<8$,11*<7777227288#;$;<q#;*$5X7;,18O$;;*<311,%%%%o>2o74&$-3;$;;>10;;;%;o3731$,7;8%%&;$@<,71<1o",
"$8%%,1%X2717;***$<1;3,11**,&,1$,1110@,1,*<77<7<&712q*1&*<8,*$,1X3;%78$$,,@<611;%#;;4%%X3,$$$-8#-;,19;;-%%@713;%<<;0@$-4%@,,78;,O",
"&3**61o%,3,8;*;*&,3;3;;1*;,*&5&,11<0@111*<17>9*@73371q$&,36:#31@7*&78;$,*$,13,;#-4155%o3*OO$$8%%->171;;%&o713;&11;qO$%1%%>,78$;%",
"*8@>8;@1,3,3,;*;@,3>1;;,*;,;@6&,1<10$<11;;79-0%+23237q$&1>,133&*3*&33%%1%$>1,,*%;,378;@3*#%%$8;&;,>73;;$*@736;$3,-q@%;5@--7<8#$;",
"-0@,8;&0;<;3;1;*@<6;,;;;;*,;&3;,7179#,1,,;19&q$$171138@*,$;>**&<1*;1$*;4%$>1,;,%,<7<81@5*$%$@81%-,>78%%%#@728;%5,-q%%14@&@7;;;o;",
"&0@<8$,7;1,6>1*;@,7,,;*,,;1;$3*17176$<1;1,19$q@$,7<118%*,#3*==@71$;3$;*6%$*1,$,#>73;35O3;o;%$25%%,>7q%*%%$333;$3,,8&&,5#$o<;o;@1",
",0$18$33&<,8&,**$-7,1;,,4,5;$7;27<85%<1&1<19$0$@;3,138,#$3,<<3>0;,*4+1*11#&1;$;$,33,33@7;#$;$36%@>,2q;%;*@<36;o<1,0$;;5%%o;;#4*1",
"<qo<6$83;;11*;**$&7,3;1,331;*6,37<91$;1*1;19*q@$&71,<65%@3*$->37*1;4@>>14$$,*$%$><3381@6:%#%@38*o;,<8;;*;@,36;X,330$,,3*OO@;;3;<",
"38@13+71--6;%*%*&@8,3,31331,;3<71184$;3$1;19>q#$$73,,30**6%%%$16@3;1$*,10##,%%@$;>773,$1;*o%$38%o;,<8;;;*@;26,o>730$;11;;O*;;713",
"65X36o31;;8;$;%;;@7,8,377<1,,3133181&;1$1;77<8*#&26,333>8,;56@,4@1,5$1>,q@#,@4##&-331,o6;*#%&<q%o-,<8;;;;@;33,@>77q$-351$%;,1233",
"3, 16X7,;-71*>%*; 7<7<728&1,>7331281*&1$1<3310@*&<333<333-3371,;+111#>,,0@#*X6,5*$11,%*,;;@**<8;o&;,81;;;$-36;@>378&;381%&;17&32",
"1%.15X31;,7*;;$*> 93113,3X11>7711,63$*,$113330$@>>9131237@7371;:X116$;;<8#;$$396*$,>*@6*%1$%;,8;##,>61;;;$&36,@,298$>776;;,21$;-",
";#.,1$8<11,#;;$;; 93,93*;X31>7933,03*%,$1<3330#$$&2383373@818;,,+,16$;;<6#5$;12q#$,**+0**,$*,>0;$$;>31**;%&38;$,397$>7273;7,$;%%",
"$%o;4o7,18*o,,#*,X37396$*X31>393110,,%1$1,7<3q%%$$<333<73@7<8$,:@>,8$;*<1*8$,<3q%#**@*6%1%$*<185#$>>31;;;&&33;$>773%,7>137;O$=$$",
"##o-3%11<q*%;;*;;o2333q#%X33,373238>**1$1>711q#%$$$318,01@8<0o;,@*&0%,&11<8,1,30,5%%X16>*%#>,134%$*;6>**,%$76*>*37,;>8-,;;$%;;$O",
"%$#;1;,330*$;,**;@,<330%@+63<<36,70***,*1,6110%##$@,,7<31;71q@,,$%@q$;$1,32,8>2036%#@36;**%>,13,*@>&6**;;%$76-;@771%,8$;&o&;;;$O",
":$;;<&<338*o;,%*;#;,338%oX96,,33<20$,%1%>>3,10#$%#X>-716;<02q@;,*$+0**$,<8<17;2720*=$36*,%*>1111;@;$6$*&,*X73;,$28>@<8#;%o%;;4O*",
"5-36,&3118;%>,$*;$&,338%@X28,-17,>0@1*3*,,3,18#@*%@*-<18&<738%,,;%X0&;$,,6,73>33,8,1&73,***&11,14o*$8@;*;: 16;;@<0;%,7%1:OO--4O,",
"7;77;@8<,8,%$1%**$@>338%O$<81+30,;,$1*6*,<3110#@>*%$;&38&3776*,;;%X8*$*<13&71*1<>336<76;;,%;,,>36O%$6@&*;1o,3;;@,8;%,3;6:8%;=$-7",
"<7<8;o7,>91,%;@$;%X,7-0@$$,83X37,,$>3161<33,10#$,%%%*@30>3913$>,$$ 0*$;-11*7,*<,>,33991,;--;,,>38%%@6@$;1;$;3;;%-8%&-1177<<<7>>,",
"&3,1#%7,&8,3%;@%;#o3,$8$$$<3,X3111*,33313163,0#@;**#%X33+79>8$***$ 0*@;-,1*7,%;;$,33271,,;%;>,-7q*#@6#%;;;$$7;**,7%;>>717&;=;O*-",
"@3-1.37,&7,5@4o%;#@8*o3%#*-04X,31,,,39,27>9310@X,%*O%X96+77$8$*%*%X0*$**;<,3,*,*$1,3<1>,,;$;;,&785#@3%&;1;$@6;*;;3-&,,7-:O<<>-8O",
"#,%; 18,$818o;O%;*o7*@;*$>&61@;311,3<9&$3+711q#@***#o@31$71$qX,##*X0*@**-;-3;;,%$1,3&,&>3;%*;,-736@$6#&&5;*.3;*,;3%;,-1$@71%;*%8",
"8;o;O,7,&7<qO;O@;*$,#%;;$*$91@&3,3,3&0%+3@3330$#:*%*@@3>@7,@8O*%X*+6*#*%$;$1;;1%@1<4&;-,3;%;;,;33q%$3%@&3;%o3;$,,1$-;-4O4;,&78O7",
"8%OO;-71%738%3O$;;##*;o;$,&04$&3<3>7&0*X,$3330@*;**%o@8*$9&&6%*##%#6%$%*$*$,*;,*$1;1*;*;;1%*>,>330%@5%$*34%o8;@174%$4*-,7$&717$>",
"8$$%7-3;%278;8#$;,%O;;%,%1@31#&936&7&04@,@3316#**%**oX8*@3$;5**O*$$6#$*%@*@***1*&3,,*,;;;1%&,1,73q%$3*@*34;o8;@174%$,*o77o71,1&>",
"qO-;8;3;#<28,8@$;4*#*;%1&,@01#$0<8$3,04#*@<330$%;**%#@8,@;$5,,;o;#@6*#*+$*@%$*,;;6,1;5;311%-*<,2<0;$5;@;11;o8;$<8;$;&,o3;;1>,4;-",
"q$$,9;1;&-1278%@>,;#;,*1*4@94$>310$,393*;o,318%%*;**#@1,#@$8*1;$4@&6@$*#@;##%;,;18<318;111;;*,,1385X6*@;5,&$0;$18;%**%@1-8,<;1;%",
"qO$1117*$-->78@O%3;%*,*1&3$7,$13,q@<3993;%13<8%**;**@**5%#$8*15X6#%6%#%#O;;@%-3<<33337;711;;-,11196@6,@;11>@8,$<0,#;%$@,&8;3,1*&",
"8;@2&33;$%-;78Oo$3***,&3*1$3,o33,qX,3393,*3318#*;***%*$1*$$0&33o6@,3*%*%X14o$;717-127>,716*,,>11198@3,@,13,@0;@<74$;%@&,&7,113-&",
"q%@8o78%%$&;78%o%1*$&*$1&,$3>@33>qX>3629;131,8$;;%*%**@3*$-0$<q@6%,34@*%@15o$,<7;$---@3<36*11>1329qX35o>11,@8;@,85#1#o;;-7,7,8$&",
"8;@8.78%;$&,1q;o$1*%#%%,*1@3*$33>0@&<319,371,0$&,**%*%*1$$&0$<q+7,336o%% <5o-7&1%*%#% 7&31,13;<1199$15o>311#6,@,77@,%o*;;<>9,8$;",
"8$$0@78%;;%1204%#1%%4,$1%>$1*$13*6#&3310>783-0$*;*%*%$6;%$&0*<q+71836#*%o,5@&8O$*;;#*o1@38,<<,13193 15o,131$34$,78O1Oo-1,-1,<0o;",
"8#%7-38;*;&3385;&,$&6,$***$>*$33>6%&,323,373;0***,%;$$8$%@&3;1q$77318@*#$;;@;q#o;:;*%%&.33,3,,13371o,6X>311$1,*178O;$O%,1@7-61@>",
"8;-71<5;1;;<378;@;$*q;#,%*;*%&33$0$&,733<237>8&$>***$37#%@;,<,0@23318#%%o*$;13%@151;;%$@7811113<38*@;6o1131%,1*<7qO;#$-,3 0$8&&;",
"7;%17,7;,;173286X;@>0*$>%$1$*;11&qo&39<31337,q@$;;*;O36%%$-&3,0$,7,,8%;O#;o;8&*&133;*%;+7911311178@@;6X<315$;1,<78$;O@;11o8o0#$,",
"17$<7;3;11,23788$*@1q*%%*$6$;1,3&6@,<7,7,73>1q@&;;;*@88#%%,.93q$-71<qO;#*OO11o*;376;$;%@2732113186O@;6o,316*-1-<70O;O;,11%,o7$%,",
",8->8,3,51;127384#@301%*%@0@<8131;&333,3,79@3,@*;;;*+93%$*,o770%$833q$;;;$$8$%;,338*%%%@>133333285@@;6o,315;$3;,<8%;@&33,**@1$;,",
",8%,7,8<731737330#>70**;;+0o30,<6$&3611231<@&$$*;;;%@73;$1>$370@@2338$11;;;7o*,8-<6;#$*@-,3,3<7393#$-6@>318;$3;,<8&%o&63,;%*,*-1",
"10@72372717237329,73q**%$@9+77,,5$&39,1931#%##$;;*,%@76;%,,@73q#@>777@21313;#;<8$-8;%O;@&;1,7<730,%$>6@-3131@7;;18o%O&77,,*;**,,",
">8+7-2-7-771<73327720>;*%@0.77,,3*>29,32,;%%%$%;**;;X73,*1,o930$%-1>1-1-;<*%*<8,&@8,*o;%%-1<7<720*@$;8@-336;&3;;,8#%@,771;*;,%,3",
",8.7%*o;@277<7377737,***$$8X03*>6$;30&3$&$%%*%$>*%>1*31,;36o330$;@,%-1%O;%%;;19**o8,%#*%@-11711>q%$$;8@;233,$3,,;8#*$<371;$,,&<3",
",8O1*O%$&>,713173330*&**%X6@36;>6@>10>*##%*%**#**@,373,1;<3$<38$;$;o$7O-4,,5,73*;@71%$;#@&1773,&0;o&&8@-338;$3;1;6%*&3785,%,,;16",
",7%1%O;;#&&727377270@@;*%X6$,8;>8@,<q%@%%,;%**#*%@3333>,,36@>>6@%$;Oo8$,2337<815%*61*O*#$$<776>$8%X*>0@*276;$3-3,6*&-737<4%11;16",
";3;5*%;*;@%<33717178O@***X8%&7,,8$3>8*O$&,***%#%$$33,3*1,38%%%%*$O$O+7%1,738,230;311*#;%@$1778%%1@@*,6$*173;$8;3,3;*-3731<-13>33",
",3,7*&;*;#&&71711711O$;;%X8*$3<17&7@8%*%#,;***##$>31,1*,,28:$##*O$$$@7-7-278,3<,1<;1*%;*@$372q#*%O@&,8@-196,$9<3,6**;33351*13,<0",
"1138%$,;1&$@737<>8;;#@%,%o8;&$18&,*@,;:#$;*;*#;%X31,,>$>,38;#*%**#@%@8%2,727,1,&,&$1%%*;@$22$0X*##@%,3@&,86,$9,3>3*;>3331,*<7116",
"><78$&4,5;#X333,&7*%%@;;%.7;1X20X6#o*,4#@,;;*@**X81,>*#*,38,%;;,*;OO$9$>3237*1**:#O,%*;*%&,*X5o#%@%*,6$&103,$331;3&,,1711,>,91<0",
",778$$1,1:#X,731$<%$*$%,*o7,5$<;@8#@&66*@,***#*;$8,;%*%$<36,*,;1;#%%$0@>7,11$,@3334;%&>;*;%%#*o*%$**,3$;<831&11,;5*,3<8311>,93,9",
"1777o$3,6;@X,7,5@;#$%%%;*o8,5;%@&8*$$98O#>;%%%&,*7>4$%*&188;;1,1;o;5+0o-1-,1@,%3336,%*;,;*%**O@**#$>,6@&<836&<3>;3;>837<5,><3319",
"71,7*$7,8*oo>9,5o-%%%*&,;.8,1:%*,;;;+7qo;;**%;$,13,,@%,$<83;$313%@38@8O%,%;;@&3,<38;%;;14*,**@*$;%&,16$-<761;,7&,3;>8<8,6><13933",
"11,,1o117*Oo;7-6O#o@*%%,; 7135;,6O1*o38@*;%%#,@<171*o%;@193>$1,5#*7qo7*$;@*%;,7,113***,11*,;;#$%*%;>,3$*,731>,8*,3>,338<1>,3137,",
"77,,3o137=O$&7&8%#o**%%;*X8<2<>3;*5;X7qo;**#$;o,191;o%;@198;%<16o178O>8#*O%o12<,,13*;>,5,*,**%$&,%*116@*1973;>7*;3*,338,5;,31<7<",
"77,,7o117;$$-3%qo#OO$@$;%o28**;#%16;@78@@*##o,o;<81*o$&@<731$115 773;&84@4%o78,-,,1*&;,35*,**%%%;*>,,3@><733;,8;>6-<336,3>,31>1&",
">7,,1$171;o$;>-8##%##O@,%$<,*;4,128,.2;@%%*Oo:X,104*O$$$176,@115 2315$18;0#$<8&;,1>%*;331*;*%%$$,;>134@&,773,,3,&8;<396>1*131&,&",
"&7111o171:o$1;$7*#;:*=@*%@;@12<>7-71@,@#**;O%,X,>81%@%@$335;@,11@<3>0@>370%1;7$;;,;$>,3<1***$*%%;,;314@&1373,;7;-7;1193>3*,73#*&",
"o7118o,7;;o@7;$7*;3365o#%%*$8%*@@@9,%@%;;**%;,o;>84#O*X&338*@,<-;,1&0O&222,0-,$;;;5%$,11,;;%$$*$,1;3,6$*2373,&7;&7,2333>3*<61#$%",
".71>8O>1;;O@7;%1;&313qO@%%;,*@,;o 84;o*;,*%$;5@,>0,#@;@$318*o;1@8;3&64@<,,78*,@%;@q#@,1,1**%#@;&;1,,,1@*<373,&3;&3,3331,1$<0,;%$",
".71,17;*=%%@34@,>>1,<8%O$&,6##;:O 8;;o%1;&;O&6@,184%O##$333*o;;@0$3$,8o1-,71;;o&*@<:#&1;,%*##$*;,3,1,6@%,333,&7;$61<<34>1$,0;,%#",
"@86,-&6*5@,@36%&,*3><3;#%$>6@%,;OX6;;@&,;**@*8$3385*@%%$,33%X1*+3$,$,8*-->3,;;o;$,$18&>*,%%#%$;&1,<,,6$&,381,$6;$37<<6,;,&,0$%*#",
"@73,$@><8$8@18;@4&1*,,4;%@;6@@;*O@1%,o****;@*3&376,%$%%*,36#X*%@6$,@;38%$;4;%%O4@0$>6*&**%$%%%*;,4,1>6$$,373,X6;@28,,1,*>$>q$**$",
"&36,#o&;1>8@38;$8;,;,&66#*&6##;%@;,@*#***;;$;1&7331*@%;&>34o#*@>5o;%;<8*@&,*#*o3$8,$11#%*###*$;;,1,1;q$&,231,o6;$18,,1,$;$>0@;*%",
";<6,#%$$*68@381$61,&;&70*5$,,@;o;61O%*****,#,<-733,;$*,$>34O%*X61@*$;<66@@;*O;.3*36@>4@#%$%$;#;;;<11,8$$,381,o3;$10*11*%*%;0%*;*",
";>7,%%@*&36&3771<8,**$28,0@-6%##77;O%1%%*;;*,,&3331*$&,%*1,X**X0,%%@&>>0:@**@%o,-88o,5%##@:X4@;;;1,1,0$$,381,@3;$<q*,,*@*$-8$*;*",
",&75#$$*>36$7337>6**$$1333o$8:#,75O-;5$$;*;>>,;313,**@,#*14X1**6,#%#@;,28%#*%@&%-78o,5o#o@,@4X>,,1,3>0*%>27,1o5;$>8,;;*@$;&8$,;,",
",&31*O$>>13&7737;5*%@$,<76#$36*73;%;78$$,;,%,;,116,,%o,#*1:X3$;6;##%$&;,6,$,*%;@&<3$;6O%#o4$1o$1;1,<,8*$,37,,o6;&&0;;*;o;%$8$;;;",
"5#>6*%#1,13,<315*<%*@$,,1,,$<333;--37q$@;;,$;*3<36,*#o;$;,;#<$$8;O*4*$&,,8#**;;$*&6o,,@*@$1*;O*>,1,3,8*&;1614o1;&>9<,%%O,$@8@;;-",
"3*-7;@$3;18;>733;;%@*&,,,1;$>371;O,770OO,,1%;-8161,%%o*%$1*>%*+7;o65$@>,*qo;;;4%$@3@,,#@**,;%$%;>31118;&,<71;@6,*>76*@*@6#@8@;,-",
"3%@8;*$5,<8;$731;;%o,o<;,6;$,<3;;X7117%$1;1%;-7<715%%#**$1*4X,$;,X75#$***8o;*>6*@@,$5*@%*,,,%@--,13118;*,1314o11$-70;O;$8#$6@,,,",
"5*@0;;&7,,8*+273;;%@4O,;-8$%>13;$$7118%$,;5$,,8,335%#%,*$1;4#%,#4o7>#@*$>6#;*,64##*@6*#*;6;5%@%-133<38;*;151,$35$-70%o,&8O$5$-,,",
"6*@7;;;73<6#@>77;;*@8@;;-8o*;,1*o<7,>7;$,,3$,,31631%#%**$1;,%%,#1@1#%#1%>8@*;16,%;@%8*#*-715*$&;,333<81&,<31,$31$>36%o1*qo$1&;,-",
"3;@0,;>76;1%o-73;%;$qo;*;8o$;;,#o73-,31$,,3$,731335;%**$@1*,*$;@1*#*,>6*,7#;,373$6%>7*%*$3,,;$$-1733373$><3,;o33$;31%o3,qo$5@;,-",
"3;+7,,-781;#X*38;*,@qO&**5*$;;;#$33%-;8@,,1$<73<133,*&*%@5*1%$-@5*@,1,3,3;;113<7,3;3&*;4o<,>;o%;,37,378%;,315X34$11,*@1<8o$1$;,-",
"5;@9<,>7764%O-38;%;@q$$;&1;@,-4@;33--;8O-,;$3713<634%**%@>,;$#%o8;&2*1*3*;*22<&<3>18o;&,#;$*$o%-7771<78;*,3,4o3,$81;%$6<qO&1%;,;",
"1;@81;,77781;,73;$1.q#@;$15o;%;@;13%;;;;-,,@73,6<381;***$;*>O$*o815#,,4*;113%;$@3X3*%;$5%%o*OO&-1733<10O;131, 3,@8,,%&73qO,,;;;,"
};
